<svg width="42" height="31" viewBox="0 0 42 31" fill="none" xmlns="http://www.w3.org/2000/svg">
<path d="M0.59668 25.669C0.59668 24.6384 0.86268 23.7185 1.39468 22.9095C1.92668 22.1005 2.63718 21.4712 3.52618 21.0215C5.42685 20.0919 7.33801 19.375 9.25968 18.871C11.1817 18.3674 13.2938 18.1155 15.5962 18.1155C17.8988 18.1155 20.011 18.3674 21.9327 18.871C23.8547 19.375 25.766 20.0919 27.6667 21.0215C28.5557 21.4712 29.2662 22.1005 29.7982 22.9095C30.3302 23.7185 30.5962 24.6384 30.5962 25.669V27.077C30.5962 27.882 30.3007 28.5897 29.7097 29.2C29.1187 29.8104 28.4014 30.1155 27.5577 30.1155H3.63468C2.79135 30.1155 2.07418 29.82 1.48318 29.229C0.89218 28.6377 0.59668 27.9204 0.59668 27.077V25.669ZM38.3657 30.1155H33.8232C34.0745 29.6565 34.2662 29.168 34.3982 28.65C34.5302 28.132 34.5962 27.6077 34.5962 27.077V25.423C34.5962 24.1104 34.2748 22.8592 33.6322 21.6695C32.9892 20.4802 32.0772 19.4597 30.8962 18.608C32.2372 18.808 33.5103 19.1175 34.7157 19.5365C35.9207 19.9559 37.0707 20.4514 38.1657 21.023C39.199 21.5744 39.997 22.2242 40.5597 22.9725C41.1223 23.7205 41.4037 24.5374 41.4037 25.423V27.077C41.4037 27.9204 41.1082 28.6377 40.5172 29.229C39.9262 29.82 39.209 30.1155 38.3657 30.1155ZM15.5962 14.8845C13.6712 14.8845 12.0233 14.1992 10.6527 12.8285C9.28201 11.4575 8.59668 9.80952 8.59668 7.88452C8.59668 5.95952 9.28201 4.31169 10.6527 2.94102C12.0233 1.57002 13.6712 0.884521 15.5962 0.884521C17.5212 0.884521 19.1692 1.57002 20.5402 2.94102C21.9108 4.31169 22.5962 5.95952 22.5962 7.88452C22.5962 9.80952 21.9108 11.4575 20.5402 12.8285C19.1692 14.1992 17.5212 14.8845 15.5962 14.8845ZM32.8652 7.88452C32.8652 9.80952 32.1798 11.4575 30.8092 12.8285C29.4385 14.1992 27.7907 14.8845 25.8657 14.8845C25.64 14.8845 25.3528 14.8589 25.0042 14.8075C24.6552 14.7562 24.368 14.6999 24.1427 14.6385C24.9313 13.6902 25.5375 12.6382 25.9612 11.4825C26.3845 10.3269 26.5962 9.12686 26.5962 7.88252C26.5962 6.63786 26.3802 5.44235 25.9482 4.29602C25.5162 3.15002 24.9143 2.09502 24.1427 1.13102C24.4297 1.02835 24.7169 0.961688 25.0042 0.931021C25.2912 0.900021 25.5783 0.884521 25.8657 0.884521C27.7907 0.884521 29.4385 1.57002 30.8092 2.94102C32.1798 4.31169 32.8652 5.95952 32.8652 7.88452ZM3.59618 27.1155H27.5962V25.669C27.5962 25.2514 27.4917 24.8797 27.2827 24.554C27.074 24.2284 26.7427 23.9437 26.2887 23.7C24.6427 22.8514 22.9478 22.2084 21.2042 21.771C19.4605 21.334 17.5912 21.1155 15.5962 21.1155C13.6015 21.1155 11.7323 21.334 9.98868 21.771C8.24501 22.2084 6.55018 22.8514 4.90418 23.7C4.45018 23.9437 4.11868 24.2284 3.90968 24.554C3.70068 24.8797 3.59618 25.2514 3.59618 25.669V27.1155ZM15.5962 11.8845C16.6962 11.8845 17.6378 11.4929 18.4212 10.7095C19.2045 9.92619 19.5962 8.98452 19.5962 7.88452C19.5962 6.78452 19.2045 5.84285 18.4212 5.05952C17.6378 4.27619 16.6962 3.88452 15.5962 3.88452C14.4962 3.88452 13.5545 4.27619 12.7712 5.05952C11.9878 5.84285 11.5962 6.78452 11.5962 7.88452C11.5962 8.98452 11.9878 9.92619 12.7712 10.7095C13.5545 11.4929 14.4962 11.8845 15.5962 11.8845Z" fill="#394452"/>
</svg>
