<svg width="95" height="66" viewBox="0 0 95 66" fill="none" xmlns="http://www.w3.org/2000/svg">
<path d="M94.669 51.0524C89.7843 53.138 85.4604 53.2935 80.3063 52.0494C79.5093 52.1799 80.5479 52.8825 80.8062 53.1019C83.1694 54.9708 87.0184 55.018 90.0564 54.8597C82.6945 59.1363 73.3193 62.7992 64.7856 61.855C54.8772 60.958 44.6272 53.8767 43.6136 43.449C49.7508 41.269 55.9685 37.4784 59.1288 31.5717C62.4778 23.5877 54.2135 19.55 47.5153 24.3903C42.0834 28.317 39.2426 35.0679 39.026 41.6994C13.283 46.8897 -3.49573 24.5319 1.89169 0.285793C1.89949 0.256223 1.90117 0.225373 1.89665 0.195128C1.89212 0.164884 1.88148 0.135878 1.86536 0.109887C1.84925 0.0838955 1.828 0.0614631 1.80293 0.0439605C1.77785 0.0264579 1.74947 0.0142528 1.71951 0.00809099C1.6907 0.000146579 1.66059 -0.00197514 1.63095 0.00184826C1.6013 0.00567166 1.57272 0.015364 1.54687 0.0303595C1.52101 0.0453551 1.49841 0.0653525 1.48037 0.0891841C1.46233 0.113016 1.44922 0.140204 1.44181 0.169158C-5.30356 25.34 12.3472 49.0197 39.1898 44.582C40.0646 52.3049 45.5575 58.9086 52.3917 62.2632C64.5634 68.4254 80.534 64.2321 90.7868 56.0066C90.5257 57.3951 89.7454 58.6392 89.4788 60.0222C89.1678 61.6412 89.7815 64.6043 90.5174 63.6879C90.844 62.1435 91.2887 60.6265 91.8476 59.1502C92.3863 57.6478 93.0417 55.9678 93.6499 54.4932L93.772 54.2155L94.9773 51.3885C94.9977 51.3442 95.0046 51.2949 94.997 51.2468C94.9895 51.1986 94.9679 51.1538 94.935 51.1179C94.902 51.082 94.8592 51.0566 94.8119 51.0449C94.7646 51.0333 94.7149 51.0359 94.669 51.0524ZM46.5406 31.4495C50.6811 23.4933 60.1479 24.8235 54.6994 32.3131C51.71 35.8451 47.8942 38.5838 43.5914 40.2859C43.8832 37.1531 44.8923 34.1296 46.5406 31.4495Z" fill="#1A1A1A"/>
<path d="M5.59917 36.8123C5.61892 36.7882 5.64442 36.7694 5.67331 36.7577C5.70221 36.746 5.73358 36.7418 5.76454 36.7454C5.7955 36.749 5.82506 36.7603 5.85051 36.7783C5.87596 36.7963 5.89648 36.8204 5.91019 36.8484C8.44561 41.9359 14.1191 45.5932 19.1482 45.9709C19.1934 45.9737 19.2358 45.9937 19.2668 46.0267C19.2977 46.0597 19.3149 46.1033 19.3148 46.1486C19.3144 46.194 19.2989 46.238 19.2707 46.2737C19.2426 46.3094 19.2034 46.3347 19.1593 46.3458C13.3748 47.7676 7.49587 42.2636 5.55195 37.1622C5.52931 37.104 5.52278 37.0408 5.53304 36.9792C5.54331 36.9176 5.56999 36.86 5.61027 36.8123H5.59917Z" fill="#1A1A1A"/>
<path d="M59.8124 20.0079C63.1226 19.6413 65.1748 23.8263 63.6086 26.57C63.5986 26.5888 63.5825 26.6037 63.563 26.6122C63.5434 26.6207 63.5216 26.6224 63.501 26.6169C63.4804 26.6114 63.4623 26.5991 63.4495 26.5821C63.4368 26.565 63.4302 26.5441 63.4309 26.5228C63.4309 23.8207 62.4034 21.2465 59.7902 20.1912C59.7698 20.1841 59.7524 20.1703 59.7409 20.152C59.7295 20.1337 59.7246 20.112 59.7272 20.0906C59.7298 20.0691 59.7397 20.0492 59.7552 20.0342C59.7707 20.0191 59.7909 20.0099 59.8124 20.0079Z" fill="#1A1A1A"/>
<path d="M4.97168 35.1152C4.7083 35.1381 4.44586 35.0618 4.23577 34.9013C4.07663 34.787 3.95566 34.6273 3.88865 34.4431C3.82425 34.2648 3.81553 34.0711 3.86365 33.8877C3.92805 33.6388 4.0677 33.4157 4.26354 33.249C4.49836 33.3133 4.7176 33.4248 4.90781 33.5767C5.03627 33.6783 5.13375 33.8138 5.18921 33.9679C5.24466 34.122 5.25589 34.2885 5.22161 34.4487C5.16873 34.6811 5.08466 34.9053 4.97168 35.1152Z" fill="#1A1A1A"/>
<path d="M63.2392 28.3336C63.2419 28.3179 63.2496 28.3035 63.261 28.2924C63.2725 28.2814 63.2872 28.2742 63.3029 28.2721C63.3187 28.2699 63.3348 28.2728 63.3488 28.2804C63.3628 28.288 63.374 28.2998 63.3809 28.3142C63.4571 28.4656 63.5015 28.631 63.5114 28.8002C63.5234 29.0291 63.4913 29.2582 63.417 29.475C63.3429 29.6909 63.2268 29.8901 63.0754 30.0609C62.9646 30.1892 62.8284 30.2932 62.6755 30.3664C62.6614 30.3724 62.6459 30.3741 62.6308 30.3712C62.6158 30.3684 62.6019 30.3612 62.5909 30.3505C62.5799 30.3399 62.5724 30.3262 62.5691 30.3112C62.5659 30.2963 62.5672 30.2807 62.5728 30.2664C62.6422 30.122 62.6977 29.9887 62.7533 29.8554C62.8282 29.6749 62.8921 29.4944 62.956 29.3139C63.0198 29.1334 63.0782 28.9529 63.1309 28.7585C63.1698 28.6252 63.2059 28.4891 63.2392 28.3336Z" fill="#1A1A1A"/>
<path d="M61.8805 58.4699C66.1876 59.5501 72.3832 59.3196 76.3488 57.2619C76.3572 57.256 76.3677 57.2537 76.3778 57.2555C76.388 57.2573 76.397 57.2631 76.4029 57.2716C76.4088 57.28 76.4111 57.2905 76.4093 57.3007C76.4074 57.3108 76.4017 57.3198 76.3932 57.3257C72.983 60.3221 65.81 60.6415 61.8555 58.5421C61.8476 58.5376 61.8416 58.5304 61.8384 58.522C61.8352 58.5135 61.8351 58.5042 61.8381 58.4956C61.841 58.487 61.8469 58.4798 61.8546 58.4751C61.8624 58.4704 61.8715 58.4685 61.8805 58.4699Z" fill="#1A1A1A"/>
</svg>
