<svg width="43" height="29" viewBox="0 0 43 29" fill="none" xmlns="http://www.w3.org/2000/svg">
<path d="M22.3733 22.8425L38.9888 6.22696C39.0784 6.13729 39.1233 6.02829 39.1233 5.89996C39.1233 5.77162 39.0784 5.66263 38.9888 5.57296L37.0428 3.62696C36.9528 3.53729 36.8438 3.49246 36.7158 3.49246C36.5874 3.49246 36.4784 3.53729 36.3888 3.62696L19.7733 20.2425L22.3733 22.8425ZM3.88477 19.569C3.88477 20.6513 4.2566 21.4975 5.00027 22.1075C5.74393 22.7178 6.93377 23.1256 8.56977 23.331C8.97477 23.3846 9.30027 23.5685 9.54627 23.8825C9.7926 24.1968 9.90543 24.5565 9.88477 24.9615C9.86443 25.3871 9.7126 25.7385 9.42927 26.0155C9.14593 26.2921 8.8081 26.4036 8.41577 26.35C5.92077 26.0423 4.04193 25.3218 2.77927 24.1885C1.51627 23.0551 0.884766 21.5153 0.884766 19.569C0.884766 17.5436 1.73477 15.9008 3.43477 14.6405C5.13477 13.3801 7.4976 12.6166 10.5233 12.35C11.9773 12.2243 13.0678 11.9615 13.7948 11.5615C14.5214 11.1615 14.8848 10.6076 14.8848 9.89996C14.8848 9.02562 14.5059 8.33846 13.7483 7.83846C12.9906 7.33846 11.7478 6.95896 10.0198 6.69996C9.61443 6.64596 9.28227 6.46012 9.02327 6.14246C8.76427 5.82446 8.66177 5.46279 8.71577 5.05746C8.76943 4.63213 8.9546 4.28613 9.27127 4.01946C9.58793 3.75279 9.95527 3.65279 10.3733 3.71946C12.9219 4.10646 14.8111 4.80646 16.0408 5.81946C17.2701 6.83213 17.8848 8.19229 17.8848 9.89996C17.8848 11.487 17.2753 12.7453 16.0563 13.675C14.8369 14.6043 13.0669 15.1626 10.7463 15.35C8.45927 15.5423 6.74393 15.9885 5.60027 16.6885C4.4566 17.3885 3.88477 18.3486 3.88477 19.569ZM22.8423 26.619L15.9963 19.773L34.6733 1.11546C35.2629 0.525791 35.9521 0.234124 36.7408 0.240457C37.5291 0.246791 38.2181 0.538457 38.8078 1.11546L41.5003 3.80746C42.0899 4.39746 42.3848 5.08979 42.3848 5.88446C42.3848 6.67946 42.0899 7.37179 41.5003 7.96146L22.8423 26.619ZM16.1618 28C15.7104 28.1076 15.3131 27.9896 14.9698 27.646C14.6261 27.3023 14.5081 26.905 14.6158 26.454L15.9963 19.773L22.8423 26.619L16.1618 28Z" fill="#394452"/>
</svg>
