<svg width="36" height="30" viewBox="0 0 36 30" fill="none" xmlns="http://www.w3.org/2000/svg">
<path d="M26.2072 19.6155L33.4802 13.3655L34.2802 13.427C34.7199 13.4793 35.0625 13.6622 35.3082 13.9755C35.5535 14.2888 35.6762 14.6283 35.6762 14.994C35.6762 15.203 35.6372 15.4082 35.5592 15.6095C35.4812 15.8112 35.3382 15.9875 35.1302 16.1385L29.7762 20.804L31.3842 27.804C31.4045 27.8557 31.4147 27.914 31.4147 27.979V28.154C31.4147 28.595 31.2629 28.9622 30.9592 29.2555C30.6552 29.5492 30.2944 29.696 29.8767 29.696C29.746 29.696 29.6089 29.6807 29.4652 29.65C29.3215 29.6193 29.1855 29.5603 29.0572 29.473L28.4112 29.073L26.2072 19.6155ZM21.9497 6.4195L19.9267 1.673L20.2037 0.996503C20.3307 0.682503 20.5279 0.440502 20.7952 0.270502C21.0622 0.100502 21.3397 0.0155029 21.6277 0.0155029C21.9157 0.0155029 22.197 0.096335 22.4717 0.258002C22.7467 0.419335 22.9484 0.65517 23.0767 0.965503L25.5187 6.754L21.9497 6.4195ZM8.69971 24.65L14.9997 20.85L21.2997 24.7L19.6497 17.5L25.1997 12.7L17.8997 12.05L14.9997 5.25L12.0997 12L4.79971 12.65L10.3497 17.5L8.69971 24.65ZM5.10371 26.7655L7.01521 18.5845L0.665211 13.081C0.436877 12.8937 0.277877 12.6817 0.188211 12.445C0.098544 12.2083 0.0537109 11.9715 0.0537109 11.7345C0.0537109 11.3105 0.199211 10.9167 0.490211 10.553C0.781211 10.1897 1.18438 9.981 1.69971 9.927L10.0822 9.191L13.3227 1.485C13.4734 1.12334 13.7069 0.852169 14.0232 0.671503C14.3395 0.490503 14.6634 0.400003 14.9947 0.400003C15.3264 0.400003 15.6515 0.490503 15.9702 0.671503C16.2892 0.852169 16.5247 1.12334 16.6767 1.485L19.9172 9.191L28.2997 9.927C28.815 9.981 29.2182 10.1895 29.5092 10.5525C29.8002 10.9158 29.9457 11.3093 29.9457 11.733C29.9457 11.975 29.9009 12.2133 29.8112 12.448C29.7215 12.6827 29.5625 12.8937 29.3342 13.081L22.9842 18.5845L24.9022 26.766C24.9312 26.8527 24.9457 26.9868 24.9457 27.1685C24.9457 27.6832 24.7654 28.1145 24.4047 28.4625C24.044 28.8105 23.6234 28.9845 23.1427 28.9845C23.0524 28.9845 22.7329 28.8908 22.1842 28.7035L14.9997 24.377L7.81521 28.7035C7.66121 28.7908 7.50138 28.8595 7.33571 28.9095C7.17004 28.9595 7.01188 28.9845 6.86121 28.9845C6.31888 28.9845 5.85188 28.7653 5.46021 28.327C5.06854 27.8883 4.94971 27.3678 5.10371 26.7655Z" fill="#394452"/>
</svg>
