<svg width="25" height="24" viewBox="0 0 25 24" fill="none" xmlns="http://www.w3.org/2000/svg">
<g clip-path="url(#clip0_6107_11937)">
<path d="M18.0977 6.34373C18.4655 6.07993 18.9196 6.53404 18.6558 6.9019L15.1672 11.7664C15.0672 11.9058 15.0672 12.0933 15.1672 12.2327L18.6558 17.0972C18.9196 17.4651 18.4655 17.9192 18.0977 17.6554L13.2331 14.1667C13.0938 14.0668 12.9062 14.0668 12.7669 14.1667L7.90234 17.6554C7.53449 17.9192 7.08037 17.4651 7.34418 17.0972L10.8328 12.2327C10.9328 12.0933 10.9328 11.9058 10.8328 11.7664L7.34418 6.9019C7.08037 6.53404 7.53449 6.07993 7.90234 6.34373L12.7669 9.83238C12.9062 9.93231 13.0938 9.93231 13.2331 9.83238L18.0977 6.34373Z" fill="#0066FF"/>
</g>
<defs>
<clipPath id="clip0_6107_11937">
<rect width="24.0117" height="24" fill="white" transform="translate(0.988281)"/>
</clipPath>
</defs>
</svg>
