<svg width="34" height="41" viewBox="0 0 34 41" fill="none" xmlns="http://www.w3.org/2000/svg">
<path d="M12.8845 3.5C12.4595 3.5 12.1033 3.35617 11.816 3.0685C11.5283 2.78083 11.3845 2.4245 11.3845 1.9995C11.3845 1.57417 11.5283 1.218 11.816 0.931C12.1033 0.643666 12.4595 0.5 12.8845 0.5H21.1155C21.5405 0.5 21.8967 0.643834 22.184 0.9315C22.4717 1.21917 22.6155 1.5755 22.6155 2.0005C22.6155 2.42583 22.4717 2.782 22.184 3.069C21.8967 3.35633 21.5405 3.5 21.1155 3.5H12.8845ZM17.0005 25.6155C17.4258 25.6155 17.782 25.4717 18.069 25.184C18.3563 24.8967 18.5 24.5405 18.5 24.1155V15.8845C18.5 15.4595 18.3562 15.1033 18.0685 14.816C17.7808 14.5283 17.4245 14.3845 16.9995 14.3845C16.5742 14.3845 16.218 14.5283 15.931 14.816C15.6437 15.1033 15.5 15.4595 15.5 15.8845V24.1155C15.5 24.5405 15.6438 24.8967 15.9315 25.184C16.2192 25.4717 16.5755 25.6155 17.0005 25.6155ZM17 41C14.6677 41 12.4692 40.5538 10.4045 39.6615C8.33983 38.7692 6.53583 37.5512 4.9925 36.0075C3.44883 34.4642 2.23083 32.6602 1.3385 30.5955C0.446167 28.5308 0 26.3323 0 24C0 21.6677 0.446167 19.4692 1.3385 17.4045C2.23083 15.3398 3.44883 13.5358 4.9925 11.9925C6.53583 10.4488 8.33983 9.23083 10.4045 8.3385C12.4692 7.44617 14.6677 7 17 7C19.0027 7 20.9315 7.33983 22.7865 8.0195C24.6415 8.69883 26.364 9.67183 27.954 10.9385L29.3925 9.5C29.6692 9.223 30.0172 9.08133 30.4365 9.075C30.8558 9.06867 31.2103 9.21033 31.5 9.5C31.7897 9.78967 31.9345 10.141 31.9345 10.554C31.9345 10.9667 31.7897 11.3178 31.5 11.6075L30.0615 13.046C31.3282 14.636 32.3012 16.3585 32.9805 18.2135C33.6602 20.0685 34 21.9973 34 24C34 26.3323 33.5538 28.5308 32.6615 30.5955C31.7692 32.6602 30.5512 34.4642 29.0075 36.0075C27.4642 37.5512 25.6602 38.7692 23.5955 39.6615C21.5308 40.5538 19.3323 41 17 41ZM17 38C20.8667 38 24.1667 36.6333 26.9 33.9C29.6333 31.1667 31 27.8667 31 24C31 20.1333 29.6333 16.8333 26.9 14.1C24.1667 11.3667 20.8667 10 17 10C13.1333 10 9.83333 11.3667 7.1 14.1C4.36667 16.8333 3 20.1333 3 24C3 27.8667 4.36667 31.1667 7.1 33.9C9.83333 36.6333 13.1333 38 17 38Z" fill="#394452"/>
</svg>
