<svg width="1440" height="644" viewBox="0 0 1440 644" fill="none" xmlns="http://www.w3.org/2000/svg">
<g clip-path="url(#clip0_6107_11947)">
<g filter="url(#filter0_f_6107_11947)">
<ellipse cx="1509.27" cy="405.408" rx="664.985" ry="673.184" transform="rotate(51.5415 1509.27 405.408)" fill="url(#paint0_linear_6107_11947)"/>
</g>
<g filter="url(#filter1_f_6107_11947)">
<ellipse cx="1236.06" cy="1020.08" rx="449.681" ry="454.849" transform="rotate(180 1236.06 1020.08)" fill="#E5E1FF"/>
</g>
<g filter="url(#filter2_f_6107_11947)">
<ellipse cx="1447.09" cy="1115.61" rx="367.337" ry="371.793" transform="rotate(180 1447.09 1115.61)" fill="#0066FF"/>
</g>
<g filter="url(#filter3_f_6107_11947)">
<path d="M658.633 102.868C518.225 453.187 740.059 884.468 1375.14 1003.6C785.873 763.196 779.626 364.69 834.37 67.7066L658.633 102.868Z" fill="white" fill-opacity="0.85"/>
</g>
<g filter="url(#filter4_f_6107_11947)">
<path d="M516.566 267.97C361.606 484.112 440.937 816.536 855.532 1004.79C492.67 741.244 555.366 467.48 642.739 273.442L516.566 267.97Z" fill="white" fill-opacity="0.85"/>
</g>
<g filter="url(#filter5_f_6107_11947)">
<path d="M993.119 117.907C885.229 397.383 1065.68 737.445 1570.96 825.557C1100.81 640.725 1091.81 324.491 1132.25 88.2168L993.119 117.907Z" fill="url(#paint1_linear_6107_11947)" fill-opacity="0.7"/>
</g>
<g filter="url(#filter6_f_6107_11947)">
<path d="M1209.52 76.445C1165.3 372.742 1415.68 665.161 1928.01 640.744C1428.83 563.102 1845.53 164.612 1833.37 -74.7881L1209.52 76.445Z" fill="white" fill-opacity="0.8"/>
</g>
<g filter="url(#filter7_f_6107_11947)">
<ellipse cx="664.985" cy="673.184" rx="664.985" ry="673.184" transform="matrix(-0.621948 0.783059 0.783059 0.621948 -257.827 -534)" fill="url(#paint2_linear_6107_11947)"/>
</g>
<g filter="url(#filter8_f_6107_11947)">
<ellipse cx="449.681" cy="454.849" rx="449.681" ry="454.849" transform="matrix(1 0 0 -1 -320.739 1474.93)" fill="#E5E1FF"/>
</g>
<g filter="url(#filter9_f_6107_11947)">
<ellipse cx="367.337" cy="371.793" rx="367.337" ry="371.793" transform="matrix(1 0 0 -1 -449.424 1487.4)" fill="#0066FF"/>
</g>
<g filter="url(#filter10_f_6107_11947)">
<path d="M706.367 102.868C846.775 453.187 624.941 884.468 -10.1448 1003.6C579.127 763.196 585.374 364.69 530.63 67.7066L706.367 102.868Z" fill="white" fill-opacity="0.85"/>
</g>
<g filter="url(#filter11_f_6107_11947)">
<path d="M848.434 267.97C1003.39 484.112 924.063 816.536 509.468 1004.79C872.33 741.244 809.634 467.48 722.261 273.442L848.434 267.97Z" fill="white" fill-opacity="0.85"/>
</g>
<g filter="url(#filter12_f_6107_11947)">
<path d="M371.881 117.907C479.771 397.383 299.324 737.445 -205.958 825.557C264.191 640.725 273.192 324.491 232.754 88.2168L371.881 117.907Z" fill="url(#paint3_linear_6107_11947)" fill-opacity="0.7"/>
</g>
<g filter="url(#filter13_f_6107_11947)">
<path d="M155.485 76.445C199.705 372.742 -50.6827 665.161 -563.008 640.744C-63.834 563.102 -480.532 164.612 -468.369 -74.7881L155.485 76.445Z" fill="white" fill-opacity="0.8"/>
</g>
</g>
<defs>
<filter id="filter0_f_6107_11947" x="482.753" y="-619.249" width="2053.04" height="2049.31" filterUnits="userSpaceOnUse" color-interpolation-filters="sRGB">
<feFlood flood-opacity="0" result="BackgroundImageFix"/>
<feBlend mode="normal" in="SourceGraphic" in2="BackgroundImageFix" result="shape"/>
<feGaussianBlur stdDeviation="178.232" result="effect1_foregroundBlur_6107_11947"/>
</filter>
<filter id="filter1_f_6107_11947" x="429.913" y="208.762" width="1612.29" height="1622.63" filterUnits="userSpaceOnUse" color-interpolation-filters="sRGB">
<feFlood flood-opacity="0" result="BackgroundImageFix"/>
<feBlend mode="normal" in="SourceGraphic" in2="BackgroundImageFix" result="shape"/>
<feGaussianBlur stdDeviation="178.232" result="effect1_foregroundBlur_6107_11947"/>
</filter>
<filter id="filter2_f_6107_11947" x="723.284" y="387.352" width="1447.6" height="1456.52" filterUnits="userSpaceOnUse" color-interpolation-filters="sRGB">
<feFlood flood-opacity="0" result="BackgroundImageFix"/>
<feBlend mode="normal" in="SourceGraphic" in2="BackgroundImageFix" result="shape"/>
<feGaussianBlur stdDeviation="178.232" result="effect1_foregroundBlur_6107_11947"/>
</filter>
<filter id="filter3_f_6107_11947" x="439.947" y="-110.526" width="1113.43" height="1292.36" filterUnits="userSpaceOnUse" color-interpolation-filters="sRGB">
<feFlood flood-opacity="0" result="BackgroundImageFix"/>
<feBlend mode="normal" in="SourceGraphic" in2="BackgroundImageFix" result="shape"/>
<feGaussianBlur stdDeviation="89.1162" result="effect1_foregroundBlur_6107_11947"/>
</filter>
<filter id="filter4_f_6107_11947" x="264.775" y="89.7377" width="768.988" height="1093.29" filterUnits="userSpaceOnUse" color-interpolation-filters="sRGB">
<feFlood flood-opacity="0" result="BackgroundImageFix"/>
<feBlend mode="normal" in="SourceGraphic" in2="BackgroundImageFix" result="shape"/>
<feGaussianBlur stdDeviation="89.1162" result="effect1_foregroundBlur_6107_11947"/>
</filter>
<filter id="filter5_f_6107_11947" x="838.313" y="-36.5459" width="857.407" height="986.866" filterUnits="userSpaceOnUse" color-interpolation-filters="sRGB">
<feFlood flood-opacity="0" result="BackgroundImageFix"/>
<feBlend mode="normal" in="SourceGraphic" in2="BackgroundImageFix" result="shape"/>
<feGaussianBlur stdDeviation="62.3814" result="effect1_foregroundBlur_6107_11947"/>
</filter>
<filter id="filter6_f_6107_11947" x="990.644" y="-288.667" width="1151.24" height="1144.72" filterUnits="userSpaceOnUse" color-interpolation-filters="sRGB">
<feFlood flood-opacity="0" result="BackgroundImageFix"/>
<feBlend mode="normal" in="SourceGraphic" in2="BackgroundImageFix" result="shape"/>
<feGaussianBlur stdDeviation="106.94" result="effect1_foregroundBlur_6107_11947"/>
</filter>
<filter id="filter7_f_6107_11947" x="-1170.79" y="-619.249" width="2053.04" height="2049.31" filterUnits="userSpaceOnUse" color-interpolation-filters="sRGB">
<feFlood flood-opacity="0" result="BackgroundImageFix"/>
<feBlend mode="normal" in="SourceGraphic" in2="BackgroundImageFix" result="shape"/>
<feGaussianBlur stdDeviation="178.232" result="effect1_foregroundBlur_6107_11947"/>
</filter>
<filter id="filter8_f_6107_11947" x="-677.204" y="208.762" width="1612.29" height="1622.63" filterUnits="userSpaceOnUse" color-interpolation-filters="sRGB">
<feFlood flood-opacity="0" result="BackgroundImageFix"/>
<feBlend mode="normal" in="SourceGraphic" in2="BackgroundImageFix" result="shape"/>
<feGaussianBlur stdDeviation="178.232" result="effect1_foregroundBlur_6107_11947"/>
</filter>
<filter id="filter9_f_6107_11947" x="-805.889" y="387.352" width="1447.6" height="1456.52" filterUnits="userSpaceOnUse" color-interpolation-filters="sRGB">
<feFlood flood-opacity="0" result="BackgroundImageFix"/>
<feBlend mode="normal" in="SourceGraphic" in2="BackgroundImageFix" result="shape"/>
<feGaussianBlur stdDeviation="178.232" result="effect1_foregroundBlur_6107_11947"/>
</filter>
<filter id="filter10_f_6107_11947" x="-188.377" y="-110.526" width="1113.43" height="1292.36" filterUnits="userSpaceOnUse" color-interpolation-filters="sRGB">
<feFlood flood-opacity="0" result="BackgroundImageFix"/>
<feBlend mode="normal" in="SourceGraphic" in2="BackgroundImageFix" result="shape"/>
<feGaussianBlur stdDeviation="89.1162" result="effect1_foregroundBlur_6107_11947"/>
</filter>
<filter id="filter11_f_6107_11947" x="331.236" y="89.7377" width="768.988" height="1093.29" filterUnits="userSpaceOnUse" color-interpolation-filters="sRGB">
<feFlood flood-opacity="0" result="BackgroundImageFix"/>
<feBlend mode="normal" in="SourceGraphic" in2="BackgroundImageFix" result="shape"/>
<feGaussianBlur stdDeviation="89.1162" result="effect1_foregroundBlur_6107_11947"/>
</filter>
<filter id="filter12_f_6107_11947" x="-330.721" y="-36.5459" width="857.407" height="986.866" filterUnits="userSpaceOnUse" color-interpolation-filters="sRGB">
<feFlood flood-opacity="0" result="BackgroundImageFix"/>
<feBlend mode="normal" in="SourceGraphic" in2="BackgroundImageFix" result="shape"/>
<feGaussianBlur stdDeviation="62.3814" result="effect1_foregroundBlur_6107_11947"/>
</filter>
<filter id="filter13_f_6107_11947" x="-776.887" y="-288.667" width="1151.24" height="1144.72" filterUnits="userSpaceOnUse" color-interpolation-filters="sRGB">
<feFlood flood-opacity="0" result="BackgroundImageFix"/>
<feBlend mode="normal" in="SourceGraphic" in2="BackgroundImageFix" result="shape"/>
<feGaussianBlur stdDeviation="106.94" result="effect1_foregroundBlur_6107_11947"/>
</filter>
<linearGradient id="paint0_linear_6107_11947" x1="1335.14" y1="753.318" x2="1509.27" y2="1078.59" gradientUnits="userSpaceOnUse">
<stop stop-color="white"/>
<stop offset="1" stop-color="#0064FF"/>
</linearGradient>
<linearGradient id="paint1_linear_6107_11947" x1="1063.17" y1="341.818" x2="1975.44" y2="1193.7" gradientUnits="userSpaceOnUse">
<stop stop-color="white"/>
<stop offset="1" stop-color="white" stop-opacity="0"/>
</linearGradient>
<linearGradient id="paint2_linear_6107_11947" x1="490.852" y1="1021.09" x2="664.985" y2="1346.37" gradientUnits="userSpaceOnUse">
<stop stop-color="white"/>
<stop offset="1" stop-color="#0064FF"/>
</linearGradient>
<linearGradient id="paint3_linear_6107_11947" x1="301.831" y1="341.818" x2="-610.438" y2="1193.7" gradientUnits="userSpaceOnUse">
<stop stop-color="white"/>
<stop offset="1" stop-color="white" stop-opacity="0"/>
</linearGradient>
<clipPath id="clip0_6107_11947">
<rect width="1440" height="908" fill="white" transform="translate(0 -244)"/>
</clipPath>
</defs>
</svg>
