<svg width="56" height="56" viewBox="0 0 56 56" fill="none" xmlns="http://www.w3.org/2000/svg">
<rect width="56" height="56" rx="28" fill="#E1E9FE"/>
<path d="M22.4446 32.8325C22.1498 32.6685 21.9187 32.4472 21.7513 32.1685C21.584 31.8898 21.5003 31.5773 21.5003 31.2308V26.8923L19.5043 25.7885C19.3402 25.6948 19.2197 25.5809 19.1428 25.4468C19.0658 25.3128 19.0273 25.1638 19.0273 24.9998C19.0273 24.8358 19.0658 24.6868 19.1428 24.553C19.2197 24.419 19.3402 24.3052 19.5043 24.2115L27.1393 20.0515C27.2748 19.9762 27.4144 19.9208 27.5581 19.8855C27.7018 19.8503 27.8492 19.8328 28.0003 19.8328C28.1515 19.8328 28.2989 19.8503 28.4426 19.8855C28.5863 19.9208 28.726 19.9761 28.8618 20.0513L37.4848 24.7443C37.6387 24.8276 37.7567 24.9403 37.8388 25.0823C37.9208 25.2244 37.9618 25.3778 37.9618 25.5423V31.4423C37.9618 31.6548 37.8899 31.8329 37.7461 31.9768C37.6023 32.1204 37.4241 32.1923 37.2116 32.1923C36.9989 32.1923 36.8208 32.1204 36.6773 31.9768C36.5337 31.8329 36.4618 31.6548 36.4618 31.4423V25.8308L34.5003 26.8923V31.2308C34.5003 31.5773 34.4167 31.8898 34.2493 32.1685C34.082 32.4472 33.8509 32.6685 33.5561 32.8325L28.8638 35.3693C28.7267 35.4461 28.5863 35.5022 28.4426 35.5375C28.2989 35.5727 28.1515 35.5903 28.0003 35.5903C27.8492 35.5903 27.7018 35.5727 27.5581 35.5375C27.4144 35.5022 27.274 35.4461 27.1368 35.3693L22.4446 32.8325ZM27.8848 28.6423C27.9298 28.6679 27.9699 28.6808 28.0051 28.6808C28.0404 28.6808 28.0805 28.6679 28.1253 28.6423L34.8408 25L28.1253 21.3673C28.0805 21.3416 28.0404 21.3288 28.0051 21.3288C27.9699 21.3288 27.9298 21.3416 27.8848 21.3673L21.1598 25L27.8848 28.6423ZM27.8753 34.071C27.9202 34.0967 27.9618 34.1095 28.0003 34.1095C28.0388 34.1095 28.0805 34.0967 28.1253 34.071L32.8561 31.5153C32.9074 31.4833 32.9443 31.4464 32.9666 31.4048C32.9891 31.3631 33.0003 31.3102 33.0003 31.246V27.6923L28.8791 29.9558C28.7419 30.0326 28.5997 30.0887 28.4523 30.124C28.3048 30.1593 28.1542 30.177 28.0003 30.177C27.8465 30.177 27.6958 30.1593 27.5483 30.124C27.401 30.0887 27.2588 30.0326 27.1216 29.9558L23.0003 27.6923V31.246C23.0003 31.2973 23.0116 31.3471 23.0341 31.3953C23.0564 31.4433 23.0933 31.4833 23.1446 31.5153L27.8753 34.071Z" fill="#0064FF"/>
</svg>
