<svg width="56" height="56" viewBox="0 0 56 56" fill="none" xmlns="http://www.w3.org/2000/svg">
<rect width="56" height="56" rx="28" fill="#E1E9FE"/>
<path d="M19.9909 35.3078C19.5691 35.3078 19.2104 35.16 18.9149 34.8645C18.6194 34.5688 18.4717 34.2102 18.4717 33.7885V33.0845C18.4717 32.5538 18.6053 32.0901 18.8727 31.6933C19.1398 31.2964 19.4946 30.9858 19.9369 30.7615C20.7869 30.3282 21.6843 29.9776 22.6292 29.7098C23.5742 29.4418 24.6883 29.3078 25.9717 29.3078C26.1242 29.3078 26.2886 29.3103 26.4649 29.3155C26.6411 29.3205 26.8055 29.3346 26.9582 29.3578C27.1543 29.3846 27.3191 29.4808 27.4524 29.6463C27.5858 29.8116 27.6389 29.9934 27.6119 30.1918C27.5851 30.3653 27.5075 30.5161 27.3792 30.6443C27.251 30.7724 27.0773 30.8333 26.8582 30.827C26.7453 30.8205 26.6072 30.8157 26.4437 30.8125C26.2802 30.8093 26.1228 30.8078 25.9717 30.8078C24.7883 30.8078 23.7514 30.9398 22.8609 31.2038C21.9706 31.4679 21.2254 31.7667 20.6254 32.1C20.3984 32.2218 20.2328 32.3642 20.1284 32.527C20.0239 32.6898 19.9717 32.8757 19.9717 33.0845V33.8078H26.8562C27.0687 33.8078 27.2468 33.8797 27.3907 34.0235C27.5343 34.1672 27.6062 34.3453 27.6062 34.558C27.6062 34.7707 27.5343 34.9488 27.3907 35.0923C27.2468 35.2359 27.0687 35.3078 26.8562 35.3078H19.9909ZM31.4254 33.9463L35.9484 29.423C36.0869 29.2847 36.261 29.2138 36.4707 29.2105C36.6802 29.2073 36.8574 29.2782 37.0024 29.423C37.1473 29.568 37.2197 29.7437 37.2197 29.95C37.2197 30.1563 37.1473 30.332 37.0024 30.477L32.0582 35.4213C31.8773 35.6019 31.6664 35.6923 31.4254 35.6923C31.1844 35.6923 30.9735 35.6019 30.7927 35.4213L28.8484 33.477C28.7101 33.3385 28.6393 33.1644 28.6359 32.9548C28.6328 32.7453 28.7036 32.568 28.8484 32.423C28.9934 32.2782 29.1691 32.2058 29.3754 32.2058C29.5818 32.2058 29.7574 32.2782 29.9024 32.423L31.4254 33.9463ZM25.9717 27.6923C25.0092 27.6923 24.1852 27.3496 23.4997 26.6643C22.8143 25.9788 22.4717 25.1548 22.4717 24.1923C22.4717 23.2298 22.8143 22.4058 23.4997 21.7205C24.1852 21.035 25.0092 20.6923 25.9717 20.6923C26.9342 20.6923 27.7581 21.035 28.4434 21.7205C29.1288 22.4058 29.4714 23.2298 29.4714 24.1923C29.4714 25.1548 29.1288 25.9788 28.4434 26.6643C27.7581 27.3496 26.9342 27.6923 25.9717 27.6923ZM25.9717 26.1923C26.5217 26.1923 26.9925 25.9964 27.3842 25.6048C27.7758 25.2131 27.9717 24.7423 27.9717 24.1923C27.9717 23.6423 27.7758 23.1714 27.3842 22.7798C26.9925 22.3881 26.5217 22.1923 25.9717 22.1923C25.4217 22.1923 24.9508 22.3881 24.5592 22.7798C24.1675 23.1714 23.9717 23.6423 23.9717 24.1923C23.9717 24.7423 24.1675 25.2131 24.5592 25.6048C24.9508 25.9964 25.4217 26.1923 25.9717 26.1923Z" fill="#0064FF"/>
</svg>
