<svg width="56" height="56" viewBox="0 0 56 56" fill="none" xmlns="http://www.w3.org/2000/svg">
<rect width="56" height="56" rx="28" fill="#E1E9FE"/>
<path d="M29.827 36.596V35.2345C29.827 35.114 29.8488 34.9993 29.8923 34.8905C29.9359 34.7815 30.0045 34.6802 30.098 34.5865L35.2557 29.4537C35.3801 29.3359 35.5147 29.2501 35.6595 29.1962C35.8045 29.1424 35.9494 29.1155 36.0943 29.1155C36.2494 29.1155 36.401 29.1449 36.549 29.2037C36.697 29.2627 36.83 29.3512 36.948 29.4692L37.873 30.4038C37.9807 30.5282 38.064 30.6629 38.123 30.8077C38.182 30.9526 38.2115 31.0974 38.2115 31.2423C38.2115 31.3871 38.1846 31.5345 38.1308 31.6845C38.0769 31.8345 37.991 31.9717 37.873 32.096L32.7402 37.2288C32.6467 37.3224 32.5455 37.391 32.4365 37.4345C32.3275 37.4782 32.2128 37.5 32.0922 37.5H30.7308C30.4731 37.5 30.258 37.4138 30.0855 37.2413C29.9132 37.0689 29.827 36.8538 29.827 36.596ZM31.0193 36.3078H31.9693L35.2153 33.046L34.2902 32.102L31.0193 35.3577V36.3078ZM22.3077 37.5C21.8026 37.5 21.375 37.325 21.025 36.975C20.675 36.625 20.5 36.1974 20.5 35.6923V20.3077C20.5 19.8026 20.675 19.375 21.025 19.025C21.375 18.675 21.8026 18.5 22.3077 18.5H29.502C29.743 18.5 29.9748 18.5468 30.1973 18.6405C30.4196 18.734 30.6128 18.8628 30.777 19.027L34.973 23.223C35.1372 23.3872 35.266 23.5804 35.3595 23.8027C35.4532 24.0252 35.5 24.257 35.5 24.498V26.048C35.5 26.2608 35.4282 26.4391 35.2845 26.5828C35.141 26.7262 34.9628 26.798 34.75 26.798C34.5372 26.798 34.359 26.7262 34.2155 26.5828C34.0718 26.4391 34 26.2608 34 26.048V24.5H30.404C30.1462 24.5 29.9311 24.4138 29.7587 24.2413C29.5862 24.0689 29.5 23.8538 29.5 23.596V20H22.3077C22.2307 20 22.1603 20.0321 22.0963 20.0962C22.0321 20.1602 22 20.2307 22 20.3077V35.6923C22 35.7693 22.0321 35.8398 22.0963 35.9038C22.1603 35.9679 22.2307 36 22.3077 36H26.8845C27.0973 36 27.2756 36.0718 27.4193 36.2155C27.5627 36.359 27.6345 36.5372 27.6345 36.75C27.6345 36.9628 27.5627 37.141 27.4193 37.2845C27.2756 37.4282 27.0973 37.5 26.8845 37.5H22.3077ZM34.7653 32.5615L34.2902 32.102L35.2153 33.046L34.7653 32.5615Z" fill="#0064FF"/>
</svg>
