<svg width="366" height="228" viewBox="0 0 366 228" fill="none" xmlns="http://www.w3.org/2000/svg">
<g clip-path="url(#clip0_5674_822)">
<path style="mix-blend-mode:multiply" opacity="0.5" d="M360.176 147.482C360.176 147.482 360.176 147.466 360.176 147.449C360.176 147.4 360.127 147.318 360.094 147.22C359.963 146.958 359.783 146.664 359.669 146.549C359.636 146.533 359.619 146.517 359.603 146.517C357.853 146.697 356.102 146.86 354.351 147.04C350.883 147.4 347.415 147.744 343.946 148.104C343.946 148.104 343.93 148.104 343.913 148.12H343.881L336.273 152.455C333.835 153.846 331.365 155.253 328.845 156.693L314.972 164.595C312.207 166.166 309.442 167.752 306.628 169.339L304.468 170.566C301.556 172.219 298.628 173.888 295.699 175.556L278.717 185.225C277.964 185.651 277.212 186.076 276.476 186.502L268.23 191.197C263.485 193.897 258.839 196.547 254.307 199.132L246.912 203.337C244.311 204.809 241.759 206.265 239.288 207.672C238.814 207.95 238.241 208.261 237.685 208.588L236.082 209.504C235.165 210.028 234.151 210.601 233.104 211.206L230.355 212.776C229.93 213.022 229.505 213.267 229.079 213.496L226.102 215.198C225.922 215.296 225.676 215.525 225.496 215.918C225.464 215.967 225.447 216.032 225.431 216.098C225.398 216.179 225.382 216.261 225.365 216.359C225.349 216.474 225.333 216.589 225.316 216.703C225.316 216.768 225.316 216.834 225.316 216.916C225.316 217.063 225.316 217.21 225.333 217.374C225.333 217.456 225.349 217.537 225.365 217.636C225.382 217.799 225.415 217.963 225.464 218.143C225.496 218.257 225.513 218.388 225.562 218.519C225.611 218.699 225.676 218.895 225.742 219.075C225.774 219.173 225.791 219.255 225.84 219.37C225.856 219.419 225.889 219.484 225.905 219.533C225.938 219.632 225.987 219.746 226.036 219.861C226.102 220.024 226.167 220.188 226.249 220.351C226.298 220.45 226.331 220.548 226.38 220.646C226.445 220.777 226.658 221.251 227.002 221.857C227.034 221.922 227.083 222.004 227.116 222.069C227.247 222.298 227.394 222.56 227.541 222.822C227.574 222.887 227.607 222.953 227.656 223.018C227.836 223.329 228.049 223.656 228.261 224C228.261 224 228.261 224 228.261 224.016C228.458 224.327 228.687 224.638 228.899 224.932C228.932 224.981 228.981 225.03 229.014 225.08C229.194 225.325 229.39 225.554 229.57 225.783C229.799 226.061 230.045 226.307 230.29 226.519C230.814 226.977 231.304 227.272 231.746 227.403C232.204 227.55 232.613 227.517 232.973 227.321C233.448 227.043 233.955 226.765 234.478 226.47L242.969 221.644L244.573 220.728L246.176 219.812L253.784 215.476C256.205 214.102 258.675 212.695 261.195 211.255L275.101 203.337C277.833 201.782 280.598 200.212 283.38 198.625L285.605 197.349C291.233 194.142 296.926 190.903 302.603 187.663L311.34 182.69C312.092 182.264 312.829 181.839 313.565 181.413L321.843 176.702C326.571 174.002 331.218 171.352 335.75 168.783L343.161 164.562C345.746 163.09 348.298 161.634 350.768 160.227C350.768 160.227 350.768 160.194 350.801 160.194C350.801 160.194 350.834 160.194 350.834 160.178C352.912 157.38 354.989 154.566 357.067 151.768C358.114 150.345 359.161 148.938 360.208 147.515C360.208 147.515 360.208 147.482 360.208 147.449L360.176 147.482Z" fill="url(#paint0_linear_5674_822)"/>
<path d="M362.892 144.504C362.892 144.39 362.843 144.226 362.777 144.03C362.777 143.981 362.744 143.932 362.728 143.882C362.646 143.67 362.564 143.441 362.434 143.163C361.861 141.936 360.977 140.545 360.454 140.087C360.323 139.972 360.241 139.923 360.176 139.94C361.926 139.76 363.677 139.596 365.428 139.416C365.428 139.416 365.46 139.416 365.493 139.449C365.607 139.547 365.804 139.841 365.918 140.103C365.967 140.201 365.984 140.267 366 140.332C366 140.349 366 140.349 366 140.365C366 140.398 366 140.414 366 140.43C364.953 141.854 363.906 143.261 362.859 144.684C362.859 144.684 362.892 144.586 362.892 144.504Z" fill="url(#paint1_linear_5674_822)"/>
<path d="M356.675 153.011C356.707 152.93 356.707 152.815 356.707 152.668C356.707 152.635 356.707 152.586 356.707 152.553C356.707 152.439 356.675 152.292 356.642 152.144C356.642 152.095 356.642 152.063 356.609 152.013C356.56 151.817 356.495 151.588 356.413 151.326C356.397 151.261 356.364 151.212 356.347 151.146C356.282 150.934 356.184 150.721 356.102 150.476C356.069 150.394 356.037 150.312 356.004 150.214C355.873 149.903 355.742 149.576 355.578 149.232C354.122 146.091 351.848 142.573 350.523 141.379C350.343 141.216 350.196 141.117 350.065 141.052C350.016 141.036 350 141.052 349.967 141.019C349.918 141.019 349.852 140.97 349.803 140.987C353.272 140.627 356.74 140.283 360.208 139.923C360.208 139.923 360.356 139.972 360.487 140.07C361.01 140.545 361.894 141.919 362.466 143.146C362.597 143.424 362.679 143.653 362.761 143.866C362.777 143.915 362.793 143.964 362.81 144.013C362.875 144.21 362.908 144.373 362.924 144.488C362.924 144.569 362.924 144.635 362.892 144.668C360.814 147.465 358.736 150.279 356.658 153.077C356.658 153.077 356.626 153.077 356.626 153.093C356.658 153.061 356.691 153.044 356.707 152.995L356.675 153.011Z" fill="url(#paint2_linear_5674_822)"/>
<path d="M349.721 141.019C349.721 141.019 349.738 141.003 349.754 141.003C349.803 141.003 349.852 141.019 349.918 141.036C349.836 141.019 349.771 141.003 349.721 141.019Z" fill="url(#paint3_linear_5674_822)"/>
<path d="M356.331 151.146C356.331 151.146 356.38 151.277 356.396 151.326C356.38 151.261 356.347 151.212 356.331 151.146Z" fill="url(#paint4_linear_5674_822)"/>
<path d="M355.987 150.23C356.02 150.312 356.053 150.394 356.085 150.492C356.053 150.41 356.02 150.328 355.987 150.23Z" fill="url(#paint5_linear_5674_822)"/>
<path d="M356.593 152.014C356.593 152.014 356.609 152.095 356.625 152.145C356.625 152.095 356.625 152.063 356.593 152.014Z" fill="url(#paint6_linear_5674_822)"/>
<path d="M252.082 212.564C252.082 212.564 252.115 212.367 252.115 212.22C252.115 212.188 252.115 212.138 252.115 212.089C252.115 211.975 252.082 211.828 252.049 211.68C252.049 211.631 252.049 211.599 252.017 211.549C251.968 211.353 251.902 211.124 251.82 210.862C251.804 210.813 251.771 210.748 251.755 210.682C251.673 210.47 251.591 210.241 251.493 210.012C251.46 209.93 251.428 209.848 251.395 209.75C251.264 209.439 251.133 209.112 250.97 208.768C249.513 205.627 247.239 202.109 245.914 200.915C245.734 200.752 245.587 200.653 245.456 200.588C245.456 200.588 245.44 200.572 245.423 200.572C245.391 200.572 245.374 200.572 245.342 200.572C245.26 200.555 245.194 200.539 245.145 200.572H245.113C247.583 199.165 250.152 197.708 252.737 196.236L260.131 192.031C264.663 189.446 269.31 186.796 274.054 184.097L282.3 179.401C283.052 178.976 283.789 178.55 284.541 178.125L301.523 168.456C304.452 166.787 307.38 165.118 310.293 163.466L312.452 162.239C315.25 160.636 318.031 159.065 320.796 157.494L334.67 149.592C337.189 148.153 339.676 146.746 342.097 145.355L349.705 141.019H349.738C349.787 141.003 349.852 141.019 349.934 141.036C349.967 141.036 349.999 141.036 350.032 141.069C350.163 141.134 350.31 141.232 350.49 141.396C351.832 142.59 354.09 146.108 355.546 149.249C355.709 149.592 355.857 149.92 355.971 150.23C356.004 150.312 356.037 150.41 356.069 150.492C356.167 150.738 356.249 150.95 356.315 151.163C356.331 151.228 356.364 151.294 356.38 151.343C356.462 151.588 356.527 151.817 356.576 152.03C356.576 152.079 356.593 152.112 356.609 152.161C356.642 152.308 356.658 152.455 356.675 152.57C356.675 152.619 356.675 152.652 356.675 152.684C356.675 152.815 356.675 152.946 356.642 153.028C356.626 153.077 356.593 153.11 356.56 153.126C356.56 153.126 356.56 153.159 356.527 153.159C354.057 154.566 351.505 156.022 348.92 157.494L341.508 161.715C336.977 164.3 332.33 166.934 327.602 169.634L319.324 174.346C318.587 174.771 317.835 175.196 317.099 175.622L308.362 180.595C302.685 183.818 297.008 187.058 291.364 190.281L289.139 191.557C286.357 193.144 283.592 194.715 280.86 196.269L266.954 204.187C264.451 205.611 261.964 207.018 259.542 208.408L251.935 212.744C251.935 212.744 252.017 212.678 252.033 212.613L252.082 212.564Z" fill="url(#paint7_linear_5674_822)"/>
<path d="M251.739 210.715C251.739 210.715 251.788 210.829 251.804 210.895C251.788 210.846 251.755 210.78 251.739 210.715Z" fill="#E4EEED"/>
<path d="M245.325 200.588C245.325 200.588 245.178 200.555 245.129 200.588C245.178 200.571 245.243 200.588 245.325 200.588Z" fill="#E4EEED"/>
<path d="M252 211.566C252 211.566 252.017 211.647 252.033 211.697C252.033 211.647 252.033 211.615 252 211.566Z" fill="#E4EEED"/>
<path d="M251.379 209.782C251.411 209.864 251.444 209.946 251.477 210.044C251.444 209.962 251.411 209.881 251.379 209.782Z" fill="#E4EEED"/>
<path d="M248.761 214.527C248.761 214.527 248.843 214.462 248.859 214.396C248.876 214.331 248.892 214.249 248.892 214.151C248.892 214.118 248.892 214.085 248.892 214.069C248.892 214.036 248.892 213.987 248.892 213.954C248.892 213.84 248.859 213.693 248.826 213.545C248.826 213.496 248.826 213.464 248.794 213.414C248.745 213.218 248.679 212.989 248.597 212.727C248.581 212.678 248.548 212.613 248.532 212.547C248.45 212.335 248.368 212.106 248.27 211.877C248.238 211.795 248.205 211.713 248.172 211.631C248.041 211.32 247.91 210.993 247.747 210.65C246.291 207.508 244.016 203.991 242.691 202.797C242.511 202.633 242.364 202.535 242.233 202.469C242.184 202.453 242.168 202.469 242.135 202.437C242.053 202.42 241.988 202.404 241.939 202.437H241.906L243.509 201.52C244.066 201.193 244.638 200.882 245.113 200.604H245.145C245.194 200.588 245.26 200.604 245.342 200.604C245.374 200.604 245.391 200.604 245.423 200.604C245.423 200.604 245.44 200.604 245.456 200.621C245.587 200.686 245.734 200.784 245.914 200.948C247.256 202.142 249.514 205.66 250.97 208.801C251.133 209.161 251.281 209.472 251.395 209.782C251.428 209.864 251.461 209.946 251.493 210.044C251.591 210.29 251.673 210.502 251.755 210.715C251.771 210.78 251.804 210.829 251.82 210.895C251.902 211.14 251.968 211.369 252.017 211.582C252.017 211.631 252.033 211.664 252.049 211.713C252.082 211.86 252.099 212.007 252.115 212.122C252.115 212.171 252.115 212.204 252.115 212.253C252.115 212.384 252.115 212.515 252.082 212.596C252.066 212.662 252.017 212.711 251.984 212.727L250.381 213.643L248.777 214.56L248.761 214.527Z" fill="#E4EEED"/>
<path d="M248.597 212.711C248.597 212.711 248.548 212.596 248.532 212.531C248.548 212.596 248.581 212.646 248.597 212.711Z" fill="url(#paint8_linear_5674_822)"/>
<path d="M248.826 213.529C248.826 213.529 248.826 213.447 248.794 213.398C248.794 213.447 248.81 213.48 248.826 213.529Z" fill="url(#paint9_linear_5674_822)"/>
<path d="M242.119 202.42C242.119 202.42 241.971 202.388 241.922 202.42C241.971 202.404 242.037 202.42 242.119 202.42Z" fill="url(#paint10_linear_5674_822)"/>
<path d="M242.119 202.42C242.119 202.42 242.184 202.42 242.217 202.453C242.348 202.518 242.495 202.616 242.675 202.78C244.016 203.974 246.274 207.492 247.73 210.633C247.894 210.993 248.041 211.304 248.156 211.615C248.188 211.697 248.221 211.778 248.254 211.86C248.352 212.106 248.434 212.318 248.515 212.531C248.532 212.596 248.565 212.645 248.581 212.711C248.663 212.956 248.728 213.185 248.777 213.398C248.777 213.447 248.794 213.48 248.81 213.529C248.843 213.676 248.859 213.823 248.875 213.938C248.875 213.987 248.875 214.02 248.875 214.052C248.875 214.085 248.875 214.118 248.875 214.134C248.875 214.232 248.875 214.314 248.843 214.38C248.826 214.445 248.777 214.494 248.744 214.511L240.253 219.337C239.73 219.631 239.223 219.926 238.748 220.188C238.388 220.384 237.979 220.417 237.521 220.269C237.063 220.139 236.589 219.86 236.065 219.386C235.82 219.173 235.591 218.911 235.345 218.65C235.149 218.421 234.969 218.192 234.789 217.946C234.756 217.897 234.707 217.848 234.674 217.799C234.445 217.504 234.233 217.194 234.036 216.883C234.036 216.883 234.036 216.883 234.036 216.866C233.824 216.539 233.611 216.212 233.431 215.885C233.398 215.819 233.366 215.754 233.317 215.688C233.169 215.427 233.022 215.165 232.891 214.936C232.858 214.854 232.809 214.789 232.777 214.723C232.449 214.101 232.22 213.627 232.155 213.513C232.106 213.414 232.073 213.316 232.024 213.218C231.942 213.038 231.877 212.874 231.811 212.727C231.762 212.613 231.713 212.515 231.681 212.4C231.664 212.351 231.631 212.285 231.615 212.236C231.582 212.138 231.566 212.04 231.517 211.942C231.451 211.746 231.386 211.566 231.337 211.386C231.304 211.255 231.272 211.14 231.239 211.009C231.206 210.829 231.173 210.666 231.141 210.502C231.141 210.42 231.124 210.322 231.108 210.24C231.108 210.077 231.092 209.93 231.092 209.782C231.092 209.717 231.092 209.635 231.092 209.57C231.092 209.455 231.108 209.341 231.141 209.226C231.157 209.128 231.19 209.046 231.206 208.964C231.222 208.899 231.239 208.85 231.272 208.784C231.451 208.375 231.697 208.163 231.877 208.064L234.854 206.363C235.28 206.118 235.705 205.889 236.131 205.643L238.879 204.073C239.926 203.484 240.941 202.895 241.857 202.371H241.889C241.939 202.355 242.004 202.371 242.086 202.371L242.119 202.42Z" fill="url(#paint11_linear_5674_822)"/>
<path style="mix-blend-mode:multiply" opacity="0.2" d="M277.621 158.918L319.994 143.343L265.874 94.0976L267.412 93.1977V91.7417L256.123 85.2138L250.953 80.5184L249.121 81.1892L176.333 39.1591L164.177 46.2105L88.5101 22.5205L0 117.771V119.227L104.952 152.095L109.632 154.795L162.345 202.764L319.994 144.799V143.343L277.621 158.918Z" fill="url(#paint12_linear_5674_822)"/>
<path d="M269.866 80.0603L266.708 81.2219L265.563 81.6473L269.866 80.0603Z" fill="url(#paint13_linear_5674_822)"/>
<path d="M258.544 84.2158L254.258 85.8028L258.544 84.2158Z" fill="url(#paint14_linear_5674_822)"/>
<path d="M254.258 85.8027L255.518 86.948L254.258 85.8027Z" fill="url(#paint15_linear_5674_822)"/>
<path d="M244.213 91.1035L242.953 89.9583L247.239 88.3713L242.953 89.9583L244.213 91.1035Z" fill="url(#paint16_linear_5674_822)"/>
<path d="M262.946 118.115L264.222 117.656L262.946 118.115Z" fill="url(#paint17_linear_5674_822)"/>
<path d="M264.221 117.657L236.409 92.3633L264.221 117.657Z" fill="url(#paint18_linear_5674_822)"/>
<path d="M161.985 121.338L222.568 176.456L226.854 174.869L165.028 118.605L160.725 120.192L161.985 121.338Z" fill="url(#paint19_linear_5674_822)"/>
<path d="M161.985 121.338L160.725 120.192L161.985 121.338Z" fill="url(#paint20_linear_5674_822)"/>
<path d="M244.213 91.1035L304.795 146.206L309.098 144.635L247.239 88.3713L242.953 89.9583L244.213 91.1035Z" fill="url(#paint21_linear_5674_822)"/>
<path d="M298.268 148.627L270.439 123.317L203.852 147.809L231.648 173.102L249.546 166.525L296.992 149.085L298.268 148.627Z" fill="url(#paint22_linear_5674_822)"/>
<path d="M165.028 118.605L160.725 120.192L165.028 118.605Z" fill="url(#paint23_linear_5674_822)"/>
<path d="M315.593 150.279L362.139 133.166L286.308 64.1743L113.182 127.817L188.996 196.809L315.577 150.263L315.593 150.279ZM298.268 148.627L297.008 149.085L249.562 166.525L231.664 173.102L203.851 147.809L270.455 123.317L298.268 148.627ZM316.084 142.067L255.518 86.9481L254.258 85.8029L258.544 84.2159L320.387 140.48L316.084 142.067ZM281.155 75.9048L342.997 132.168L338.694 133.755L278.112 78.637L276.852 77.4917L278.439 76.9191L281.155 75.9211V75.9048ZM266.708 81.2219L269.849 80.0603L331.676 136.324L327.389 137.911L266.806 82.7925L265.547 81.6473L266.708 81.2219ZM242.953 89.9584L247.256 88.3715L309.098 144.635L304.795 146.222L244.213 91.1037L242.953 89.9584ZM236.409 92.3634L264.221 117.657L262.962 118.115L197.634 142.132L169.822 116.822L236.425 92.347L236.409 92.3634ZM165.028 118.606L226.854 174.869L222.568 176.456L161.985 121.338L160.725 120.193L165.028 118.606ZM153.723 122.761L215.565 179.025L211.263 180.612L149.436 124.348L153.723 122.761ZM142.418 126.917L204.26 183.18L199.958 184.767L138.115 128.504L142.418 126.917Z" fill="url(#paint24_linear_5674_822)"/>
<path d="M236.409 92.3633L169.805 116.839L197.635 142.148L262.946 118.115L264.222 117.657L236.409 92.3633Z" fill="url(#paint25_linear_5674_822)"/>
<path d="M278.112 78.637L338.694 133.755L342.997 132.168L281.155 75.9048L278.439 76.9028L276.852 77.4918L278.112 78.637Z" fill="url(#paint26_linear_5674_822)"/>
<path d="M265.563 81.6473L266.823 82.7925L327.389 137.911L331.692 136.324L269.866 80.0603L265.563 81.6473Z" fill="url(#paint27_linear_5674_822)"/>
<path d="M258.544 84.2158L254.258 85.8028L255.518 86.948L316.084 142.066L320.387 140.479L258.544 84.2158Z" fill="url(#paint28_linear_5674_822)"/>
<path d="M211.263 180.595L215.566 179.025L153.723 122.761L149.437 124.348L211.263 180.595Z" fill="url(#paint29_linear_5674_822)"/>
<path d="M199.974 184.751L204.277 183.164L142.418 126.917L138.115 128.487L199.974 184.751Z" fill="url(#paint30_linear_5674_822)"/>
<path d="M315.593 150.279L188.996 196.825L113.182 127.816V129.436L188.996 198.428L362.123 134.77L362.139 133.166L315.593 150.279Z" fill="url(#paint31_linear_5674_822)"/>
<path d="M188.898 39.5027L185.887 41.2533L188.898 39.5027Z" fill="url(#paint32_linear_5674_822)"/>
<path d="M170.967 49.9243L221.292 78.9805L170.967 49.9243L167.384 52.0185L170.967 49.9243Z" fill="url(#paint33_linear_5674_822)"/>
<path d="M160.905 55.7812L157.911 57.5155L160.905 55.7812Z" fill="url(#paint34_linear_5674_822)"/>
<path d="M258.839 91.1853L179.147 45.1633L258.839 91.1853Z" fill="url(#paint35_linear_5674_822)"/>
<path d="M199.859 91.4308L203.459 89.3367L153.134 60.2969L149.535 62.3747L199.859 91.4308Z" fill="url(#paint36_linear_5674_822)"/>
<path d="M255.829 92.9195L258.839 91.1853L179.147 45.1633L176.153 46.9139L255.829 92.9195Z" fill="url(#paint37_linear_5674_822)"/>
<path d="M204.064 93.8686L207.663 91.7744L204.064 93.8686Z" fill="url(#paint38_linear_5674_822)"/>
<path d="M96.7883 94.6374L95.3977 93.8358L98.3917 92.1016L178.084 138.107L98.3917 92.1016L95.3977 93.8358L96.7883 94.6374Z" fill="url(#paint39_linear_5674_822)"/>
<path d="M143.907 65.6467L194.231 94.7029L143.907 65.6467L141.633 66.9719L143.907 65.6467Z" fill="url(#paint40_linear_5674_822)"/>
<path d="M198.452 97.1406L223.598 111.652L198.452 97.1406Z" fill="url(#paint41_linear_5674_822)"/>
<path d="M181.405 102.163L185.004 100.069L134.679 71.0129L131.08 73.1071L181.405 102.163Z" fill="url(#paint42_linear_5674_822)"/>
<path d="M185.626 104.585L189.209 102.49L214.371 117.019L189.209 102.49L185.626 104.585Z" fill="url(#paint43_linear_5674_822)"/>
<path d="M229.226 108.38L232.826 106.303L207.663 91.7744L204.064 93.8686L229.226 108.38Z" fill="url(#paint44_linear_5674_822)"/>
<path d="M189.209 102.49L185.626 104.585L210.772 119.113L214.371 117.019L189.209 102.49Z" fill="url(#paint45_linear_5674_822)"/>
<path d="M125.763 76.1992L205.455 122.205L125.763 76.1992L122.769 77.9334L125.763 76.1992Z" fill="url(#paint46_linear_5674_822)"/>
<path d="M193.331 129.256L196.325 127.506L116.634 81.5L113.64 83.2506L193.331 129.256Z" fill="url(#paint47_linear_5674_822)"/>
<path d="M95.3977 93.8358L96.7883 94.6374L175.09 139.858L178.084 138.107L98.3917 92.1016L95.3977 93.8358Z" fill="url(#paint48_linear_5674_822)"/>
<path d="M304.386 76.4937L204.359 18.7576L59.6174 102.867L159.645 160.619L304.386 76.51V76.4937ZM210.772 119.113L185.609 104.585L189.209 102.49L214.371 117.019L210.772 119.113ZM219.999 113.746L194.837 99.2184L198.452 97.1242L223.615 111.652L219.999 113.746ZM232.826 106.302L229.226 108.397L204.064 93.8685L207.663 91.7743L232.826 106.302ZM188.898 39.5026L268.59 85.5083L265.579 87.2589L185.888 41.2532L188.898 39.5026ZM179.147 45.1634L258.839 91.169L255.829 92.9196L176.137 46.9139L179.147 45.1634ZM170.967 49.9243L221.292 78.9805L217.692 81.0746L167.367 52.0184L170.967 49.9243ZM160.905 55.7813L240.597 101.787L237.603 103.521L157.911 57.5155L160.905 55.7813ZM153.134 60.2968L203.459 89.353L199.859 91.4471L149.535 62.3909L153.134 60.2968ZM143.907 65.6467L194.231 94.7029L190.616 96.797L140.291 67.7408L141.616 66.9719L143.89 65.6467H143.907ZM134.679 71.0129L185.004 100.069L181.405 102.163L131.08 73.1071L134.679 71.0129ZM122.769 77.9334L125.763 76.1992L205.455 122.205L202.461 123.939L122.769 77.9334ZM196.326 127.506L193.315 129.256L113.623 83.2505L116.634 81.5L196.326 127.506ZM107.505 86.8008L187.196 132.806L184.202 134.541L104.511 88.535L107.505 86.8008ZM98.3917 92.1016L178.084 138.107L175.09 139.841L96.7884 94.6374L95.3978 93.8358L98.3917 92.1016Z" fill="url(#paint49_linear_5674_822)"/>
<path d="M170.967 49.9243L167.384 52.0185L217.692 81.0583L221.292 78.9805L170.967 49.9243Z" fill="url(#paint50_linear_5674_822)"/>
<path d="M185.887 41.2533L265.579 87.2589L268.59 85.5083L188.898 39.5027L185.887 41.2533Z" fill="url(#paint51_linear_5674_822)"/>
<path d="M190.632 96.7971L194.231 94.7029L143.907 65.6467L141.633 66.9719L140.307 67.7409L190.632 96.7971Z" fill="url(#paint52_linear_5674_822)"/>
<path d="M157.911 57.5155L237.603 103.521L240.597 101.787L160.905 55.7812L157.911 57.5155Z" fill="url(#paint53_linear_5674_822)"/>
<path d="M198.452 97.1406L194.837 99.2348L219.999 113.747L223.598 111.652L198.452 97.1406Z" fill="url(#paint54_linear_5674_822)"/>
<path d="M122.769 77.9334L202.461 123.939L205.455 122.205L125.763 76.1992L122.769 77.9334Z" fill="url(#paint55_linear_5674_822)"/>
<path d="M104.51 88.535L184.202 134.557L187.196 132.806L107.504 86.8008L104.51 88.535Z" fill="url(#paint56_linear_5674_822)"/>
<path d="M159.645 160.619L59.6174 102.867V104.47L159.645 162.223L304.37 78.1133L304.386 76.4937L159.645 160.619Z" fill="url(#paint57_linear_5674_822)"/>
<path d="M112.118 12.5569L109.157 15.7635L112.118 12.5569Z" fill="url(#paint58_linear_5674_822)"/>
<path d="M101.418 25.6782L183.303 51.3314L184.742 49.7935L186.28 48.1411L103.218 22.1279L100.257 25.3182L101.418 25.6782Z" fill="url(#paint59_linear_5674_822)"/>
<path d="M103.218 22.1279L100.257 25.3182L103.218 22.1279Z" fill="url(#paint60_linear_5674_822)"/>
<path d="M101.418 25.678L100.257 25.3181L101.418 25.678Z" fill="url(#paint61_linear_5674_822)"/>
<path d="M195.164 38.5701L153.641 25.5635L195.164 38.5701Z" fill="url(#paint62_linear_5674_822)"/>
<path d="M109.157 15.7635L192.203 41.7603L195.164 38.57L153.641 25.5635L112.118 12.5569L109.157 15.7635Z" fill="url(#paint63_linear_5674_822)"/>
<path d="M215.582 45.8179L216.744 44.5745L215.582 45.8179Z" fill="url(#paint64_linear_5674_822)"/>
<path d="M82.4731 44.4762L83.6184 44.8361L82.4731 44.4762L85.4344 41.2695L168.496 67.2827L85.4344 41.2695L82.4731 44.4762Z" fill="url(#paint65_linear_5674_822)"/>
<path d="M195.148 48.3045L209.185 52.7055L215.582 45.8177L216.744 44.5743L202.69 40.1733L195.148 48.3045Z" fill="url(#paint66_linear_5674_822)"/>
<path d="M135.841 44.7053L94.3181 31.6987L135.841 44.7053Z" fill="url(#paint67_linear_5674_822)"/>
<path d="M192.023 51.6748L184.448 59.7896L198.502 64.1906L206.06 56.0758L192.023 51.6748Z" fill="url(#paint68_linear_5674_822)"/>
<path d="M172.472 72.6981L186.526 77.0827L194.084 68.9515L180.031 64.5669L172.472 72.6981Z" fill="url(#paint69_linear_5674_822)"/>
<path d="M72.4277 74.8086L73.5893 73.5652L72.4277 74.8086Z" fill="url(#paint70_linear_5674_822)"/>
<path d="M69.9411 77.4752L72.4279 74.8084L73.5895 73.565L59.5195 69.1477L51.9773 77.2789L66.0309 81.6798L69.9411 77.4752Z" fill="url(#paint71_linear_5674_822)"/>
<path d="M77.0742 79.504L80.0355 76.3137L78.4976 77.9661L77.0742 79.504L78.2195 79.8639L77.0742 79.504Z" fill="url(#paint72_linear_5674_822)"/>
<path d="M61.7444 86.2937L62.906 85.0339L61.7444 86.2937Z" fill="url(#paint73_linear_5674_822)"/>
<path d="M183.826 80.1257L155.13 71.1274L141.207 86.1136L140.798 86.5554L140.471 86.9153L139.702 87.7333L168.398 96.7316L169.495 95.5536L182.665 81.3855L183.826 80.1257Z" fill="url(#paint74_linear_5674_822)"/>
<path d="M41.2939 88.7803L55.3476 93.1649L61.7445 86.2935L62.9061 85.0338L48.8525 80.6492L41.2939 88.7803Z" fill="url(#paint75_linear_5674_822)"/>
<path d="M50.93 97.9259L36.8764 93.5413L29.3179 101.672L43.3715 106.057L50.93 97.9259Z" fill="url(#paint76_linear_5674_822)"/>
<path d="M163.081 102.31L106.032 84.4448L163.081 102.31Z" fill="url(#paint77_linear_5674_822)"/>
<path d="M50.3738 108.233L51.5354 108.593L50.3738 108.233L53.3514 105.043L136.397 131.04L53.3514 105.043L50.3738 108.233Z" fill="url(#paint78_linear_5674_822)"/>
<path d="M71.1353 85.8845L68.1741 89.0748L69.3193 89.4347L151.22 115.088L154.181 111.898L71.1353 85.8845Z" fill="url(#paint79_linear_5674_822)"/>
<path d="M134.925 143.981L232.122 39.3717L107.914 0.48291L10.7161 105.075L134.925 143.964V143.981ZM133.42 134.23L51.5354 108.593L50.3738 108.233L53.3514 105.043L136.397 131.039L133.42 134.23ZM145.297 121.469L142.336 124.659L59.2903 98.6621L62.2515 95.4718L145.297 121.469ZM151.22 115.088L69.3356 89.4511L68.174 89.0912L71.1516 85.9009L154.197 111.898L151.22 115.088ZM161.085 104.47L160.12 105.501L78.2194 79.8639L77.0741 79.504L78.4975 77.9661L80.0354 76.3137L106.032 84.4612L163.081 102.327L161.085 104.486V104.47ZM180.031 64.5669L194.084 68.9678L186.526 77.099L172.472 72.698L180.031 64.5669ZM143.269 68.1171L127.841 84.723L99.128 75.7247L114.556 59.1188L143.269 68.1171ZM183.826 80.1257L182.665 81.3691L169.494 95.5536L168.398 96.7316L139.686 87.7333L140.455 86.9153L140.782 86.5553L141.207 86.0973L155.114 71.1274L183.826 80.1257ZM206.06 56.0758L198.518 64.2069L184.448 59.806L192.023 51.6748L206.06 56.0758ZM216.743 44.5744L215.582 45.8178L209.185 52.7055L195.148 48.3046L202.69 40.1734L216.743 44.5744ZM112.118 12.5569L153.641 25.5635L195.164 38.5701L192.203 41.7604L109.157 15.7636L112.118 12.5733V12.5569ZM103.218 22.1278L186.28 48.141L184.742 49.7934L183.303 51.3312L101.402 25.6944L100.257 25.3345L103.218 22.1442V22.1278ZM94.3181 31.6987L135.841 44.7053L177.364 57.7118L174.403 60.9021L92.502 35.2489L91.3405 34.889L94.3181 31.6987ZM85.4343 41.2696L168.496 67.2827L165.519 70.473L108.47 52.6074L83.6183 44.8198L82.4731 44.4599L85.4343 41.2696ZM77.1232 47.4211L105.836 56.4194L90.4079 73.0252L61.6953 64.027L77.1232 47.4211ZM59.5193 69.1478L73.5893 73.5488L72.4277 74.7922L69.941 77.4589L66.0308 81.6636L51.9772 77.2626L59.5193 69.1314V69.1478ZM48.8523 80.6492L62.906 85.0502L61.7444 86.2936L58.9794 89.2548L55.3311 93.165L41.2774 88.764L48.836 80.6329L48.8523 80.6492ZM36.8765 93.5413L50.9301 97.9422L43.3716 106.073L29.3179 101.672L36.8765 93.5413Z" fill="url(#paint80_linear_5674_822)"/>
<path d="M92.5185 35.2653L174.403 60.9022L177.364 57.7119L135.841 44.7053L94.3182 31.6987L91.3569 34.889L92.5185 35.2653Z" fill="url(#paint81_linear_5674_822)"/>
<path d="M82.4731 44.4762L83.6184 44.8361L108.47 52.6073L165.519 70.473L168.496 67.2827L85.4344 41.2695L82.4731 44.4762Z" fill="url(#paint82_linear_5674_822)"/>
<path d="M163.081 102.311L106.032 84.4449L80.0355 76.3137L77.0742 79.504L78.2195 79.8639L160.12 105.517L161.085 104.47L163.081 102.311Z" fill="url(#paint83_linear_5674_822)"/>
<path d="M142.336 124.659L145.297 121.468L62.2515 95.4553L59.2903 98.6456L142.336 124.659Z" fill="url(#paint84_linear_5674_822)"/>
<path d="M50.3738 108.233L51.5354 108.593L133.42 134.23L136.397 131.04L53.3514 105.043L50.3738 108.233Z" fill="url(#paint85_linear_5674_822)"/>
<path d="M232.122 39.3718L134.925 143.981L10.7161 105.075V106.695L134.925 145.584L232.122 40.9752V39.3718Z" fill="url(#paint86_linear_5674_822)"/>
<path d="M105.819 56.4194L77.1232 47.4211L61.6953 64.027L90.3916 73.0253L105.819 56.4194Z" fill="url(#paint87_linear_5674_822)"/>
<path d="M127.841 84.723L143.269 68.1172L114.556 59.1189L99.1282 75.7248L127.841 84.723Z" fill="url(#paint88_linear_5674_822)"/>
<path style="mix-blend-mode:multiply" d="M240.188 91.8234C240.515 83.905 235.443 75.9047 224.956 69.8513C204.735 58.17 172.03 58.1863 151.94 69.8513C141.927 75.6757 136.921 83.2996 136.937 90.9236C136.937 90.9073 136.937 90.8745 136.937 90.8582L136.904 100.2C136.904 105.206 139.048 110.213 143.334 114.712L135.563 119.227C135.039 118.802 134.483 118.409 133.927 118.082C131.669 116.773 129.624 116.659 128.152 117.509L79.9372 146.075C78.4648 146.925 77.5649 148.725 77.5486 151.294C77.5486 156.447 81.1642 162.73 85.647 165.315C87.9211 166.624 89.9825 166.738 91.455 165.855C91.455 165.855 91.455 165.855 91.4386 165.871L139.653 137.306C141.109 136.455 142.009 134.655 142.025 132.103C142.025 131.039 141.845 129.927 141.567 128.798L153.216 122.025C173.519 133.117 205.438 132.954 225.202 121.485C235.182 115.693 240.172 108.086 240.204 100.494L240.237 91.1527C240.237 91.3653 240.221 91.5944 240.204 91.8071L240.188 91.8234Z" fill="url(#paint89_linear_5674_822)"/>
<path d="M161.478 78.4569C161.265 78.7514 161.118 79.0623 160.921 79.3731C160.692 79.7494 160.447 80.1093 160.251 80.4856C160.087 80.7965 159.989 81.1237 159.858 81.4345C159.694 81.8108 159.514 82.1708 159.384 82.5634C159.269 82.8906 159.22 83.2178 159.138 83.5287C159.04 83.905 158.925 84.2813 158.86 84.6576C158.811 84.9848 158.811 85.312 158.778 85.6392C158.615 87.5697 158.86 89.5003 159.563 91.3981C161.052 87.4061 164.439 83.5941 169.789 80.4856C184.677 71.8309 208.874 71.8309 223.86 80.4856C229.325 83.6432 232.793 87.5206 234.282 91.5944C234.854 90.0401 235.182 88.4695 235.182 86.8826C235.182 86.5063 235.132 86.13 235.083 85.7537C235.051 85.4265 235.051 85.0829 235.002 84.7557C234.936 84.3794 234.822 84.0031 234.723 83.6268C234.642 83.2996 234.576 82.9724 234.478 82.6452C234.347 82.2689 234.167 81.8926 234.004 81.5163C233.873 81.2055 233.758 80.8783 233.595 80.5674C233.398 80.1911 233.137 79.8149 232.907 79.4386C232.728 79.1441 232.564 78.8332 232.351 78.5387C232.073 78.1624 231.746 77.7862 231.435 77.4099C231.206 77.1317 231.01 76.8372 230.764 76.5755C230.404 76.1828 229.995 75.8065 229.603 75.4303C229.341 75.1848 229.112 74.9231 228.834 74.6777C228.359 74.2687 227.819 73.8596 227.296 73.467C227.034 73.2707 226.805 73.0743 226.543 72.878C225.725 72.289 224.842 71.7328 223.893 71.1929C208.907 62.5382 184.71 62.5546 169.822 71.1929C168.889 71.7328 168.022 72.289 167.22 72.878C166.958 73.058 166.746 73.2707 166.484 73.4506C165.96 73.8433 165.421 74.2523 164.946 74.6613C164.668 74.9067 164.455 75.1521 164.193 75.3975C163.801 75.7738 163.375 76.1501 163.032 76.5428C162.787 76.8209 162.59 77.099 162.361 77.3771C162.05 77.7534 161.739 78.1134 161.461 78.506L161.478 78.4569Z" fill="url(#paint90_linear_5674_822)"/>
<g opacity="0.3">
<path d="M235.182 90.8909V93.5577C235.165 99.1857 231.451 104.814 224.056 109.116C209.168 117.771 184.955 117.771 169.969 109.116C162.427 104.765 158.664 99.0548 158.68 93.345V90.6782C158.68 96.388 162.443 102.098 169.969 106.45C184.955 115.104 209.168 115.104 224.056 106.45C231.451 102.147 235.149 96.5353 235.165 90.8909H235.182Z" fill="white"/>
<path d="M223.893 75.1194C238.879 83.7741 238.944 97.795 224.073 106.45C209.185 115.104 184.971 115.104 169.985 106.45C154.999 97.795 154.933 83.7741 169.821 75.1194C184.709 66.4647 208.923 66.4647 223.893 75.1194Z" fill="white"/>
</g>
<path d="M248.564 87.6352C248.564 87.8642 248.564 88.0933 248.532 88.3223C248.515 88.5677 248.483 88.8131 248.45 89.0586C248.417 89.2876 248.401 89.5167 248.368 89.7457C248.335 89.9911 248.27 90.2365 248.221 90.4819C248.172 90.711 248.139 90.94 248.074 91.1691C248.008 91.4145 247.943 91.6599 247.861 91.9053C247.796 92.1343 247.73 92.3634 247.665 92.5761C247.583 92.8215 247.485 93.0669 247.387 93.3123C247.305 93.5413 247.223 93.754 247.125 93.9831C247.027 94.2285 246.896 94.4739 246.798 94.7193C246.699 94.932 246.601 95.161 246.487 95.3737C246.356 95.6191 246.225 95.8645 246.094 96.0936C245.979 96.3062 245.865 96.5353 245.734 96.748C245.587 96.9934 245.423 97.2224 245.276 97.4678C245.129 97.6805 245.014 97.8932 244.851 98.1059C244.687 98.3513 244.507 98.5803 244.327 98.8094C244.163 99.0221 244.016 99.2348 243.853 99.4311C243.656 99.6765 243.46 99.9055 243.247 100.135C243.084 100.331 242.92 100.544 242.74 100.74C242.527 100.985 242.282 101.214 242.053 101.46C241.873 101.656 241.693 101.836 241.497 102.032C241.251 102.278 240.99 102.507 240.744 102.736C240.548 102.916 240.368 103.096 240.155 103.276C239.877 103.521 239.599 103.75 239.304 103.979C239.092 104.143 238.895 104.323 238.683 104.486C238.388 104.732 238.061 104.961 237.75 105.19C237.538 105.354 237.325 105.517 237.096 105.681C236.736 105.943 236.36 106.188 235.983 106.433C235.787 106.564 235.607 106.695 235.394 106.826C234.805 107.202 234.2 107.579 233.578 107.939C213.471 119.62 180.767 119.62 160.529 107.939C159.891 107.579 159.285 107.202 158.68 106.826C158.5 106.712 158.336 106.581 158.157 106.466C157.747 106.204 157.338 105.943 156.962 105.664C156.75 105.517 156.537 105.354 156.34 105.19C156.013 104.945 155.67 104.716 155.359 104.454C155.13 104.274 154.933 104.094 154.704 103.914C154.426 103.685 154.132 103.456 153.87 103.21C153.657 103.014 153.461 102.834 153.248 102.638C153.003 102.409 152.741 102.18 152.496 101.951C152.299 101.754 152.119 101.558 151.923 101.362C151.694 101.133 151.449 100.887 151.236 100.658C151.056 100.462 150.876 100.249 150.696 100.036C150.5 99.8074 150.287 99.5783 150.091 99.3329C149.927 99.1202 149.764 98.9076 149.616 98.6949C149.436 98.4658 149.256 98.2204 149.093 97.9914C148.946 97.7787 148.815 97.566 148.667 97.3533C148.504 97.1079 148.34 96.8789 148.193 96.6335C148.062 96.4208 147.948 96.1917 147.817 95.9627C147.686 95.7173 147.539 95.4882 147.424 95.2428C147.31 95.0138 147.211 94.7847 147.097 94.5557C146.982 94.3103 146.868 94.0812 146.753 93.8358C146.655 93.6068 146.573 93.3777 146.491 93.1487C146.393 92.9033 146.295 92.6579 146.213 92.4125C146.132 92.1834 146.082 91.9544 146.017 91.7253C145.952 91.4799 145.87 91.2345 145.804 90.9891C145.739 90.76 145.706 90.531 145.657 90.302C145.608 90.0565 145.543 89.8111 145.51 89.5657C145.477 89.3367 145.444 89.1076 145.428 88.8622C145.395 88.6168 145.363 88.3714 145.33 88.126C145.314 87.897 145.314 87.6679 145.297 87.4225C145.297 87.1771 145.264 86.9317 145.264 86.6863C145.264 86.6699 145.264 86.6372 145.264 86.6208L145.232 95.9627C145.215 103.668 150.287 111.374 160.463 117.248C180.701 128.929 213.406 128.945 233.513 117.248C243.493 111.456 248.483 103.848 248.515 96.2572L248.548 86.9153C248.548 87.128 248.532 87.3571 248.515 87.5698L248.564 87.6352Z" fill="url(#paint91_linear_5674_822)"/>
<path d="M145.346 87.4716C145.346 87.7006 145.346 87.9297 145.379 88.1751C145.395 88.4205 145.444 88.6659 145.477 88.9113C145.51 89.1404 145.526 89.3694 145.559 89.6148C145.608 89.8602 145.657 90.1056 145.706 90.351C145.755 90.5801 145.788 90.8091 145.853 91.0382C145.919 91.2836 146.001 91.529 146.066 91.7744C146.131 92.0035 146.197 92.2325 146.262 92.4615C146.344 92.707 146.442 92.9524 146.541 93.1978C146.622 93.4268 146.704 93.6559 146.802 93.8849C146.9 94.1303 147.031 94.3594 147.146 94.6048C147.26 94.8338 147.342 95.0629 147.473 95.2919C147.604 95.5373 147.735 95.7664 147.866 96.0118C147.997 96.2408 148.111 96.4535 148.242 96.6825C148.389 96.928 148.553 97.157 148.716 97.4024C148.864 97.6151 148.995 97.8278 149.142 98.0405C149.305 98.2695 149.485 98.5149 149.665 98.744C149.829 98.9567 149.976 99.1693 150.14 99.382C150.336 99.6111 150.532 99.8565 150.745 100.086C150.925 100.298 151.089 100.495 151.285 100.707C151.498 100.953 151.743 101.182 151.972 101.411C152.169 101.607 152.332 101.803 152.545 102C152.79 102.229 153.036 102.458 153.297 102.687C153.51 102.883 153.706 103.079 153.919 103.259C154.181 103.489 154.475 103.718 154.753 103.963C154.966 104.143 155.179 104.323 155.408 104.503C155.719 104.748 156.062 104.994 156.39 105.239C156.602 105.403 156.799 105.55 157.011 105.714C157.388 105.992 157.797 106.253 158.206 106.515C158.385 106.63 158.549 106.761 158.729 106.875C159.318 107.251 159.94 107.628 160.578 107.988C180.816 119.669 213.52 119.685 233.627 107.988C234.249 107.628 234.854 107.251 235.443 106.875C235.64 106.744 235.836 106.613 236.032 106.482C236.409 106.237 236.785 105.975 237.145 105.73C237.374 105.566 237.57 105.403 237.799 105.239C238.11 105.01 238.437 104.781 238.732 104.536C238.944 104.372 239.141 104.192 239.353 104.028C239.632 103.799 239.926 103.554 240.204 103.325C240.401 103.145 240.597 102.965 240.793 102.785C241.055 102.556 241.317 102.311 241.546 102.081C241.742 101.885 241.906 101.705 242.102 101.509C242.331 101.263 242.56 101.034 242.789 100.789C242.969 100.593 243.133 100.38 243.296 100.184C243.493 99.9546 243.705 99.7092 243.902 99.4802C244.065 99.2675 244.213 99.0548 244.376 98.8585C244.556 98.6294 244.736 98.384 244.9 98.155C245.047 97.9423 245.178 97.7296 245.325 97.5169C245.472 97.2715 245.636 97.0425 245.783 96.7971C245.914 96.5844 246.029 96.3717 246.143 96.1427C246.274 95.8972 246.421 95.6682 246.536 95.4228C246.65 95.2101 246.748 94.9811 246.847 94.7684C246.961 94.523 247.076 94.2776 247.174 94.0322C247.272 93.8031 247.337 93.5904 247.436 93.3614C247.534 93.116 247.632 92.8706 247.714 92.6251C247.795 92.3961 247.845 92.1671 247.91 91.9544C247.975 91.709 248.057 91.4636 248.123 91.2181C248.172 90.9891 248.221 90.7601 248.27 90.531C248.319 90.2856 248.384 90.0402 248.417 89.7948C248.45 89.5657 248.483 89.3367 248.499 89.1076C248.532 88.8622 248.564 88.6168 248.581 88.3714C248.597 88.1424 248.597 87.9133 248.613 87.6843C248.941 79.7658 243.869 71.7655 233.382 65.7122C213.16 54.0308 180.456 54.0472 160.365 65.7122C150.352 71.5365 145.346 79.1605 145.363 86.7845C145.363 87.0299 145.379 87.2753 145.395 87.5207L145.346 87.4716ZM163.048 76.4937C163.408 76.1011 163.817 75.7248 164.21 75.3485C164.455 75.1031 164.684 74.8577 164.962 74.6123C165.437 74.2033 165.977 73.7942 166.5 73.4016C166.746 73.2053 166.975 73.0089 167.237 72.829C168.055 72.2564 168.922 71.6837 169.838 71.1438C184.726 62.4892 208.923 62.4892 223.909 71.1438C224.842 71.6837 225.725 72.2564 226.56 72.829C226.821 73.0253 227.05 73.2216 227.312 73.418C227.836 73.8106 228.376 74.2196 228.85 74.6286C229.128 74.874 229.357 75.1358 229.619 75.3812C230.012 75.7575 230.437 76.1338 230.781 76.5264C231.026 76.8046 231.222 77.0827 231.451 77.3608C231.762 77.7371 232.089 78.1134 232.368 78.4897C232.58 78.7842 232.727 79.095 232.924 79.3895C233.153 79.7658 233.415 80.1421 233.611 80.5184C233.775 80.8292 233.873 81.1565 234.02 81.4673C234.184 81.8436 234.364 82.2199 234.494 82.5962C234.609 82.9234 234.658 83.2506 234.74 83.5778C234.838 83.9541 234.952 84.3304 235.018 84.7067C235.067 85.0339 235.083 85.3775 235.1 85.7047C235.132 86.081 235.198 86.4573 235.198 86.8335C235.198 88.4205 234.887 89.9911 234.298 91.5454C232.809 95.5373 229.423 99.3329 224.089 102.441C209.201 111.096 184.988 111.096 169.985 102.441C164.521 99.2839 161.069 95.4228 159.58 91.3654C158.876 89.4676 158.631 87.537 158.794 85.6065C158.827 85.2793 158.827 84.9521 158.876 84.6249C158.942 84.2486 159.056 83.8723 159.154 83.496C159.236 83.1688 159.285 82.8416 159.4 82.5307C159.531 82.1544 159.711 81.7782 159.874 81.4019C160.005 81.091 160.12 80.7638 160.267 80.453C160.463 80.0767 160.709 79.7167 160.938 79.3404C161.118 79.0296 161.281 78.7351 161.494 78.4243C161.756 78.048 162.083 77.6717 162.394 77.2954C162.623 77.0173 162.819 76.7391 163.065 76.461L163.048 76.4937Z" fill="url(#paint92_linear_5674_822)"/>
<path d="M209.005 75.5611C209.577 75.8883 209.921 76.3464 209.937 76.8372C209.937 77.8352 208.547 78.6533 206.813 78.6533H176.824C175.957 78.6533 175.171 78.4406 174.599 78.1134C174.026 77.7862 173.683 77.3281 173.666 76.8372C173.666 75.8393 175.057 75.0212 176.791 75.0212H206.78C207.647 75.0212 208.432 75.2339 209.005 75.5611Z" fill="white"/>
<path d="M209.038 82.8253C209.61 83.1525 209.954 83.6106 209.97 84.1014C209.97 85.0994 208.579 85.9174 206.845 85.9174H176.857C175.989 85.9174 175.204 85.7211 174.632 85.3939C174.059 85.0667 173.715 84.6086 173.699 84.1178C173.699 83.1198 175.09 82.3018 176.824 82.3018H206.813C207.68 82.3018 208.465 82.4981 209.038 82.8253Z" fill="white"/>
<path d="M164.505 112.176L144.185 123.972L136.348 119.456L156.668 107.644L164.505 112.176Z" fill="#A6C3E6"/>
<path d="M164.505 112.176L164.488 116.168L144.168 127.98L144.185 123.972L164.505 112.176Z" fill="#A6C3E6"/>
<path d="M144.185 123.972L144.168 127.98L136.332 123.448L136.348 119.456L144.185 123.972Z" fill="#A6C3E6"/>
<path d="M142.32 113.894C140.062 112.585 138.017 112.471 136.544 113.321L88.3301 141.887C89.8025 141.02 91.8639 141.15 94.1053 142.459C98.6045 145.061 102.22 151.327 102.204 156.497C102.204 159.049 101.288 160.848 99.8315 161.699L148.046 133.134C149.502 132.283 150.402 130.483 150.418 127.931C150.418 122.778 146.802 116.495 142.32 113.894Z" fill="#1A1A1A"/>
<path d="M94.089 142.459C98.5881 145.06 102.204 151.327 102.187 156.496C102.187 161.65 98.5227 163.728 94.0399 161.126C89.5571 158.541 85.9251 152.259 85.9415 147.106C85.9415 141.952 89.6062 139.874 94.089 142.459Z" fill="#2C3A4B"/>
</g>
<defs>
<linearGradient id="paint0_linear_5674_822" x1="261.391" y1="202.617" x2="213.537" y2="229.006" gradientUnits="userSpaceOnUse">
<stop offset="0.13" stop-color="#B3B3B3"/>
<stop offset="0.24" stop-color="#C6C6C6"/>
<stop offset="0.41" stop-color="#DFDFDF"/>
<stop offset="0.59" stop-color="#F0F0F0"/>
<stop offset="0.78" stop-color="#FBFBFB"/>
<stop offset="1" stop-color="white"/>
</linearGradient>
<linearGradient id="paint1_linear_5674_822" x1="362.368" y1="145.142" x2="364.413" y2="131.007" gradientUnits="userSpaceOnUse">
<stop stop-color="#4D4D4D"/>
<stop offset="0.14" stop-color="#515151"/>
<stop offset="0.3" stop-color="#5F5F5F"/>
<stop offset="0.46" stop-color="#777777"/>
<stop offset="0.64" stop-color="#979797"/>
<stop offset="0.82" stop-color="#C1C1C1"/>
<stop offset="1" stop-color="#F2F2F2"/>
</linearGradient>
<linearGradient id="paint2_linear_5674_822" x1="361.196" y1="151.042" x2="354.291" y2="138.971" gradientUnits="userSpaceOnUse">
<stop stop-color="#B69BE2"/>
<stop offset="0.02" stop-color="#B79CE2"/>
<stop offset="0.46" stop-color="#D7CAEA"/>
<stop offset="0.8" stop-color="#EAE7F0"/>
<stop offset="1" stop-color="#F2F2F2"/>
</linearGradient>
<linearGradient id="paint3_linear_5674_822" x1="367.785" y1="184.744" x2="342.697" y2="123.692" gradientUnits="userSpaceOnUse">
<stop stop-color="#0071BC"/>
<stop offset="0.06" stop-color="#0D7CC2"/>
<stop offset="0.21" stop-color="#2A93D0"/>
<stop offset="0.37" stop-color="#41A5DC"/>
<stop offset="0.54" stop-color="#51B2E3"/>
<stop offset="0.74" stop-color="#5BBAE8"/>
<stop offset="1" stop-color="#5EBDEA"/>
</linearGradient>
<linearGradient id="paint4_linear_5674_822" x1="369.793" y1="183.933" x2="344.71" y2="122.862" gradientUnits="userSpaceOnUse">
<stop stop-color="#0071BC"/>
<stop offset="0.06" stop-color="#0D7CC2"/>
<stop offset="0.21" stop-color="#2A93D0"/>
<stop offset="0.37" stop-color="#41A5DC"/>
<stop offset="0.54" stop-color="#51B2E3"/>
<stop offset="0.74" stop-color="#5BBAE8"/>
<stop offset="1" stop-color="#5EBDEA"/>
</linearGradient>
<linearGradient id="paint5_linear_5674_822" x1="369.811" y1="183.934" x2="344.729" y2="122.843" gradientUnits="userSpaceOnUse">
<stop stop-color="#0071BC"/>
<stop offset="0.06" stop-color="#0D7CC2"/>
<stop offset="0.21" stop-color="#2A93D0"/>
<stop offset="0.37" stop-color="#41A5DC"/>
<stop offset="0.54" stop-color="#51B2E3"/>
<stop offset="0.74" stop-color="#5BBAE8"/>
<stop offset="1" stop-color="#5EBDEA"/>
</linearGradient>
<linearGradient id="paint6_linear_5674_822" x1="369.707" y1="183.963" x2="344.619" y2="122.919" gradientUnits="userSpaceOnUse">
<stop stop-color="#0071BC"/>
<stop offset="0.06" stop-color="#0D7CC2"/>
<stop offset="0.21" stop-color="#2A93D0"/>
<stop offset="0.37" stop-color="#41A5DC"/>
<stop offset="0.54" stop-color="#51B2E3"/>
<stop offset="0.74" stop-color="#5BBAE8"/>
<stop offset="1" stop-color="#5EBDEA"/>
</linearGradient>
<linearGradient id="paint7_linear_5674_822" x1="356.554" y1="176.851" x2="245.135" y2="176.851" gradientUnits="userSpaceOnUse">
<stop stop-color="#97C1FC"/>
<stop offset="0.5" stop-color="#0062F9"/>
<stop offset="1" stop-color="#002A66"/>
</linearGradient>
<linearGradient id="paint8_linear_5674_822" x1="80.3825" y1="31.1977" x2="48.5648" y2="-66.67" gradientUnits="userSpaceOnUse">
<stop offset="0.02" stop-color="#FED488"/>
<stop offset="0.17" stop-color="#FDCF80"/>
<stop offset="0.4" stop-color="#FCC36C"/>
<stop offset="0.68" stop-color="#FAAF4C"/>
<stop offset="0.99" stop-color="#F7931F"/>
<stop offset="1" stop-color="#F7931E"/>
</linearGradient>
<linearGradient id="paint9_linear_5674_822" x1="80.2262" y1="31.1874" x2="48.3614" y2="-66.7228" gradientUnits="userSpaceOnUse">
<stop offset="0.02" stop-color="#FED488"/>
<stop offset="0.17" stop-color="#FDCF80"/>
<stop offset="0.4" stop-color="#FCC36C"/>
<stop offset="0.68" stop-color="#FAAF4C"/>
<stop offset="0.99" stop-color="#F7931F"/>
<stop offset="1" stop-color="#F7931E"/>
</linearGradient>
<linearGradient id="paint10_linear_5674_822" x1="79.3291" y1="31.4444" x2="47.5043" y2="-66.4751" gradientUnits="userSpaceOnUse">
<stop offset="0.02" stop-color="#FED488"/>
<stop offset="0.17" stop-color="#FDCF80"/>
<stop offset="0.4" stop-color="#FCC36C"/>
<stop offset="0.68" stop-color="#FAAF4C"/>
<stop offset="0.99" stop-color="#F7931F"/>
<stop offset="1" stop-color="#F7931E"/>
</linearGradient>
<linearGradient id="paint11_linear_5674_822" x1="248.81" y1="233.636" x2="223.713" y2="172.546" gradientUnits="userSpaceOnUse">
<stop stop-color="#0071BC"/>
<stop offset="0.06" stop-color="#0D7CC2"/>
<stop offset="0.21" stop-color="#2A93D0"/>
<stop offset="0.37" stop-color="#41A5DC"/>
<stop offset="0.54" stop-color="#51B2E3"/>
<stop offset="0.74" stop-color="#5BBAE8"/>
<stop offset="1" stop-color="#5EBDEA"/>
</linearGradient>
<linearGradient id="paint12_linear_5674_822" x1="179.523" y1="101.672" x2="2.22501" y2="230.789" gradientUnits="userSpaceOnUse">
<stop offset="0.13" stop-color="#B3B3B3"/>
<stop offset="0.24" stop-color="#C6C6C6"/>
<stop offset="0.41" stop-color="#DFDFDF"/>
<stop offset="0.59" stop-color="#F0F0F0"/>
<stop offset="0.78" stop-color="#FBFBFB"/>
<stop offset="1" stop-color="white"/>
</linearGradient>
<linearGradient id="paint13_linear_5674_822" x1="265.563" y1="80.862" x2="269.866" y2="80.862" gradientUnits="userSpaceOnUse">
<stop stop-color="#FF1511"/>
<stop offset="1" stop-color="#FF6C7B"/>
</linearGradient>
<linearGradient id="paint14_linear_5674_822" x1="254.258" y1="85.0011" x2="258.544" y2="85.0011" gradientUnits="userSpaceOnUse">
<stop stop-color="#FF1511"/>
<stop offset="1" stop-color="#FF6C7B"/>
</linearGradient>
<linearGradient id="paint15_linear_5674_822" x1="254.258" y1="86.3753" x2="255.518" y2="86.3753" gradientUnits="userSpaceOnUse">
<stop stop-color="#FF1511"/>
<stop offset="1" stop-color="#FF6C7B"/>
</linearGradient>
<linearGradient id="paint16_linear_5674_822" x1="242.953" y1="89.7293" x2="247.239" y2="89.7293" gradientUnits="userSpaceOnUse">
<stop stop-color="#FF1511"/>
<stop offset="1" stop-color="#FF6C7B"/>
</linearGradient>
<linearGradient id="paint17_linear_5674_822" x1="262.946" y1="117.886" x2="264.222" y2="117.886" gradientUnits="userSpaceOnUse">
<stop stop-color="#FF1511"/>
<stop offset="1" stop-color="#FF6C7B"/>
</linearGradient>
<linearGradient id="paint18_linear_5674_822" x1="236.409" y1="105.01" x2="264.221" y2="105.01" gradientUnits="userSpaceOnUse">
<stop stop-color="#FF1511"/>
<stop offset="1" stop-color="#FF6C7B"/>
</linearGradient>
<linearGradient id="paint19_linear_5674_822" x1="156.635" y1="174.509" x2="411.859" y2="-10.904" gradientUnits="userSpaceOnUse">
<stop offset="0.03" stop-color="#B1ADE1"/>
<stop offset="0.17" stop-color="#BFBCE4"/>
<stop offset="0.51" stop-color="#DAD9EB"/>
<stop offset="0.79" stop-color="#EBEBF0"/>
<stop offset="1" stop-color="#F2F2F2"/>
</linearGradient>
<linearGradient id="paint20_linear_5674_822" x1="160.725" y1="120.765" x2="161.985" y2="120.765" gradientUnits="userSpaceOnUse">
<stop stop-color="#FF1511"/>
<stop offset="1" stop-color="#FF6C7B"/>
</linearGradient>
<linearGradient id="paint21_linear_5674_822" x1="170.672" y1="193.831" x2="425.896" y2="8.40142" gradientUnits="userSpaceOnUse">
<stop offset="0.03" stop-color="#B1ADE1"/>
<stop offset="0.17" stop-color="#BFBCE4"/>
<stop offset="0.51" stop-color="#DAD9EB"/>
<stop offset="0.79" stop-color="#EBEBF0"/>
<stop offset="1" stop-color="#F2F2F2"/>
</linearGradient>
<linearGradient id="paint22_linear_5674_822" x1="176.742" y1="202.191" x2="431.966" y2="16.778" gradientUnits="userSpaceOnUse">
<stop offset="0.03" stop-color="#B1ADE1"/>
<stop offset="0.17" stop-color="#BFBCE4"/>
<stop offset="0.51" stop-color="#DAD9EB"/>
<stop offset="0.79" stop-color="#EBEBF0"/>
<stop offset="1" stop-color="#F2F2F2"/>
</linearGradient>
<linearGradient id="paint23_linear_5674_822" x1="160.725" y1="119.391" x2="165.028" y2="119.391" gradientUnits="userSpaceOnUse">
<stop stop-color="#FF1511"/>
<stop offset="1" stop-color="#FF6C7B"/>
</linearGradient>
<linearGradient id="paint24_linear_5674_822" x1="113.182" y1="130.5" x2="362.139" y2="130.5" gradientUnits="userSpaceOnUse">
<stop offset="0.03" stop-color="#B1ADE1"/>
<stop offset="0.17" stop-color="#BFBCE4"/>
<stop offset="0.51" stop-color="#DAD9EB"/>
<stop offset="0.79" stop-color="#EBEBF0"/>
<stop offset="1" stop-color="#F2F2F2"/>
</linearGradient>
<linearGradient id="paint25_linear_5674_822" x1="150.271" y1="165.74" x2="405.494" y2="-19.6732" gradientUnits="userSpaceOnUse">
<stop offset="0.03" stop-color="#B1ADE1"/>
<stop offset="0.17" stop-color="#BFBCE4"/>
<stop offset="0.51" stop-color="#DAD9EB"/>
<stop offset="0.79" stop-color="#EBEBF0"/>
<stop offset="1" stop-color="#F2F2F2"/>
</linearGradient>
<linearGradient id="paint26_linear_5674_822" x1="176.464" y1="201.799" x2="431.687" y2="16.3691" gradientUnits="userSpaceOnUse">
<stop offset="0.03" stop-color="#B1ADE1"/>
<stop offset="0.17" stop-color="#BFBCE4"/>
<stop offset="0.51" stop-color="#DAD9EB"/>
<stop offset="0.79" stop-color="#EBEBF0"/>
<stop offset="1" stop-color="#F2F2F2"/>
</linearGradient>
<linearGradient id="paint27_linear_5674_822" x1="174.534" y1="199.132" x2="429.757" y2="13.7186" gradientUnits="userSpaceOnUse">
<stop offset="0.03" stop-color="#B1ADE1"/>
<stop offset="0.17" stop-color="#BFBCE4"/>
<stop offset="0.51" stop-color="#DAD9EB"/>
<stop offset="0.79" stop-color="#EBEBF0"/>
<stop offset="1" stop-color="#F2F2F2"/>
</linearGradient>
<linearGradient id="paint28_linear_5674_822" x1="172.603" y1="196.481" x2="427.826" y2="11.0682" gradientUnits="userSpaceOnUse">
<stop offset="0.03" stop-color="#B1ADE1"/>
<stop offset="0.17" stop-color="#BFBCE4"/>
<stop offset="0.51" stop-color="#DAD9EB"/>
<stop offset="0.79" stop-color="#EBEBF0"/>
<stop offset="1" stop-color="#F2F2F2"/>
</linearGradient>
<linearGradient id="paint29_linear_5674_822" x1="154.721" y1="171.859" x2="409.944" y2="-13.5544" gradientUnits="userSpaceOnUse">
<stop offset="0.03" stop-color="#B1ADE1"/>
<stop offset="0.17" stop-color="#BFBCE4"/>
<stop offset="0.51" stop-color="#DAD9EB"/>
<stop offset="0.79" stop-color="#EBEBF0"/>
<stop offset="1" stop-color="#F2F2F2"/>
</linearGradient>
<linearGradient id="paint30_linear_5674_822" x1="152.79" y1="169.208" x2="408.014" y2="-16.2213" gradientUnits="userSpaceOnUse">
<stop offset="0.03" stop-color="#B1ADE1"/>
<stop offset="0.17" stop-color="#BFBCE4"/>
<stop offset="0.51" stop-color="#DAD9EB"/>
<stop offset="0.79" stop-color="#EBEBF0"/>
<stop offset="1" stop-color="#F2F2F2"/>
</linearGradient>
<linearGradient id="paint31_linear_5674_822" x1="164.079" y1="184.751" x2="419.302" y2="-0.662379" gradientUnits="userSpaceOnUse">
<stop offset="0.03" stop-color="#B1ADE1"/>
<stop offset="0.17" stop-color="#BFBCE4"/>
<stop offset="0.51" stop-color="#DAD9EB"/>
<stop offset="0.79" stop-color="#EBEBF0"/>
<stop offset="1" stop-color="#F2F2F2"/>
</linearGradient>
<linearGradient id="paint32_linear_5674_822" x1="185.887" y1="40.3862" x2="188.898" y2="40.3862" gradientUnits="userSpaceOnUse">
<stop stop-color="#FF1511"/>
<stop offset="1" stop-color="#FF6C7B"/>
</linearGradient>
<linearGradient id="paint33_linear_5674_822" x1="167.384" y1="64.4524" x2="221.292" y2="64.4524" gradientUnits="userSpaceOnUse">
<stop stop-color="#FF1511"/>
<stop offset="1" stop-color="#FF6C7B"/>
</linearGradient>
<linearGradient id="paint34_linear_5674_822" x1="157.911" y1="56.6484" x2="160.905" y2="56.6484" gradientUnits="userSpaceOnUse">
<stop stop-color="#FF1511"/>
<stop offset="1" stop-color="#FF6C7B"/>
</linearGradient>
<linearGradient id="paint35_linear_5674_822" x1="179.147" y1="68.1662" x2="258.839" y2="68.1662" gradientUnits="userSpaceOnUse">
<stop stop-color="#FF1511"/>
<stop offset="1" stop-color="#FF6C7B"/>
</linearGradient>
<linearGradient id="paint36_linear_5674_822" x1="116.585" y1="119.391" x2="371.808" y2="-66.0387" gradientUnits="userSpaceOnUse">
<stop offset="0.03" stop-color="#B1ADE1"/>
<stop offset="0.17" stop-color="#BFBCE4"/>
<stop offset="0.51" stop-color="#DAD9EB"/>
<stop offset="0.79" stop-color="#EBEBF0"/>
<stop offset="1" stop-color="#F2F2F2"/>
</linearGradient>
<linearGradient id="paint37_linear_5674_822" x1="127.513" y1="134.426" x2="382.737" y2="-51.0035" gradientUnits="userSpaceOnUse">
<stop offset="0.03" stop-color="#B1ADE1"/>
<stop offset="0.17" stop-color="#BFBCE4"/>
<stop offset="0.51" stop-color="#DAD9EB"/>
<stop offset="0.79" stop-color="#EBEBF0"/>
<stop offset="1" stop-color="#F2F2F2"/>
</linearGradient>
<linearGradient id="paint38_linear_5674_822" x1="204.064" y1="92.8215" x2="207.663" y2="92.8215" gradientUnits="userSpaceOnUse">
<stop stop-color="#FF1511"/>
<stop offset="1" stop-color="#FF6C7B"/>
</linearGradient>
<linearGradient id="paint39_linear_5674_822" x1="95.3977" y1="115.104" x2="178.084" y2="115.104" gradientUnits="userSpaceOnUse">
<stop stop-color="#FF1511"/>
<stop offset="1" stop-color="#FF6C7B"/>
</linearGradient>
<linearGradient id="paint40_linear_5674_822" x1="141.633" y1="80.1748" x2="194.231" y2="80.1748" gradientUnits="userSpaceOnUse">
<stop stop-color="#FF1511"/>
<stop offset="1" stop-color="#FF6C7B"/>
</linearGradient>
<linearGradient id="paint41_linear_5674_822" x1="198.452" y1="104.388" x2="223.598" y2="104.388" gradientUnits="userSpaceOnUse">
<stop stop-color="#FF1511"/>
<stop offset="1" stop-color="#FF6C7B"/>
</linearGradient>
<linearGradient id="paint42_linear_5674_822" x1="115.309" y1="117.624" x2="370.532" y2="-67.7893" gradientUnits="userSpaceOnUse">
<stop offset="0.03" stop-color="#B1ADE1"/>
<stop offset="0.17" stop-color="#BFBCE4"/>
<stop offset="0.51" stop-color="#DAD9EB"/>
<stop offset="0.79" stop-color="#EBEBF0"/>
<stop offset="1" stop-color="#F2F2F2"/>
</linearGradient>
<linearGradient id="paint43_linear_5674_822" x1="185.626" y1="109.755" x2="214.371" y2="109.755" gradientUnits="userSpaceOnUse">
<stop stop-color="#FF1511"/>
<stop offset="1" stop-color="#FF6C7B"/>
</linearGradient>
<linearGradient id="paint44_linear_5674_822" x1="142.598" y1="155.188" x2="397.821" y2="-30.2255" gradientUnits="userSpaceOnUse">
<stop offset="0.03" stop-color="#B1ADE1"/>
<stop offset="0.17" stop-color="#BFBCE4"/>
<stop offset="0.51" stop-color="#DAD9EB"/>
<stop offset="0.79" stop-color="#EBEBF0"/>
<stop offset="1" stop-color="#F2F2F2"/>
</linearGradient>
<linearGradient id="paint45_linear_5674_822" x1="141.322" y1="153.437" x2="396.545" y2="-31.9925" gradientUnits="userSpaceOnUse">
<stop offset="0.03" stop-color="#B1ADE1"/>
<stop offset="0.17" stop-color="#BFBCE4"/>
<stop offset="0.51" stop-color="#DAD9EB"/>
<stop offset="0.79" stop-color="#EBEBF0"/>
<stop offset="1" stop-color="#F2F2F2"/>
</linearGradient>
<linearGradient id="paint46_linear_5674_822" x1="122.769" y1="99.202" x2="205.455" y2="99.202" gradientUnits="userSpaceOnUse">
<stop stop-color="#FF1511"/>
<stop offset="1" stop-color="#FF6C7B"/>
</linearGradient>
<linearGradient id="paint47_linear_5674_822" x1="123.194" y1="128.471" x2="378.417" y2="-56.9423" gradientUnits="userSpaceOnUse">
<stop offset="0.03" stop-color="#B1ADE1"/>
<stop offset="0.17" stop-color="#BFBCE4"/>
<stop offset="0.51" stop-color="#DAD9EB"/>
<stop offset="0.79" stop-color="#EBEBF0"/>
<stop offset="1" stop-color="#F2F2F2"/>
</linearGradient>
<linearGradient id="paint48_linear_5674_822" x1="121.934" y1="126.737" x2="377.158" y2="-58.6765" gradientUnits="userSpaceOnUse">
<stop offset="0.03" stop-color="#B1ADE1"/>
<stop offset="0.17" stop-color="#BFBCE4"/>
<stop offset="0.51" stop-color="#DAD9EB"/>
<stop offset="0.79" stop-color="#EBEBF0"/>
<stop offset="1" stop-color="#F2F2F2"/>
</linearGradient>
<linearGradient id="paint49_linear_5674_822" x1="98.9807" y1="100.364" x2="336.208" y2="69.835" gradientUnits="userSpaceOnUse">
<stop offset="0.03" stop-color="#B1ADE1"/>
<stop offset="0.17" stop-color="#BFBCE4"/>
<stop offset="0.51" stop-color="#DAD9EB"/>
<stop offset="0.79" stop-color="#EBEBF0"/>
<stop offset="1" stop-color="#F2F2F2"/>
</linearGradient>
<linearGradient id="paint50_linear_5674_822" x1="117.828" y1="121.076" x2="373.051" y2="-64.3372" gradientUnits="userSpaceOnUse">
<stop offset="0.03" stop-color="#B1ADE1"/>
<stop offset="0.17" stop-color="#BFBCE4"/>
<stop offset="0.51" stop-color="#DAD9EB"/>
<stop offset="0.79" stop-color="#EBEBF0"/>
<stop offset="1" stop-color="#F2F2F2"/>
</linearGradient>
<linearGradient id="paint51_linear_5674_822" x1="128.184" y1="135.342" x2="383.407" y2="-50.0708" gradientUnits="userSpaceOnUse">
<stop offset="0.03" stop-color="#B1ADE1"/>
<stop offset="0.17" stop-color="#BFBCE4"/>
<stop offset="0.51" stop-color="#DAD9EB"/>
<stop offset="0.79" stop-color="#EBEBF0"/>
<stop offset="1" stop-color="#F2F2F2"/>
</linearGradient>
<linearGradient id="paint52_linear_5674_822" x1="115.947" y1="118.507" x2="371.17" y2="-66.9058" gradientUnits="userSpaceOnUse">
<stop offset="0.03" stop-color="#B1ADE1"/>
<stop offset="0.17" stop-color="#BFBCE4"/>
<stop offset="0.51" stop-color="#DAD9EB"/>
<stop offset="0.79" stop-color="#EBEBF0"/>
<stop offset="1" stop-color="#F2F2F2"/>
</linearGradient>
<linearGradient id="paint53_linear_5674_822" x1="126.254" y1="132.675" x2="381.477" y2="-52.7377" gradientUnits="userSpaceOnUse">
<stop offset="0.03" stop-color="#B1ADE1"/>
<stop offset="0.17" stop-color="#BFBCE4"/>
<stop offset="0.51" stop-color="#DAD9EB"/>
<stop offset="0.79" stop-color="#EBEBF0"/>
<stop offset="1" stop-color="#F2F2F2"/>
</linearGradient>
<linearGradient id="paint54_linear_5674_822" x1="141.96" y1="154.304" x2="397.183" y2="-31.1091" gradientUnits="userSpaceOnUse">
<stop offset="0.03" stop-color="#B1ADE1"/>
<stop offset="0.17" stop-color="#BFBCE4"/>
<stop offset="0.51" stop-color="#DAD9EB"/>
<stop offset="0.79" stop-color="#EBEBF0"/>
<stop offset="1" stop-color="#F2F2F2"/>
</linearGradient>
<linearGradient id="paint55_linear_5674_822" x1="123.816" y1="129.338" x2="379.039" y2="-56.0752" gradientUnits="userSpaceOnUse">
<stop offset="0.03" stop-color="#B1ADE1"/>
<stop offset="0.17" stop-color="#BFBCE4"/>
<stop offset="0.51" stop-color="#DAD9EB"/>
<stop offset="0.79" stop-color="#EBEBF0"/>
<stop offset="1" stop-color="#F2F2F2"/>
</linearGradient>
<linearGradient id="paint56_linear_5674_822" x1="122.556" y1="127.604" x2="377.779" y2="-57.8094" gradientUnits="userSpaceOnUse">
<stop offset="0.03" stop-color="#B1ADE1"/>
<stop offset="0.17" stop-color="#BFBCE4"/>
<stop offset="0.51" stop-color="#DAD9EB"/>
<stop offset="0.79" stop-color="#EBEBF0"/>
<stop offset="1" stop-color="#F2F2F2"/>
</linearGradient>
<linearGradient id="paint57_linear_5674_822" x1="125.436" y1="131.579" x2="380.659" y2="-53.8502" gradientUnits="userSpaceOnUse">
<stop offset="0.03" stop-color="#B1ADE1"/>
<stop offset="0.17" stop-color="#BFBCE4"/>
<stop offset="0.51" stop-color="#DAD9EB"/>
<stop offset="0.79" stop-color="#EBEBF0"/>
<stop offset="1" stop-color="#F2F2F2"/>
</linearGradient>
<linearGradient id="paint58_linear_5674_822" x1="109.157" y1="14.1602" x2="112.118" y2="14.1602" gradientUnits="userSpaceOnUse">
<stop stop-color="#FF1511"/>
<stop offset="1" stop-color="#FF6C7B"/>
</linearGradient>
<linearGradient id="paint59_linear_5674_822" x1="86.4977" y1="77.9662" x2="341.721" y2="-107.447" gradientUnits="userSpaceOnUse">
<stop offset="0.03" stop-color="#B1ADE1"/>
<stop offset="0.17" stop-color="#BFBCE4"/>
<stop offset="0.51" stop-color="#DAD9EB"/>
<stop offset="0.79" stop-color="#EBEBF0"/>
<stop offset="1" stop-color="#F2F2F2"/>
</linearGradient>
<linearGradient id="paint60_linear_5674_822" x1="100.257" y1="23.7313" x2="103.218" y2="23.7313" gradientUnits="userSpaceOnUse">
<stop stop-color="#FF1511"/>
<stop offset="1" stop-color="#FF6C7B"/>
</linearGradient>
<linearGradient id="paint61_linear_5674_822" x1="100.257" y1="25.4981" x2="101.418" y2="25.4981" gradientUnits="userSpaceOnUse">
<stop stop-color="#FF1511"/>
<stop offset="1" stop-color="#FF6C7B"/>
</linearGradient>
<linearGradient id="paint62_linear_5674_822" x1="153.641" y1="32.0586" x2="195.164" y2="32.0586" gradientUnits="userSpaceOnUse">
<stop stop-color="#FF1511"/>
<stop offset="1" stop-color="#FF6C7B"/>
</linearGradient>
<linearGradient id="paint63_linear_5674_822" x1="85.0253" y1="75.9373" x2="340.249" y2="-109.492" gradientUnits="userSpaceOnUse">
<stop offset="0.03" stop-color="#B1ADE1"/>
<stop offset="0.17" stop-color="#BFBCE4"/>
<stop offset="0.51" stop-color="#DAD9EB"/>
<stop offset="0.79" stop-color="#EBEBF0"/>
<stop offset="1" stop-color="#F2F2F2"/>
</linearGradient>
<linearGradient id="paint64_linear_5674_822" x1="215.582" y1="45.1962" x2="216.744" y2="45.1962" gradientUnits="userSpaceOnUse">
<stop stop-color="#FF1511"/>
<stop offset="1" stop-color="#FF6C7B"/>
</linearGradient>
<linearGradient id="paint65_linear_5674_822" x1="82.4731" y1="54.2761" x2="168.496" y2="54.2761" gradientUnits="userSpaceOnUse">
<stop stop-color="#FF1511"/>
<stop offset="1" stop-color="#FF6C7B"/>
</linearGradient>
<linearGradient id="paint66_linear_5674_822" x1="112.773" y1="114.123" x2="367.996" y2="-71.2904" gradientUnits="userSpaceOnUse">
<stop offset="0.03" stop-color="#B1ADE1"/>
<stop offset="0.17" stop-color="#BFBCE4"/>
<stop offset="0.51" stop-color="#DAD9EB"/>
<stop offset="0.79" stop-color="#EBEBF0"/>
<stop offset="1" stop-color="#F2F2F2"/>
</linearGradient>
<linearGradient id="paint67_linear_5674_822" x1="94.3181" y1="38.2102" x2="135.841" y2="38.2102" gradientUnits="userSpaceOnUse">
<stop stop-color="#FF1511"/>
<stop offset="1" stop-color="#FF6C7B"/>
</linearGradient>
<linearGradient id="paint68_linear_5674_822" x1="114.54" y1="116.577" x2="369.763" y2="-68.8528" gradientUnits="userSpaceOnUse">
<stop offset="0.03" stop-color="#B1ADE1"/>
<stop offset="0.17" stop-color="#BFBCE4"/>
<stop offset="0.51" stop-color="#DAD9EB"/>
<stop offset="0.79" stop-color="#EBEBF0"/>
<stop offset="1" stop-color="#F2F2F2"/>
</linearGradient>
<linearGradient id="paint69_linear_5674_822" x1="116.536" y1="119.309" x2="371.759" y2="-66.1041" gradientUnits="userSpaceOnUse">
<stop offset="0.03" stop-color="#B1ADE1"/>
<stop offset="0.17" stop-color="#BFBCE4"/>
<stop offset="0.51" stop-color="#DAD9EB"/>
<stop offset="0.79" stop-color="#EBEBF0"/>
<stop offset="1" stop-color="#F2F2F2"/>
</linearGradient>
<linearGradient id="paint70_linear_5674_822" x1="72.4277" y1="74.1869" x2="73.5893" y2="74.1869" gradientUnits="userSpaceOnUse">
<stop stop-color="#FF1511"/>
<stop offset="1" stop-color="#FF6C7B"/>
</linearGradient>
<linearGradient id="paint71_linear_5674_822" x1="77.0906" y1="65.0085" x2="332.314" y2="-120.405" gradientUnits="userSpaceOnUse">
<stop offset="0.03" stop-color="#B1ADE1"/>
<stop offset="0.17" stop-color="#BFBCE4"/>
<stop offset="0.51" stop-color="#DAD9EB"/>
<stop offset="0.79" stop-color="#EBEBF0"/>
<stop offset="1" stop-color="#F2F2F2"/>
</linearGradient>
<linearGradient id="paint72_linear_5674_822" x1="77.0742" y1="78.097" x2="80.0355" y2="78.097" gradientUnits="userSpaceOnUse">
<stop stop-color="#FF1511"/>
<stop offset="1" stop-color="#FF6C7B"/>
</linearGradient>
<linearGradient id="paint73_linear_5674_822" x1="61.7444" y1="85.6556" x2="62.906" y2="85.6556" gradientUnits="userSpaceOnUse">
<stop stop-color="#FF1511"/>
<stop offset="1" stop-color="#FF6C7B"/>
</linearGradient>
<linearGradient id="paint74_linear_5674_822" x1="115.341" y1="117.657" x2="370.565" y2="-67.7566" gradientUnits="userSpaceOnUse">
<stop offset="0.03" stop-color="#B1ADE1"/>
<stop offset="0.17" stop-color="#BFBCE4"/>
<stop offset="0.51" stop-color="#DAD9EB"/>
<stop offset="0.79" stop-color="#EBEBF0"/>
<stop offset="1" stop-color="#F2F2F2"/>
</linearGradient>
<linearGradient id="paint75_linear_5674_822" x1="78.8739" y1="67.4626" x2="334.097" y2="-117.951" gradientUnits="userSpaceOnUse">
<stop offset="0.03" stop-color="#B1ADE1"/>
<stop offset="0.17" stop-color="#BFBCE4"/>
<stop offset="0.51" stop-color="#DAD9EB"/>
<stop offset="0.79" stop-color="#EBEBF0"/>
<stop offset="1" stop-color="#F2F2F2"/>
</linearGradient>
<linearGradient id="paint76_linear_5674_822" x1="80.8533" y1="70.1949" x2="336.077" y2="-115.218" gradientUnits="userSpaceOnUse">
<stop offset="0.03" stop-color="#B1ADE1"/>
<stop offset="0.17" stop-color="#BFBCE4"/>
<stop offset="0.51" stop-color="#DAD9EB"/>
<stop offset="0.79" stop-color="#EBEBF0"/>
<stop offset="1" stop-color="#F2F2F2"/>
</linearGradient>
<linearGradient id="paint77_linear_5674_822" x1="106.032" y1="93.3776" x2="163.081" y2="93.3776" gradientUnits="userSpaceOnUse">
<stop stop-color="#FF1511"/>
<stop offset="1" stop-color="#FF6C7B"/>
</linearGradient>
<linearGradient id="paint78_linear_5674_822" x1="50.3738" y1="118.033" x2="136.397" y2="118.033" gradientUnits="userSpaceOnUse">
<stop stop-color="#FF1511"/>
<stop offset="1" stop-color="#FF6C7B"/>
</linearGradient>
<linearGradient id="paint79_linear_5674_822" x1="105.738" y1="104.437" x2="360.961" y2="-80.9759" gradientUnits="userSpaceOnUse">
<stop offset="0.03" stop-color="#B1ADE1"/>
<stop offset="0.17" stop-color="#BFBCE4"/>
<stop offset="0.51" stop-color="#DAD9EB"/>
<stop offset="0.79" stop-color="#EBEBF0"/>
<stop offset="1" stop-color="#F2F2F2"/>
</linearGradient>
<linearGradient id="paint80_linear_5674_822" x1="30.3486" y1="72.2236" x2="251.755" y2="72.2236" gradientUnits="userSpaceOnUse">
<stop offset="0.03" stop-color="#B1ADE1"/>
<stop offset="0.12" stop-color="#BEBBE4"/>
<stop offset="0.31" stop-color="#D5D3EA"/>
<stop offset="0.51" stop-color="#E5E4EE"/>
<stop offset="0.73" stop-color="#EEEEF1"/>
<stop offset="1" stop-color="#F2F2F2"/>
</linearGradient>
<linearGradient id="paint81_linear_5674_822" x1="87.9867" y1="80.0112" x2="343.21" y2="-105.418" gradientUnits="userSpaceOnUse">
<stop offset="0.03" stop-color="#B1ADE1"/>
<stop offset="0.17" stop-color="#BFBCE4"/>
<stop offset="0.51" stop-color="#DAD9EB"/>
<stop offset="0.79" stop-color="#EBEBF0"/>
<stop offset="1" stop-color="#F2F2F2"/>
</linearGradient>
<linearGradient id="paint82_linear_5674_822" x1="89.4591" y1="82.0398" x2="344.682" y2="-103.373" gradientUnits="userSpaceOnUse">
<stop offset="0.03" stop-color="#B1ADE1"/>
<stop offset="0.17" stop-color="#BFBCE4"/>
<stop offset="0.51" stop-color="#DAD9EB"/>
<stop offset="0.79" stop-color="#EBEBF0"/>
<stop offset="1" stop-color="#F2F2F2"/>
</linearGradient>
<linearGradient id="paint83_linear_5674_822" x1="104.249" y1="102.409" x2="359.472" y2="-83.0045" gradientUnits="userSpaceOnUse">
<stop offset="0.03" stop-color="#B1ADE1"/>
<stop offset="0.17" stop-color="#BFBCE4"/>
<stop offset="0.51" stop-color="#DAD9EB"/>
<stop offset="0.79" stop-color="#EBEBF0"/>
<stop offset="1" stop-color="#F2F2F2"/>
</linearGradient>
<linearGradient id="paint84_linear_5674_822" x1="107.21" y1="106.482" x2="362.433" y2="-78.9472" gradientUnits="userSpaceOnUse">
<stop offset="0.03" stop-color="#B1ADE1"/>
<stop offset="0.17" stop-color="#BFBCE4"/>
<stop offset="0.51" stop-color="#DAD9EB"/>
<stop offset="0.79" stop-color="#EBEBF0"/>
<stop offset="1" stop-color="#F2F2F2"/>
</linearGradient>
<linearGradient id="paint85_linear_5674_822" x1="108.699" y1="108.511" x2="363.922" y2="-76.9021" gradientUnits="userSpaceOnUse">
<stop offset="0.03" stop-color="#B1ADE1"/>
<stop offset="0.17" stop-color="#BFBCE4"/>
<stop offset="0.51" stop-color="#DAD9EB"/>
<stop offset="0.79" stop-color="#EBEBF0"/>
<stop offset="1" stop-color="#F2F2F2"/>
</linearGradient>
<linearGradient id="paint86_linear_5674_822" x1="104.298" y1="102.474" x2="359.521" y2="-82.9554" gradientUnits="userSpaceOnUse">
<stop offset="0.03" stop-color="#B1ADE1"/>
<stop offset="0.17" stop-color="#BFBCE4"/>
<stop offset="0.51" stop-color="#DAD9EB"/>
<stop offset="0.79" stop-color="#EBEBF0"/>
<stop offset="1" stop-color="#F2F2F2"/>
</linearGradient>
<linearGradient id="paint87_linear_5674_822" x1="77.1232" y1="65.0577" x2="332.347" y2="-120.372" gradientUnits="userSpaceOnUse">
<stop offset="0.03" stop-color="#B1ADE1"/>
<stop offset="0.17" stop-color="#BFBCE4"/>
<stop offset="0.51" stop-color="#DAD9EB"/>
<stop offset="0.79" stop-color="#EBEBF0"/>
<stop offset="1" stop-color="#F2F2F2"/>
</linearGradient>
<linearGradient id="paint88_linear_5674_822" x1="95.6107" y1="90.5146" x2="350.834" y2="-94.8985" gradientUnits="userSpaceOnUse">
<stop offset="0.03" stop-color="#B1ADE1"/>
<stop offset="0.17" stop-color="#BFBCE4"/>
<stop offset="0.51" stop-color="#DAD9EB"/>
<stop offset="0.79" stop-color="#EBEBF0"/>
<stop offset="1" stop-color="#F2F2F2"/>
</linearGradient>
<linearGradient id="paint89_linear_5674_822" x1="105.181" y1="83.3487" x2="209.61" y2="154.517" gradientUnits="userSpaceOnUse">
<stop offset="0.13" stop-color="#B3B3B3"/>
<stop offset="0.24" stop-color="#C6C6C6"/>
<stop offset="0.41" stop-color="#DFDFDF"/>
<stop offset="0.59" stop-color="#F0F0F0"/>
<stop offset="0.78" stop-color="#FBFBFB"/>
<stop offset="1" stop-color="white"/>
</linearGradient>
<linearGradient id="paint90_linear_5674_822" x1="235.099" y1="78.1411" x2="158.745" y2="78.1411" gradientUnits="userSpaceOnUse">
<stop stop-color="#97C1FC"/>
<stop offset="0.5" stop-color="#0062F9"/>
<stop offset="1" stop-color="#002A66"/>
</linearGradient>
<linearGradient id="paint91_linear_5674_822" x1="248.453" y1="106.303" x2="145.252" y2="106.303" gradientUnits="userSpaceOnUse">
<stop stop-color="#97C1FC"/>
<stop offset="0.5" stop-color="#0062F9"/>
<stop offset="1" stop-color="#002A66"/>
</linearGradient>
<linearGradient id="paint92_linear_5674_822" x1="248.517" y1="86.8336" x2="145.367" y2="86.8336" gradientUnits="userSpaceOnUse">
<stop stop-color="#97C1FC"/>
<stop offset="0.5" stop-color="#0062F9"/>
<stop offset="1" stop-color="#002A66"/>
</linearGradient>
<clipPath id="clip0_5674_822">
<rect width="366" height="227.034" fill="white" transform="translate(0 0.48291)"/>
</clipPath>
</defs>
</svg>
