<svg width="12" height="13" viewBox="0 0 12 13" fill="none" xmlns="http://www.w3.org/2000/svg">
<path d="M11.0934 5.75384H2.71587L6.37587 2.09384C6.66837 1.80134 6.66837 1.32134 6.37587 1.02884C6.23574 0.888403 6.04551 0.809479 5.84712 0.809479C5.64873 0.809479 5.45849 0.888403 5.31837 1.02884L0.375869 5.97134C0.0833691 6.26384 0.0833691 6.73634 0.375869 7.02884L5.31837 11.9713C5.61087 12.2638 6.08337 12.2638 6.37587 11.9713C6.66837 11.6788 6.66837 11.2063 6.37587 10.9138L2.71587 7.25384H11.0934C11.5059 7.25384 11.8434 6.91634 11.8434 6.50384C11.8434 6.09134 11.5059 5.75384 11.0934 5.75384Z" fill="black"/>
</svg>
