<svg width="70" height="70" viewBox="0 0 70 70" fill="none" xmlns="http://www.w3.org/2000/svg">
<circle cx="35" cy="35" r="35" fill="#0064FF" fill-opacity="0.08"/>
<path d="M49.1168 38.075C48.4878 37.0966 47.8589 36.1532 47.2299 35.1748C47.0901 34.9651 47.0901 34.8253 47.2299 34.6157C47.8589 33.6722 48.4529 32.7288 49.0819 31.7853C49.8156 30.6672 49.4313 29.584 48.1733 29.1297C47.1251 28.7453 46.0768 28.326 45.0285 27.9417C44.8189 27.8718 44.714 27.732 44.714 27.4874C44.6791 26.3343 44.6092 25.1812 44.5393 24.063C44.4694 22.8401 43.526 22.1412 42.3379 22.4557C41.2198 22.7352 40.1016 23.0497 39.0184 23.3642C38.7738 23.4341 38.634 23.3642 38.4593 23.1895C37.7605 22.281 37.0267 21.4074 36.3278 20.5338C35.5591 19.5555 34.371 19.5555 33.5674 20.5338C32.8685 21.4074 32.1347 22.281 31.4708 23.1545C31.2961 23.3991 31.1214 23.4341 30.8419 23.3642C29.7586 23.0497 28.6754 22.7702 27.9067 22.5605C26.4042 22.2111 25.4957 22.8051 25.4258 24.063C25.3559 25.2161 25.286 26.3692 25.251 27.5573C25.251 27.8019 25.1462 27.9067 24.9366 28.0115C23.8533 28.4309 22.7701 28.8502 21.6869 29.2695C20.5688 29.7237 20.2193 30.8069 20.8832 31.8203C21.5122 32.7987 22.1412 33.7421 22.7701 34.7205C22.9099 34.9302 22.9099 35.0699 22.7701 35.3145C22.1062 36.2929 21.4773 37.2713 20.8483 38.2847C20.2543 39.2281 20.6386 40.3463 21.6869 40.7656C22.7701 41.1849 23.8883 41.6042 24.9715 42.0235C25.2161 42.0934 25.286 42.2332 25.286 42.4778C25.3209 43.5959 25.4607 44.6791 25.4607 45.7973C25.4607 46.9155 26.4391 47.9288 27.8018 47.5095C28.8851 47.1601 29.9683 46.9154 31.0515 46.601C31.2612 46.5311 31.4009 46.566 31.5407 46.7757C32.2745 47.6842 32.9733 48.5578 33.7071 49.4663C34.5108 50.4446 35.6639 50.4446 36.4326 49.4663C37.1664 48.5578 37.8653 47.6842 38.5991 46.7757C38.7388 46.601 38.8437 46.5311 39.0883 46.601C40.2064 46.9154 41.3246 47.195 42.4428 47.5095C43.5959 47.824 44.5743 47.1251 44.6092 45.9371C44.6791 44.784 44.749 43.6309 44.7839 42.4428C44.7839 42.1633 44.9237 42.0584 45.1333 41.9886C46.1816 41.6042 47.2648 41.1849 48.3131 40.7656C49.4313 40.2065 49.7807 39.0883 49.1168 38.075ZM40.7655 32.3444L33.777 39.3329C33.6023 39.5076 33.3577 39.6474 33.1131 39.6824C33.0432 39.6824 32.9384 39.7173 32.8685 39.7173C32.554 39.7173 32.2046 39.5775 31.96 39.3329L29.0947 36.4676C28.6055 35.9784 28.6055 35.1748 29.0947 34.6856C29.5839 34.1964 30.3876 34.1964 30.8768 34.6856L32.8336 36.6423L38.9136 30.5624C39.4028 30.0732 40.2065 30.0732 40.6957 30.5624C41.2547 31.0515 41.2547 31.8552 40.7655 32.3444Z" fill="#0064FF"/>
</svg>
