<svg width="148" height="148" viewBox="0 0 148 148" fill="none" xmlns="http://www.w3.org/2000/svg">
<mask id="mask0_5809_1136" style="mask-type:alpha" maskUnits="userSpaceOnUse" x="0" y="0" width="148" height="148">
<path d="M148 74C148 33.1309 114.869 0 74 0C33.1309 0 0 33.1309 0 74C0 114.869 33.1309 148 74 148C114.869 148 148 114.869 148 74Z" fill="white"/>
</mask>
<g mask="url(#mask0_5809_1136)">
<path d="M148 0H0V148H148V0Z" fill="#1A1A1A"/>
<path d="M183.124 84.428L106.192 26.4553C95.5699 18.451 80.4702 20.5731 72.4658 31.1952L14.4932 108.128C6.48882 118.75 8.61096 133.849 19.2331 141.854L96.1654 199.826C106.788 207.831 121.887 205.709 129.892 195.087L187.864 118.154C195.869 107.532 193.747 92.4323 183.124 84.428Z" fill="#F4F6F9"/>
<path d="M68.9886 99.0547C69.4869 103.113 72.1144 106.741 76.2929 109.141C80.4714 111.541 85.8588 112.516 91.2698 111.851C96.6808 111.187 101.672 108.938 105.146 105.598C108.62 102.259 110.292 98.1028 109.793 94.0445" fill="#1A1A1A"/>
<path d="M74.7326 77.7379C74.328 74.4425 71.5757 72.0688 68.5851 72.436C65.5946 72.8032 63.4983 75.7723 63.9029 79.0676C64.3075 82.363 67.0599 84.7367 70.0504 84.3695C73.0409 84.0023 75.1372 81.0333 74.7326 77.7379Z" fill="#1A1A1A"/>
<path d="M110.43 74.1423C110.025 70.8469 107.276 68.4728 104.288 68.8396C101.301 69.2063 99.2079 72.1751 99.6125 75.4704C100.017 78.7658 102.767 81.1399 105.754 80.7731C108.741 80.4064 110.834 77.4376 110.43 74.1423Z" fill="#1A1A1A"/>
</g>
</svg>
