<svg width="31" height="30" viewBox="0 0 31 30" fill="none" xmlns="http://www.w3.org/2000/svg">
<g clip-path="url(#clip0_5668_57159)">
<path d="M7.46839 17.8471L6.44328 21.674L2.69651 21.7532C1.57678 19.6764 0.94165 17.3002 0.94165 14.7751C0.94165 12.3333 1.53548 10.0307 2.58809 8.00317H2.58889L5.92457 8.61472L7.38579 11.9304C7.07996 12.822 6.91327 13.7791 6.91327 14.7751C6.91339 15.856 7.10918 16.8916 7.46839 17.8471Z" fill="#FBBB00"/>
<path d="M30.1345 12.0243C30.3036 12.915 30.3918 13.8349 30.3918 14.7751C30.3918 15.8293 30.2809 16.8577 30.0698 17.8496C29.353 21.225 27.48 24.1724 24.8853 26.2582L24.8845 26.2574L20.683 26.043L20.0884 22.331C21.8101 21.3213 23.1556 19.7412 23.8643 17.8496H15.9905V12.0243H23.9792H30.1345Z" fill="#518EF8"/>
<path d="M24.8846 26.2573L24.8854 26.2581C22.362 28.2864 19.1564 29.5 15.6669 29.5C10.0593 29.5 5.18386 26.3657 2.69678 21.7532L7.46866 17.847C8.71217 21.1658 11.9137 23.5283 15.6669 23.5283C17.2802 23.5283 18.7915 23.0922 20.0884 22.3309L24.8846 26.2573Z" fill="#28B446"/>
<path d="M25.0656 3.44002L20.2953 7.34537C18.9531 6.50639 17.3665 6.02173 15.6667 6.02173C11.8285 6.02173 8.56712 8.49259 7.3859 11.9304L2.58894 8.00316H2.58813C5.03881 3.27822 9.97571 0.0500488 15.6667 0.0500488C19.2395 0.0500488 22.5154 1.32273 25.0656 3.44002Z" fill="#F14336"/>
</g>
<defs>
<clipPath id="clip0_5668_57159">
<rect width="29.45" height="29.45" fill="white" transform="translate(0.94165 0.0500488)"/>
</clipPath>
</defs>
</svg>
