<svg width="40" height="38" viewBox="0 0 40 38" fill="none" xmlns="http://www.w3.org/2000/svg">
<path d="M39.4161 16.2565C39.4161 7.56833 30.7065 0.49995 19.9998 0.49995C9.29492 0.49995 0.583984 7.56833 0.583984 16.2562C0.583984 24.0451 7.49154 30.5679 16.8221 31.8016C17.4545 31.9378 18.315 32.2185 18.5327 32.759C18.7284 33.2497 18.6608 34.0188 18.5953 34.5145C18.5953 34.5145 18.3673 35.8846 18.3184 36.1765C18.2338 36.6675 17.9282 38.0964 19.9998 37.2232C22.0723 36.3499 31.1819 30.6391 35.2553 25.9505H35.2546C38.0684 22.8649 39.4161 19.7335 39.4161 16.2562" fill="#00B900"/>
<path d="M16.0551 12.0578H14.6933C14.5931 12.0578 14.4969 12.0976 14.426 12.1684C14.355 12.2392 14.315 12.3352 14.3148 12.4354V20.8956C14.3149 20.9453 14.3247 20.9944 14.3438 21.0402C14.3628 21.0861 14.3907 21.1277 14.4259 21.1628C14.461 21.1978 14.5027 21.2256 14.5486 21.2446C14.5945 21.2635 14.6436 21.2733 14.6933 21.2732H16.0551C16.264 21.2732 16.4331 21.1041 16.4331 20.8956V12.4354C16.433 12.3353 16.3931 12.2393 16.3222 12.1685C16.2513 12.0978 16.1553 12.0578 16.0551 12.0578ZM25.4293 12.0578H24.0672C23.9671 12.0578 23.871 12.0976 23.8001 12.1684C23.7292 12.2392 23.6893 12.3352 23.6892 12.4354V17.4617L19.8122 12.2258C19.8032 12.2125 19.7934 12.1997 19.7829 12.1876L19.7802 12.1853C19.773 12.1771 19.7654 12.1693 19.7574 12.1618L19.7505 12.1556C19.7441 12.1496 19.7374 12.144 19.7303 12.1388C19.7274 12.1357 19.7241 12.1334 19.7207 12.131C19.714 12.1265 19.7075 12.1216 19.7008 12.1176C19.6972 12.115 19.6934 12.1127 19.6894 12.1108C19.6827 12.1068 19.676 12.1026 19.6693 12.0992C19.6652 12.0974 19.6614 12.0952 19.6574 12.0936C19.6504 12.0902 19.6431 12.0871 19.6357 12.0844L19.6234 12.08C19.616 12.0772 19.6085 12.0748 19.6008 12.0728L19.5878 12.0692L19.5662 12.0643C19.5609 12.0635 19.5556 12.0629 19.5503 12.0625C19.5436 12.061 19.5368 12.0605 19.5301 12.0598C19.5237 12.0592 19.5174 12.0592 19.5107 12.0587C19.506 12.0587 19.5022 12.0581 19.4973 12.0581H18.1359C18.0357 12.058 17.9395 12.0977 17.8685 12.1684C17.7975 12.2392 17.7575 12.3352 17.7572 12.4354V20.8956C17.7572 20.9453 17.7671 20.9944 17.7861 21.0403C17.8052 21.0861 17.8331 21.1278 17.8683 21.1629C17.9035 21.1979 17.9452 21.2257 17.9911 21.2447C18.037 21.2636 18.0862 21.2733 18.1359 21.2732H19.4973C19.5469 21.2733 19.5961 21.2636 19.642 21.2447C19.6879 21.2257 19.7297 21.1979 19.7648 21.1629C19.8 21.1278 19.8279 21.0861 19.847 21.0403C19.8661 20.9944 19.8759 20.9453 19.876 20.8956V15.8709L23.7577 21.1135C23.7846 21.1515 23.8185 21.1841 23.8574 21.2097C23.8653 21.2146 23.8731 21.2195 23.8809 21.224C23.8845 21.2262 23.8878 21.2278 23.8917 21.2296C23.8974 21.2329 23.9034 21.2359 23.9095 21.2385L23.9281 21.2464C23.9319 21.2477 23.9355 21.2493 23.9393 21.2504C23.9482 21.2537 23.9563 21.2564 23.965 21.2589C23.9668 21.2589 23.9686 21.2598 23.9706 21.26C24.0015 21.2683 24.0337 21.2732 24.0672 21.2732H25.4293C25.6384 21.2732 25.8073 21.1041 25.8073 20.8956V12.4354C25.8072 12.3353 25.7672 12.2393 25.6964 12.1685C25.6255 12.0978 25.5294 12.0578 25.4293 12.0578ZM12.7722 19.1546H9.07173V12.4359C9.07173 12.3356 9.03194 12.2395 8.96109 12.1686C8.89024 12.0977 8.79414 12.0579 8.69392 12.0578H7.33165C7.23139 12.0578 7.13523 12.0977 7.06434 12.1686C6.99344 12.2394 6.95361 12.3356 6.95361 12.4359V20.8954C6.95358 20.945 6.96336 20.9941 6.98241 21.0399C7.00145 21.0857 7.02937 21.1273 7.06456 21.1622L7.07016 21.1676C7.1402 21.2354 7.23392 21.2733 7.33142 21.2732H12.7722C12.8725 21.273 12.9685 21.233 13.0393 21.1621C13.11 21.0911 13.1497 20.9949 13.1496 20.8947V19.5329C13.1496 19.324 12.9812 19.1548 12.7722 19.1548M32.9502 14.1762C33.1589 14.1762 33.3276 14.0073 33.3276 13.7981V12.4363C33.3277 12.3361 33.288 12.2399 33.2172 12.1689C33.1465 12.098 33.0504 12.058 32.9502 12.0578H27.5089C27.4069 12.0578 27.315 12.0988 27.2468 12.1645C27.2452 12.1661 27.2434 12.1672 27.2423 12.1688C27.2401 12.171 27.2383 12.1733 27.2365 12.1755C27.1691 12.2454 27.1314 12.3388 27.1314 12.4359V20.8954C27.1313 20.9463 27.1416 20.9967 27.1617 21.0435C27.1817 21.0903 27.211 21.1325 27.2479 21.1676C27.3179 21.2353 27.4115 21.2732 27.5089 21.2732H32.9502C33.0504 21.273 33.1463 21.2331 33.2171 21.1622C33.2878 21.0914 33.3276 20.9953 33.3276 20.8952V19.5329C33.3276 19.4327 33.2878 19.3367 33.2171 19.2658C33.1463 19.1949 33.0504 19.155 32.9502 19.1548H29.2499V17.7246H32.9502C33.1589 17.7246 33.3276 17.5552 33.3276 17.3465V15.9845C33.3277 15.8843 33.288 15.7881 33.2172 15.7171C33.1465 15.6461 33.0504 15.6062 32.9502 15.606H29.2499V14.1764L32.9502 14.1762Z" fill="white"/>
</svg>
