<svg width="30" height="31" viewBox="0 0 30 31" fill="none" xmlns="http://www.w3.org/2000/svg">
<g clip-path="url(#clip0_6502_1744)">
<path d="M2.25684 4.21191H27.1082V28.042H2.25684V4.21191Z" fill="white"/>
<path d="M0.0300293 2.6494C0.0300293 1.46265 1.02081 0.5 2.24246 0.5H27.7576C28.9792 0.5 29.97 1.46265 29.97 2.6494V28.3518C29.97 29.5386 28.9792 30.5 27.7576 30.5H2.24246C1.02081 30.5 0.0300293 29.5386 0.0300293 28.3518V2.6494Z" fill="#0A66C2"/>
<path d="M9.12852 25.6062V12.1002H4.64834V25.6062H9.12852ZM6.88963 10.2568C8.45156 10.2568 9.42431 9.21948 9.42431 7.92309C9.39545 6.59779 8.45156 5.58936 6.91969 5.58936C5.38662 5.58936 4.38501 6.59779 4.38501 7.92309C4.38501 9.21948 5.35656 10.2568 6.86077 10.2568H6.88963ZM11.6079 25.6062H16.0881V18.0641C16.0881 17.6604 16.1169 17.2568 16.236 16.9689C16.5594 16.1616 17.2965 15.3267 18.535 15.3267C20.1558 15.3267 20.8039 16.5653 20.8039 18.3809V25.605H25.2841V17.8616C25.2841 13.7135 23.0741 11.7833 20.127 11.7833C17.7101 11.7833 16.6496 13.1363 16.0592 14.058H16.0893V12.1002H11.6079C11.6668 13.3677 11.6079 25.6062 11.6079 25.6062Z" fill="white"/>
</g>
<defs>
<clipPath id="clip0_6502_1744">
<rect width="30" height="30" fill="white" transform="translate(0 0.5)"/>
</clipPath>
</defs>
</svg>
