<svg width="24" height="27" viewBox="0 0 24 27" fill="none" xmlns="http://www.w3.org/2000/svg">
<path d="M6 11.4032V9.30644C6 5.83627 7 3.01611 12 3.01611C17 3.01611 18 5.83627 18 9.30644V11.4032" stroke="#CDD4D9" stroke-width="1.5" stroke-linecap="round" stroke-linejoin="round"/>
<path d="M12 20.3147C13.3807 20.3147 14.5 19.1412 14.5 17.6937C14.5 16.2462 13.3807 15.0728 12 15.0728C10.6193 15.0728 9.5 16.2462 9.5 17.6937C9.5 19.1412 10.6193 20.3147 12 20.3147Z" stroke="#CDD4D9" stroke-width="1.5" stroke-linecap="round" stroke-linejoin="round"/>
<path d="M17 23.984H7C3 23.984 2 22.9356 2 18.742V16.6453C2 12.4517 3 11.4033 7 11.4033H17C21 11.4033 22 12.4517 22 16.6453V18.742C22 22.9356 21 23.984 17 23.984Z" stroke="#CDD4D9" stroke-width="1.5" stroke-linecap="round" stroke-linejoin="round"/>
</svg>
