<svg width="48" height="49" viewBox="0 0 48 49" fill="none" xmlns="http://www.w3.org/2000/svg">
<circle cx="24" cy="24.7607" r="24" fill="#0070DD" fill-opacity="0.1"/>
<path d="M30 15.7607C31.0609 15.7607 32.0783 16.1822 32.8284 16.9323C33.5786 17.6825 34 18.6999 34 19.7607V27.7607C34 28.8216 33.5786 29.839 32.8284 30.5892C32.0783 31.3393 31.0609 31.7607 30 31.7607H25.276L20.514 34.6177C20.3706 34.7038 20.2079 34.7525 20.0408 34.7594C19.8737 34.7664 19.7075 34.7312 19.5575 34.6573C19.4074 34.5834 19.2783 34.473 19.182 34.3363C19.0857 34.1996 19.0251 34.0409 19.006 33.8747L19 33.7607V31.7607H18C16.9738 31.7607 15.9868 31.3663 15.2432 30.659C14.4996 29.9517 14.0563 28.9857 14.005 27.9607L14 27.7607V19.7607C14 18.6999 14.4214 17.6825 15.1716 16.9323C15.9217 16.1822 16.9391 15.7607 18 15.7607H30ZM26 24.7607H20C19.7348 24.7607 19.4804 24.8661 19.2929 25.0536C19.1054 25.2412 19 25.4955 19 25.7607C19 26.026 19.1054 26.2803 19.2929 26.4678C19.4804 26.6554 19.7348 26.7607 20 26.7607H26C26.2652 26.7607 26.5196 26.6554 26.7071 26.4678C26.8946 26.2803 27 26.026 27 25.7607C27 25.4955 26.8946 25.2412 26.7071 25.0536C26.5196 24.8661 26.2652 24.7607 26 24.7607ZM28 20.7607H20C19.7348 20.7607 19.4804 20.8661 19.2929 21.0536C19.1054 21.2412 19 21.4955 19 21.7607C19 22.026 19.1054 22.2803 19.2929 22.4678C19.4804 22.6554 19.7348 22.7607 20 22.7607H28C28.2652 22.7607 28.5196 22.6554 28.7071 22.4678C28.8946 22.2803 29 22.026 29 21.7607C29 21.4955 28.8946 21.2412 28.7071 21.0536C28.5196 20.8661 28.2652 20.7607 28 20.7607Z" fill="#0070DD"/>
</svg>
