<svg width="19" height="18" viewBox="0 0 19 18" fill="none" xmlns="http://www.w3.org/2000/svg">
<path d="M13.3157 11H12.4842L12.1894 10.73C13.221 9.59 13.842 8.11 13.842 6.5C13.842 2.91 10.7789 0 6.99994 0C3.221 0 0.157837 2.91 0.157837 6.5C0.157837 10.09 3.221 13 6.99994 13C8.69468 13 10.2526 12.41 11.4526 11.43L11.7368 11.71V12.5L16.9999 17.49L18.5684 16L13.3157 11ZM6.99994 11C4.37889 11 2.2631 8.99 2.2631 6.5C2.2631 4.01 4.37889 2 6.99994 2C9.621 2 11.7368 4.01 11.7368 6.5C11.7368 8.99 9.621 11 6.99994 11Z" fill="#A5ABB3"/>
</svg>
