<svg width="59" height="60" viewBox="0 0 59 60" fill="none" xmlns="http://www.w3.org/2000/svg">
<path d="M14.75 32.2083C7.96504 32.2083 2.45837 37.6904 2.45837 44.5C2.45837 51.3096 7.96504 56.7917 14.75 56.7917C21.535 56.7917 27.0417 51.285 27.0417 44.5C27.0417 37.715 21.5596 32.2083 14.75 32.2083ZM9.73504 39.485H14.75C15.6842 39.485 16.4217 40.2471 16.4217 41.1567C16.4217 42.0662 15.6842 42.8283 14.75 42.8283H9.73504C8.80087 42.8283 8.06337 42.0662 8.06337 41.1567C8.06337 40.2471 8.80087 39.485 9.73504 39.485ZM19.765 49.515H9.73504C8.80087 49.515 8.06337 48.7529 8.06337 47.8433C8.06337 46.9337 8.82546 46.1717 9.73504 46.1717H19.7896C20.7238 46.1717 21.4613 46.9337 21.4613 47.8433C21.4613 48.7529 20.6992 49.515 19.765 49.515Z" fill="url(#paint0_linear_6010_551)"/>
<path d="M41.7916 7.625H17.2083C9.83329 7.625 4.91663 11.3125 4.91663 19.9167V27.6358C4.91663 29.4304 6.76038 30.5612 8.40746 29.8483C11.1116 28.6683 14.1845 28.2258 17.405 28.7421C23.8458 29.7992 29.1066 34.8879 30.4095 41.2796C30.7783 43.1479 30.8275 44.9671 30.5816 46.7125C30.385 48.1629 31.565 49.4412 33.0154 49.4412H41.7916C49.1666 49.4412 54.0833 45.7537 54.0833 37.1496V19.9167C54.0833 11.3125 49.1666 7.625 41.7916 7.625ZM42.947 21.3671L35.2525 27.5129C33.63 28.8158 31.565 29.455 29.5 29.455C27.435 29.455 25.3454 28.8158 23.7475 27.5129L16.0529 21.3671C15.2662 20.7279 15.1433 19.5479 15.7579 18.7613C16.397 17.9746 17.5525 17.8271 18.3391 18.4662L26.0337 24.6121C27.902 26.1117 31.0733 26.1117 32.9416 24.6121L40.6362 18.4662C41.4229 17.8271 42.6029 17.95 43.2175 18.7613C43.8566 19.5479 43.7337 20.7279 42.947 21.3671Z" fill="url(#paint1_linear_6010_551)"/>
<defs>
<linearGradient id="paint0_linear_6010_551" x1="2.50006" y1="-12.5448" x2="37.4344" y2="81.7678" gradientUnits="userSpaceOnUse">
<stop stop-color="#97C1FC"/>
<stop offset="0.5" stop-color="#0062F9"/>
<stop offset="1" stop-color="#002A66"/>
</linearGradient>
<linearGradient id="paint1_linear_6010_551" x1="5" y1="-68.5" x2="57.2847" y2="97.4652" gradientUnits="userSpaceOnUse">
<stop stop-color="#97C1FC"/>
<stop offset="0.5" stop-color="#0062F9"/>
<stop offset="1" stop-color="#002A66"/>
</linearGradient>
</defs>
</svg>
