<svg width="32" height="32" viewBox="0 0 32 32" fill="none" xmlns="http://www.w3.org/2000/svg">
<path d="M21.5865 2.6665H10.4132C5.55984 2.6665 2.6665 5.55984 2.6665 10.4132V21.5732C2.6665 26.4398 5.55984 29.3332 10.4132 29.3332H21.5732C26.4265 29.3332 29.3198 26.4398 29.3198 21.5865V10.4132C29.3332 5.55984 26.4398 2.6665 21.5865 2.6665ZM8.99984 18.8532C8.99984 19.3998 8.5465 19.8532 7.99984 19.8532C7.45317 19.8532 6.99984 19.3998 6.99984 18.8532V13.1465C6.99984 12.5998 7.45317 12.1465 7.99984 12.1465C8.5465 12.1465 8.99984 12.5998 8.99984 13.1465V18.8532ZM12.9998 20.7598C12.9998 21.3065 12.5465 21.7598 11.9998 21.7598C11.4532 21.7598 10.9998 21.3065 10.9998 20.7598V11.2398C10.9998 10.6932 11.4532 10.2398 11.9998 10.2398C12.5465 10.2398 12.9998 10.6932 12.9998 11.2398V20.7598ZM16.9998 22.6665C16.9998 23.2132 16.5465 23.6665 15.9998 23.6665C15.4532 23.6665 14.9998 23.2132 14.9998 22.6665V9.33317C14.9998 8.7865 15.4532 8.33317 15.9998 8.33317C16.5465 8.33317 16.9998 8.7865 16.9998 9.33317V22.6665ZM20.9998 20.7598C20.9998 21.3065 20.5465 21.7598 19.9998 21.7598C19.4532 21.7598 18.9998 21.3065 18.9998 20.7598V11.2398C18.9998 10.6932 19.4532 10.2398 19.9998 10.2398C20.5465 10.2398 20.9998 10.6932 20.9998 11.2398V20.7598ZM24.9998 18.8532C24.9998 19.3998 24.5465 19.8532 23.9998 19.8532C23.4532 19.8532 22.9998 19.3998 22.9998 18.8532V13.1465C22.9998 12.5998 23.4532 12.1465 23.9998 12.1465C24.5465 12.1465 24.9998 12.5998 24.9998 13.1465V18.8532Z" fill="#0064FF"/>
</svg>
