<svg width="153" height="307" viewBox="0 0 153 307" fill="none" xmlns="http://www.w3.org/2000/svg">
<g opacity="0.5">
<path d="M133.747 88.5882C133.943 89.0124 134.158 89.4791 134.373 89.9457C130.973 91.0516 127.507 92.2392 124.1 93.5539C127.292 91.7725 130.542 90.1183 133.747 88.5882Z" fill="url(#paint0_linear_5667_8379)"/>
<path d="M131.238 85.9382C131.956 86.3788 132.566 86.9206 133.068 87.5635C130.379 89.3188 126.731 91.6713 124.1 93.5539C126.241 91.2796 129.035 88.1896 131.257 85.9806" fill="url(#paint1_linear_5667_8379)"/>
<path d="M127.642 84.6126C128.536 84.766 129.365 85.0011 130.148 85.3602C128.101 87.951 126.071 90.6886 124.1 93.5535C125.167 90.8484 126.555 87.2753 127.661 84.655" fill="url(#paint2_linear_5667_8379)"/>
<path d="M123.478 84.733C124.466 84.534 125.41 84.459 126.307 84.5081C125.657 87.2263 124.707 90.855 124.1 93.5536C123.911 90.9136 123.624 87.3925 123.478 84.733Z" fill="url(#paint3_linear_5667_8379)"/>
<path d="M119.245 86.3774C119.885 85.9794 120.606 85.6466 121.389 85.3366C121.602 85.2388 121.814 85.1409 122.045 85.0855C122.672 87.781 123.357 90.6037 124.081 93.5113C122.404 90.9919 120.785 88.5998 119.268 86.3154" fill="url(#paint4_linear_5667_8379)"/>
<path d="M116.001 89.1603C116.589 88.4261 117.278 87.7996 118.028 87.196C119.973 89.1802 121.996 91.3342 124.058 93.5729C121.284 92.0226 118.592 90.5376 115.979 89.2222" fill="url(#paint5_linear_5667_8379)"/>
<path d="M114.115 92.6549C114.35 91.8261 114.752 91.0234 115.235 90.286C118.11 91.275 121.086 92.3718 124.101 93.5534C120.684 93.1745 117.349 92.8608 114.115 92.6549Z" fill="url(#paint6_linear_5667_8379)"/>
<path d="M113.769 96.3655C113.648 95.5465 113.674 94.7111 113.805 93.879C116.902 93.788 121.027 93.5828 124.101 93.5537C120.583 94.4051 117.124 95.3836 113.789 96.4079" fill="url(#paint7_linear_5667_8379)"/>
<path d="M115.208 99.8177C114.725 99.2173 114.35 98.5156 114.083 97.7128C114.083 97.7128 114.063 97.6704 114.044 97.628C117.072 96.385 121.034 94.7114 124.101 93.5533C121.069 95.5697 118.077 97.6708 115.208 99.8177Z" fill="url(#paint8_linear_5667_8379)"/>
<path d="M118.021 102.122C117.28 101.743 116.604 101.283 115.975 100.699C118.602 98.2519 121.31 95.8701 124.101 93.5535C122.005 96.3727 119.972 99.2147 118.021 102.122Z" fill="url(#paint9_linear_5667_8379)"/>
<path d="M121.772 103.118C120.875 103.069 119.961 102.873 119.175 102.618C120.755 99.5739 122.396 96.5524 124.1 93.5537C123.405 96.3959 122.448 100.233 121.772 103.118Z" fill="url(#paint10_linear_5667_8379)"/>
<path d="M126.032 102.645C125.082 102.929 124.074 103.085 123.173 103.141C123.422 99.8871 123.752 96.6991 124.101 93.5533C124.685 96.2684 125.448 99.9297 126.032 102.645Z" fill="url(#paint11_linear_5667_8379)"/>
<path d="M130.108 100.661C129.295 101.242 128.443 101.738 127.491 102.126C126.349 99.2055 125.246 96.3698 124.101 93.5535C125.895 95.6585 128.294 98.514 130.108 100.661Z" fill="url(#paint12_linear_5667_8379)"/>
<path d="M133.044 97.6596C132.519 98.4167 131.912 99.1085 131.181 99.7545C128.802 97.6103 126.42 95.5706 124.1 93.5537C127.07 94.8593 130.059 96.2072 133.044 97.6596Z" fill="url(#paint13_linear_5667_8379)"/>
<path d="M134.578 94.0703C134.405 94.922 134.108 95.7279 133.707 96.5307C130.499 95.4894 127.311 94.4906 124.1 93.5537C127.588 93.6422 131.116 93.8154 134.578 94.0703Z" fill="url(#paint14_linear_5667_8379)"/>
<path d="M134.507 90.3468C134.732 91.1692 134.811 92.0078 134.784 92.8432C131.247 92.9832 127.664 93.2472 124.163 93.5764C127.628 92.3889 131.11 91.3483 134.569 90.3697" fill="url(#paint15_linear_5667_8379)"/>
<path d="M159.909 78.266C161.465 81.3042 161.485 81.3466 162.098 83.1219C156.215 84.0872 150.236 85.405 144.228 86.9936C143.902 86.0636 143.491 85.1726 143.015 84.3633C148.67 82.0111 154.316 79.9721 159.847 78.2432" fill="url(#paint16_linear_5667_8379)"/>
<path d="M150.878 68.9514C153.358 70.5343 155.596 72.4859 157.449 74.7181C152.257 76.9595 147.013 79.5337 141.717 82.4407C140.689 81.2169 139.488 80.1758 138.157 79.2978C142.396 75.4379 146.622 71.9956 150.858 68.909" fill="url(#paint17_linear_5667_8379)"/>
<path d="M138.067 64.1598C141.229 64.6561 144.231 65.5865 147.015 66.8235C143.376 70.2006 139.724 73.9953 136.082 78.1457C134.578 77.4505 132.962 76.9609 131.256 76.7193C133.469 72.1477 135.753 67.9547 138.067 64.1598Z" fill="url(#paint18_linear_5667_8379)"/>
<path d="M123.108 64.5271C126.538 63.8194 129.974 63.5717 133.273 63.696C131.648 67.5334 130.071 71.8114 128.628 76.4907C126.853 76.435 125.009 76.5653 123.117 76.9241C122.987 72.4045 122.971 68.2439 123.108 64.5271Z" fill="url(#paint19_linear_5667_8379)"/>
<path d="M108.081 70.4315C110.447 68.9796 113.015 67.7432 115.681 66.7188C116.464 66.4088 117.225 66.1609 118.028 65.8934C118.67 69.4046 119.466 73.3598 120.376 77.6738C119.975 77.8076 119.531 77.9609 119.129 78.0947C117.69 78.6558 116.31 79.3442 115.011 80.0979C112.531 76.5081 110.208 73.2577 108.123 70.412" fill="url(#paint20_linear_5667_8379)"/>
<path d="M96.4787 80.4163C98.587 77.8483 101.044 75.4795 103.809 73.3293C106.533 75.777 109.499 78.5249 112.661 81.6971C111.183 82.8424 109.825 84.1377 108.715 85.5245C104.388 83.5074 100.303 81.7905 96.4787 80.4163Z" fill="url(#paint21_linear_5667_8379)"/>
<path d="M89.5862 92.9103C90.536 89.9506 91.9004 87.1084 93.6172 84.361C97.856 85.1837 102.379 86.2872 107.143 87.6908C106.177 89.1657 105.459 90.7319 104.949 92.3048C99.5162 92.239 94.4092 92.4343 89.5862 92.9103Z" fill="url(#paint22_linear_5667_8379)"/>
<path d="M88.3744 106.231C87.9244 103.248 88.0192 100.22 88.509 97.2667C93.4986 96.1479 98.7722 95.3097 104.352 94.6903C104.072 96.3121 104.062 97.9633 104.283 99.559C98.6801 101.578 93.3412 103.836 88.3515 106.293" fill="url(#paint23_linear_5667_8379)"/>
<path d="M93.4467 118.452C91.7403 116.204 90.4188 113.675 89.5021 110.907C89.4434 110.78 89.4042 110.695 89.3455 110.568C94.208 107.501 99.3577 104.61 104.837 101.876C104.857 101.919 104.896 102.003 104.915 102.046C105.411 103.567 106.142 104.927 107.065 106.148C102.258 110.115 97.7187 114.217 93.4467 118.452Z" fill="url(#paint24_linear_5667_8379)"/>
<path d="M103.556 126.755C100.88 125.417 98.4034 123.729 96.2923 121.719C100.14 117.01 104.236 112.393 108.576 107.972C109.712 109.095 111.043 109.973 112.525 110.73C109.287 115.98 106.317 121.364 103.533 126.817" fill="url(#paint25_linear_5667_8379)"/>
<path d="M117.075 130.293C113.779 130.065 110.663 129.444 107.726 128.432C109.871 122.709 112.221 117.096 114.799 111.533C116.392 112.084 118.075 112.388 119.847 112.548C118.767 118.347 117.807 124.296 117.056 130.251" fill="url(#paint26_linear_5667_8379)"/>
<path d="M132.284 128.575C128.802 129.616 125.356 130.177 121.985 130.343C122.048 124.345 122.192 118.413 122.542 112.591C124.363 112.523 126.256 112.164 128.132 111.659C129.463 117.219 130.833 122.865 132.304 128.618" fill="url(#paint27_linear_5667_8379)"/>
<path d="M146.764 121.482C143.899 123.524 140.77 125.329 137.402 126.728C135.19 121.265 132.975 115.907 130.903 110.637C132.747 109.837 134.427 108.908 135.968 107.785C139.55 112.204 143.169 116.812 146.764 121.482Z" fill="url(#paint28_linear_5667_8379)"/>
<path d="M157.303 110.754C155.462 113.455 153.272 115.958 150.733 118.262C146.537 114.074 142.318 109.949 138.092 106.033C139.47 104.78 140.641 103.416 141.669 101.964C146.893 104.699 152.153 107.624 157.303 110.754Z" fill="url(#paint29_linear_5667_8379)"/>
<path d="M162.848 97.9037C162.211 100.873 161.157 103.83 159.688 106.668C154.164 104.175 148.571 101.867 142.929 99.7879C143.709 98.2445 144.303 96.6325 144.646 95.0335C150.748 95.7683 156.844 96.712 162.848 97.9037Z" fill="url(#paint30_linear_5667_8379)"/>
<path d="M162.556 84.5572C163.342 87.4876 163.645 90.4865 163.446 93.5115C157.38 92.9659 151.222 92.6684 144.992 92.6612C145.064 91.0329 144.927 89.398 144.516 87.8381C150.58 86.4812 156.613 85.3952 162.575 84.5996" fill="url(#paint31_linear_5667_8379)"/>
<path d="M149.144 49.5811C154.323 50.4333 159.273 51.9055 163.828 53.9716C160.291 56.1184 156.636 58.6797 153.01 61.6391C149.567 60.0887 145.861 58.9691 141.971 58.3454C144.334 54.9911 146.746 52.0772 149.144 49.5811Z" fill="url(#paint32_linear_5667_8379)"/>
<path d="M124.562 50.1688C130.263 49.0305 135.859 48.5578 141.267 48.7901C139.452 51.3254 137.706 54.3438 136.031 57.7406C131.939 57.5705 127.727 57.9192 123.435 58.7672C123.684 55.5138 124.089 52.5998 124.562 50.1688Z" fill="url(#paint33_linear_5667_8379)"/>
<path d="M99.842 59.8258C103.742 57.4604 107.903 55.4377 112.367 53.738C113.636 53.2551 114.925 52.8147 116.172 52.3939C116.351 54.6781 116.664 57.3638 117.111 60.4508C116.161 60.7346 115.189 61.0804 114.236 61.4687C110.914 62.7443 107.771 64.2973 104.831 66.0657C102.984 63.6246 101.314 61.5654 99.904 59.8488" fill="url(#paint34_linear_5667_8379)"/>
<path d="M80.7831 76.2866C84.2393 72.0676 88.2502 68.1586 92.8125 64.6641C94.7997 65.9598 97.0251 67.6602 99.5115 69.7032C96.0848 72.3134 93.066 75.25 90.478 78.451C86.9571 77.3999 83.7396 76.6719 80.8256 76.267" fill="url(#paint35_linear_5667_8379)"/>
<path d="M69.5232 96.713C71.0542 91.8901 73.2932 87.1522 76.1718 82.6851C79.4774 82.6006 83.067 82.7967 86.9829 83.254C84.8288 86.6149 83.1283 90.1782 81.989 93.8427C77.5347 94.5601 73.3446 95.5157 69.5657 96.6934" fill="url(#paint36_linear_5667_8379)"/>
<path d="M67.5171 118.685C66.8127 113.813 66.9275 108.82 67.7699 103.954C71.6925 102.196 76.0261 100.659 80.647 99.2991C80.0299 102.98 79.9121 106.739 80.4665 110.394C75.8063 113.007 71.4757 115.777 67.5596 118.665" fill="url(#paint37_linear_5667_8379)"/>
<path d="M75.8562 138.764C73.0861 135.102 70.8544 130.935 69.3244 126.392C69.2461 126.223 69.1484 126.011 69.1549 125.802C72.9634 122.346 77.1667 118.966 81.6572 115.762C81.716 115.889 81.7747 116.017 81.8105 116.206C82.936 119.649 84.636 122.775 86.7241 125.516C82.8046 129.846 79.1329 134.267 75.8562 138.764Z" fill="url(#paint38_linear_5667_8379)"/>
<path d="M92.4481 152.308C88.0234 150.079 83.9707 147.318 80.5414 144.012C83.4755 139.108 86.7425 134.256 90.2575 129.495C92.8547 132.001 95.8827 134.103 99.2176 135.755C96.7239 141.279 94.4392 146.81 92.4481 152.308Z" fill="url(#paint39_linear_5667_8379)"/>
<path d="M114.612 158.187C109.25 157.831 104.078 156.77 99.278 155.177C100.734 149.411 102.441 143.632 104.377 137.902C107.976 139.122 111.882 139.893 115.928 140.187C115.344 146.168 114.903 152.238 114.612 158.187Z" fill="url(#paint40_linear_5667_8379)"/>
<path d="M139.641 155.334C133.924 156.994 128.249 157.966 122.701 158.21C122.346 152.2 122.138 146.172 122.034 140.149C126.201 139.924 130.509 139.223 134.813 137.957C136.389 143.713 137.984 149.512 139.664 155.272" fill="url(#paint41_linear_5667_8379)"/>
<path d="M163.398 143.703C158.735 147.09 153.585 149.98 147.992 152.356C145.656 146.847 143.343 141.277 141.069 135.791C145.285 134 149.159 131.801 152.667 129.256C156.259 134.03 159.829 138.867 163.398 143.703Z" fill="url(#paint42_linear_5667_8379)"/>
<path d="M160.321 41.1304C167.226 42.2667 173.791 44.2285 179.831 46.9474C176.522 47.8053 173.096 49.0776 169.614 50.7872C164.524 48.4535 158.973 46.7952 153.129 45.8385C155.534 43.8025 157.945 42.2267 160.364 41.1109" fill="url(#paint43_linear_5667_8379)"/>
<path d="M127.705 41.9267C135.236 40.4068 142.719 39.7843 149.944 40.0526C148.067 41.2272 146.155 42.8815 144.334 44.9567C138.258 44.7244 131.907 45.2361 125.554 46.5212C126.18 44.5339 126.918 43.01 127.747 41.9071" fill="url(#paint44_linear_5667_8379)"/>
<path d="M94.8365 54.7774C100.035 51.6583 105.557 48.9047 111.46 46.6439C113.173 46.0078 114.844 45.3911 116.554 44.8594C116.274 45.8122 116.104 47.2284 116.11 49.0265C114.674 49.4832 113.258 49.9823 111.819 50.5435C106.826 52.4356 102.133 54.7553 97.7439 57.3981C96.5497 56.1482 95.574 55.2605 94.879 54.7579" fill="url(#paint45_linear_5667_8379)"/>
<path d="M69.4632 76.6213C74.029 71.0156 79.3974 65.8112 85.4381 61.1715C86.6031 61.3544 88.0487 61.9224 89.7552 62.833C84.6577 66.7288 80.1083 71.1435 76.2376 75.9139C73.6466 75.8745 71.382 76.0962 69.4207 76.6409" fill="url(#paint46_linear_5667_8379)"/>
<path d="M54.4788 103.81C56.4994 97.3714 59.5184 91.09 63.301 85.1252C65.5267 84.1497 68.0982 83.4777 71.0579 83.0897C67.8268 88.1311 65.3398 93.4466 63.5804 98.8895C60.1702 100.309 57.1287 101.969 54.4788 103.81Z" fill="url(#paint47_linear_5667_8379)"/>
<path d="M51.7874 132.992C50.8612 126.524 51.0055 119.923 52.1091 113.393C54.857 111.096 58.0389 108.959 61.5503 106.978C60.6034 112.51 60.4919 118.067 61.281 123.569C57.7369 126.593 54.5223 129.775 51.745 133.011" fill="url(#paint48_linear_5667_8379)"/>
<path d="M62.8668 159.68C59.1733 154.798 56.2304 149.312 54.2046 143.249C54.0871 142.994 54.0316 142.762 53.9566 142.488C56.623 138.788 59.6843 135.163 63.1404 131.613C63.2383 131.825 63.2936 132.057 63.3491 132.288C65.0487 137.422 67.5578 142.079 70.6901 146.19C67.7266 150.697 65.1384 155.236 62.8863 159.722" fill="url(#paint49_linear_5667_8379)"/>
<path d="M84.9824 177.725C79.0958 174.781 73.7347 171.08 69.1275 166.671C71.0565 161.819 73.3837 156.937 75.9622 152.042C79.8385 155.76 84.3806 158.912 89.3828 161.39C87.643 166.875 86.1544 172.347 84.9824 177.725Z" fill="url(#paint50_linear_5667_8379)"/>
<path d="M114.465 185.527C107.332 185.01 100.476 183.646 94.0833 181.501C94.8638 175.944 95.8564 170.289 97.0807 164.578C102.501 166.4 108.277 167.542 114.346 167.984C114.244 173.896 114.289 179.793 114.508 185.507" fill="url(#paint51_linear_5667_8379)"/>
<path d="M147.718 181.761C140.144 183.969 132.557 185.257 125.208 185.612C124.51 179.862 123.92 174.011 123.395 168.079C129.635 167.773 136.044 166.719 142.479 164.83C144.201 170.571 145.989 176.229 147.738 181.803" fill="url(#paint52_linear_5667_8379)"/>
<path d="M179.33 166.299C173.126 170.809 166.273 174.691 158.858 177.804C156.539 172.442 154.222 166.976 151.887 161.467C158.178 158.821 163.968 155.533 169.209 151.725C172.693 156.601 176.073 161.473 179.372 166.28" fill="url(#paint53_linear_5667_8379)"/>
<path d="M130.463 39.9849L131.873 39.6946C141.914 38.1489 142.103 38.113 147.484 37.8427C150.558 37.8136 154.679 37.7129 157.75 37.7882C156.184 37.7391 154.588 37.9608 153.044 38.5187C145.298 38.234 137.25 38.8598 129.151 40.4873C129.598 40.2296 130.022 40.0338 130.443 39.9425" fill="url(#paint54_linear_5667_8379)"/>
<path d="M93.4695 54.3788L97.9827 51.7817C104.085 48.7258 108.752 46.5725 111.983 45.3219L117.69 43.3058C117.69 43.3058 117.308 43.482 117.135 43.6647C115.298 44.2551 113.48 44.888 111.702 45.6058C105.355 48.0199 99.4088 50.9693 93.8479 54.307C93.6815 54.2809 93.5967 54.3201 93.4695 54.3788Z" fill="url(#paint55_linear_5667_8379)"/>
<path d="M63.8134 80.1031C66.6331 76.8466 70.5494 72.6212 73.5714 69.5801C76.303 67.1363 80.0201 63.9289 82.8724 61.6351C83.1302 61.4132 83.4272 61.2762 83.7633 61.224C77.2723 66.2259 71.5154 71.8152 66.6232 77.8289C65.5169 78.4422 64.5934 79.2286 63.8329 80.1455" fill="url(#paint56_linear_5667_8379)"/>
<path d="M45.073 113.758C47.2078 107.01 50.2172 100.373 54.0326 94.0327L55.7721 91.2233C56.8067 89.5624 58.2101 88.143 59.9397 86.9847C55.8502 93.3998 52.6711 100.115 50.4678 107.049C48.2714 109.092 46.4438 111.376 45.0926 113.8" fill="url(#paint57_linear_5667_8379)"/>
<path d="M41.9144 148.508C40.8187 140.781 40.9598 132.946 42.3116 125.169C43.777 122.435 45.6569 119.818 47.9511 117.319C46.7692 124.347 46.589 131.429 47.5836 138.379C45.2631 141.714 43.3603 145.062 41.9144 148.508Z" fill="url(#paint58_linear_5667_8379)"/>
<path d="M55.1338 180.28C50.7584 174.478 47.2217 167.928 44.8141 160.703C44.6771 160.406 44.625 160.07 44.5076 159.815C45.8785 156.096 47.6899 152.327 49.9387 148.613C50.0561 148.868 50.1311 149.142 50.2061 149.416C52.3853 155.923 55.5435 161.876 59.498 167.101C57.6441 171.558 56.1883 175.986 55.0915 180.3" fill="url(#paint59_linear_5667_8379)"/>
<path d="M81.4266 201.8C74.4078 198.298 68.045 193.876 62.5437 188.644C63.4187 184.073 64.6527 179.387 66.2032 174.606C71.1759 179.361 76.9057 183.304 83.2458 186.45C82.3708 191.691 81.7502 196.814 81.4071 201.758" fill="url(#paint60_linear_5667_8379)"/>
<path d="M116.508 211.032C107.998 210.431 99.8528 208.838 92.2204 206.236C92.2535 201.178 92.502 195.918 92.9855 190.498C99.874 192.825 107.229 194.268 114.904 194.843C115.272 200.437 115.814 205.847 116.466 211.052" fill="url(#paint61_linear_5667_8379)"/>
<path d="M156.075 206.566C147.046 209.188 138.029 210.725 129.235 211.181C128.165 205.963 127.248 200.519 126.378 194.952C134.314 194.532 142.446 193.198 150.611 190.82C152.428 196.208 154.248 201.491 156.033 206.585" fill="url(#paint62_linear_5667_8379)"/>
<path d="M43.0689 118.336L43.7643 116.163C43.5587 116.721 43.3726 117.321 43.167 117.879L43.007 118.313" fill="url(#paint63_linear_5667_8379)"/>
<path d="M38.5052 164.54C37.9378 160.634 37.6837 156.737 37.6808 152.828L37.8511 146.729C38.2006 142.915 38.7168 137.788 39.3176 133.96L40.3263 129.79C38.9223 137.899 38.7486 146.109 39.9389 154.153C38.9955 157.573 38.4893 161.048 38.5052 164.54Z" fill="url(#paint64_linear_5667_8379)"/>
<path d="M53.0659 199.552C48.2076 193.149 44.3578 185.921 41.7023 177.935C41.5457 177.596 41.4935 177.26 41.3793 176.901C41.3471 173.262 41.7553 169.575 42.6661 165.862C42.8031 166.159 42.8553 166.495 42.9499 166.811C45.452 174.353 49.1258 181.199 53.7231 187.26C53.0896 191.463 52.877 195.574 53.0659 199.552Z" fill="url(#paint65_linear_5667_8379)"/>
<path d="M82.0898 223.312C74.3498 219.474 67.3115 214.591 61.2425 208.798C60.9101 204.732 61.0018 200.471 61.433 196.052C67.1561 201.542 73.8062 206.14 81.135 209.756C81.1541 214.482 81.4506 219.027 82.0473 223.332" fill="url(#paint66_linear_5667_8379)"/>
<path d="M120.801 233.493C111.435 232.823 102.439 231.057 94.0198 228.201C93.2567 223.87 92.7122 219.233 92.4255 214.374C100.348 217.048 108.908 218.758 117.774 219.35C118.622 224.31 119.623 229.045 120.781 233.451" fill="url(#paint67_linear_5667_8379)"/>
<path d="M164.437 228.59C154.457 231.496 144.518 233.149 134.822 233.661C133.456 229.249 132.203 224.527 131.042 219.557C140.192 219.091 149.606 217.526 159.037 214.769C160.871 219.635 162.649 224.269 164.394 228.609" fill="url(#paint68_linear_5667_8379)"/>
<path d="M57.2348 216.616C54.1645 212.527 51.4599 208.115 49.2022 203.445C47.4274 199.375 45.173 193.932 43.6723 189.788L43.1764 188.267C42.6251 186.515 42.2011 184.704 41.8815 182.896C42.0381 183.235 42.0902 183.571 42.2044 183.93C44.9186 192.043 48.8468 199.441 53.8063 205.952C54.5042 209.694 55.646 213.284 57.2348 216.616Z" fill="url(#paint69_linear_5667_8379)"/>
<path d="M87.2603 241.097C79.2528 237.124 71.9893 232.088 65.718 226.08C64.1096 222.706 62.9254 219.136 62.1687 215.266C68.3389 221.166 75.5207 226.137 83.4042 230.063C84.3665 234.044 85.6519 237.722 87.2603 241.097Z" fill="url(#paint70_linear_5667_8379)"/>
<path d="M127.234 251.674C117.555 250.994 108.226 249.176 99.559 246.228C97.9505 242.854 96.6032 239.153 95.5169 235.126C104.06 238.028 113.242 239.863 122.797 240.497C124.112 244.573 125.583 248.319 127.234 251.674Z" fill="url(#paint71_linear_5667_8379)"/>
<path d="M172.382 246.587C162.086 249.588 151.81 251.294 141.759 251.815C140.108 248.46 138.594 244.733 137.113 240.631C146.975 240.146 157.104 238.457 167.295 235.452C169.008 239.499 170.711 243.19 172.362 246.545" fill="url(#paint72_linear_5667_8379)"/>
<path d="M61.1927 223.074L58.3477 219.138C58.9676 220.036 59.6299 220.914 60.2922 221.791C60.5924 222.219 60.9122 222.689 61.2548 223.097" fill="url(#paint73_linear_5667_8379)"/>
<path d="M96.5764 253.367C91.101 250.645 85.9552 247.411 81.3054 243.69L75.9086 239.131L73.3896 236.794C71.6635 235.172 70.0908 233.325 68.691 231.295C74.9428 237.261 82.1443 242.274 90.1518 246.246C92.0703 249.066 94.2107 251.474 96.5959 253.409" fill="url(#paint74_linear_5667_8379)"/>
<path d="M135.368 263.614C125.96 262.963 116.944 261.155 108.525 258.299C106.326 256.432 104.267 254.089 102.411 251.292C111.058 254.197 120.345 256.035 129.981 256.734C131.691 259.547 133.502 261.799 135.368 263.614Z" fill="url(#paint75_linear_5667_8379)"/>
<path d="M179.089 258.671C169.11 261.578 159.128 263.251 149.432 263.762C147.775 261.954 146.111 259.686 144.463 256.896C154.429 256.414 164.686 254.666 174.939 251.684C176.44 254.491 177.83 256.834 179.109 258.714" fill="url(#paint76_linear_5667_8379)"/>
<path d="M101.637 256.641L97.6268 254.529C98.6547 255.084 99.6631 255.596 100.691 256.151C101.02 256.308 101.308 256.484 101.637 256.641Z" fill="url(#paint77_linear_5667_8379)"/>
<path d="M144.332 268.431L137.248 267.686C133.942 267.102 129.472 266.335 126.192 265.584C123.187 264.758 119.186 263.671 116.207 262.678C114.863 262.218 113.626 261.657 112.373 260.948C120.544 263.713 129.374 265.453 138.531 266.117C140.456 267.39 142.397 268.14 144.375 268.411" fill="url(#paint78_linear_5667_8379)"/>
<path d="M184.045 263.948C174.973 266.591 165.957 268.127 157.1 268.56C155.478 268.279 153.831 267.496 152.176 266.252C161.64 265.796 171.328 264.156 181.076 261.305C182.205 262.636 183.181 263.524 184.045 263.948Z" fill="url(#paint79_linear_5667_8379)"/>
</g>
<defs>
<linearGradient id="paint0_linear_5667_8379" x1="84.4554" y1="4.51187" x2="207.103" y2="243.22" gradientUnits="userSpaceOnUse">
<stop stop-color="#97C1FC"/>
<stop offset="0.5" stop-color="#0062F9"/>
<stop offset="1" stop-color="#002A66"/>
</linearGradient>
<linearGradient id="paint1_linear_5667_8379" x1="84.369" y1="4.54763" x2="207.041" y2="243.307" gradientUnits="userSpaceOnUse">
<stop stop-color="#97C1FC"/>
<stop offset="0.5" stop-color="#0062F9"/>
<stop offset="1" stop-color="#002A66"/>
</linearGradient>
<linearGradient id="paint2_linear_5667_8379" x1="83.6674" y1="4.92286" x2="206.319" y2="243.639" gradientUnits="userSpaceOnUse">
<stop stop-color="#97C1FC"/>
<stop offset="0.5" stop-color="#0062F9"/>
<stop offset="1" stop-color="#002A66"/>
</linearGradient>
<linearGradient id="paint3_linear_5667_8379" x1="82.3296" y1="5.59238" x2="205" y2="244.349" gradientUnits="userSpaceOnUse">
<stop stop-color="#97C1FC"/>
<stop offset="0.5" stop-color="#0062F9"/>
<stop offset="1" stop-color="#002A66"/>
</linearGradient>
<linearGradient id="paint4_linear_5667_8379" x1="80.0978" y1="6.77712" x2="202.748" y2="245.49" gradientUnits="userSpaceOnUse">
<stop stop-color="#97C1FC"/>
<stop offset="0.5" stop-color="#0062F9"/>
<stop offset="1" stop-color="#002A66"/>
</linearGradient>
<linearGradient id="paint5_linear_5667_8379" x1="77.3564" y1="8.1952" x2="199.966" y2="246.93" gradientUnits="userSpaceOnUse">
<stop stop-color="#97C1FC"/>
<stop offset="0.5" stop-color="#0062F9"/>
<stop offset="1" stop-color="#002A66"/>
</linearGradient>
<linearGradient id="paint6_linear_5667_8379" x1="75.8491" y1="8.94254" x2="198.501" y2="247.657" gradientUnits="userSpaceOnUse">
<stop stop-color="#97C1FC"/>
<stop offset="0.5" stop-color="#0062F9"/>
<stop offset="1" stop-color="#002A66"/>
</linearGradient>
<linearGradient id="paint7_linear_5667_8379" x1="74.9778" y1="9.39683" x2="197.629" y2="248.11" gradientUnits="userSpaceOnUse">
<stop stop-color="#97C1FC"/>
<stop offset="0.5" stop-color="#0062F9"/>
<stop offset="1" stop-color="#002A66"/>
</linearGradient>
<linearGradient id="paint8_linear_5667_8379" x1="74.7665" y1="9.4945" x2="197.417" y2="248.207" gradientUnits="userSpaceOnUse">
<stop stop-color="#97C1FC"/>
<stop offset="0.5" stop-color="#0062F9"/>
<stop offset="1" stop-color="#002A66"/>
</linearGradient>
<linearGradient id="paint9_linear_5667_8379" x1="74.9781" y1="9.39706" x2="197.628" y2="248.11" gradientUnits="userSpaceOnUse">
<stop stop-color="#97C1FC"/>
<stop offset="0.5" stop-color="#0062F9"/>
<stop offset="1" stop-color="#002A66"/>
</linearGradient>
<linearGradient id="paint10_linear_5667_8379" x1="75.8488" y1="8.94364" x2="198.499" y2="247.656" gradientUnits="userSpaceOnUse">
<stop stop-color="#97C1FC"/>
<stop offset="0.5" stop-color="#0062F9"/>
<stop offset="1" stop-color="#002A66"/>
</linearGradient>
<linearGradient id="paint11_linear_5667_8379" x1="77.3153" y1="8.21599" x2="199.965" y2="246.928" gradientUnits="userSpaceOnUse">
<stop stop-color="#97C1FC"/>
<stop offset="0.5" stop-color="#0062F9"/>
<stop offset="1" stop-color="#002A66"/>
</linearGradient>
<linearGradient id="paint12_linear_5667_8379" x1="80.1412" y1="6.75778" x2="202.791" y2="245.47" gradientUnits="userSpaceOnUse">
<stop stop-color="#97C1FC"/>
<stop offset="0.5" stop-color="#0062F9"/>
<stop offset="1" stop-color="#002A66"/>
</linearGradient>
<linearGradient id="paint13_linear_5667_8379" x1="82.3298" y1="5.59289" x2="205" y2="244.348" gradientUnits="userSpaceOnUse">
<stop stop-color="#97C1FC"/>
<stop offset="0.5" stop-color="#0062F9"/>
<stop offset="1" stop-color="#002A66"/>
</linearGradient>
<linearGradient id="paint14_linear_5667_8379" x1="83.6681" y1="4.92466" x2="206.318" y2="243.636" gradientUnits="userSpaceOnUse">
<stop stop-color="#97C1FC"/>
<stop offset="0.5" stop-color="#0062F9"/>
<stop offset="1" stop-color="#002A66"/>
</linearGradient>
<linearGradient id="paint15_linear_5667_8379" x1="84.37" y1="4.54879" x2="207.04" y2="243.304" gradientUnits="userSpaceOnUse">
<stop stop-color="#97C1FC"/>
<stop offset="0.5" stop-color="#0062F9"/>
<stop offset="1" stop-color="#002A66"/>
</linearGradient>
<linearGradient id="paint16_linear_5667_8379" x1="106.211" y1="-6.66147" x2="228.862" y2="232.052" gradientUnits="userSpaceOnUse">
<stop stop-color="#97C1FC"/>
<stop offset="0.5" stop-color="#0062F9"/>
<stop offset="1" stop-color="#002A66"/>
</linearGradient>
<linearGradient id="paint17_linear_5667_8379" x1="105.128" y1="-6.11033" x2="227.737" y2="232.622" gradientUnits="userSpaceOnUse">
<stop stop-color="#97C1FC"/>
<stop offset="0.5" stop-color="#0062F9"/>
<stop offset="1" stop-color="#002A66"/>
</linearGradient>
<linearGradient id="paint18_linear_5667_8379" x1="100.348" y1="-3.64697" x2="222.998" y2="235.066" gradientUnits="userSpaceOnUse">
<stop stop-color="#97C1FC"/>
<stop offset="0.5" stop-color="#0062F9"/>
<stop offset="1" stop-color="#002A66"/>
</linearGradient>
<linearGradient id="paint19_linear_5667_8379" x1="92.3161" y1="0.470115" x2="214.967" y2="239.184" gradientUnits="userSpaceOnUse">
<stop stop-color="#97C1FC"/>
<stop offset="0.5" stop-color="#0062F9"/>
<stop offset="1" stop-color="#002A66"/>
</linearGradient>
<linearGradient id="paint20_linear_5667_8379" x1="81.2245" y1="6.20566" x2="203.875" y2="244.918" gradientUnits="userSpaceOnUse">
<stop stop-color="#97C1FC"/>
<stop offset="0.5" stop-color="#0062F9"/>
<stop offset="1" stop-color="#002A66"/>
</linearGradient>
<linearGradient id="paint21_linear_5667_8379" x1="69.2409" y1="12.3527" x2="191.891" y2="251.066" gradientUnits="userSpaceOnUse">
<stop stop-color="#97C1FC"/>
<stop offset="0.5" stop-color="#0062F9"/>
<stop offset="1" stop-color="#002A66"/>
</linearGradient>
<linearGradient id="paint22_linear_5667_8379" x1="60.6359" y1="16.7863" x2="183.244" y2="255.519" gradientUnits="userSpaceOnUse">
<stop stop-color="#97C1FC"/>
<stop offset="0.5" stop-color="#0062F9"/>
<stop offset="1" stop-color="#002A66"/>
</linearGradient>
<linearGradient id="paint23_linear_5667_8379" x1="54.8794" y1="19.6998" x2="177.55" y2="258.456" gradientUnits="userSpaceOnUse">
<stop stop-color="#97C1FC"/>
<stop offset="0.5" stop-color="#0062F9"/>
<stop offset="1" stop-color="#002A66"/>
</linearGradient>
<linearGradient id="paint24_linear_5667_8379" x1="52.9664" y1="20.6854" x2="175.636" y2="259.441" gradientUnits="userSpaceOnUse">
<stop stop-color="#97C1FC"/>
<stop offset="0.5" stop-color="#0062F9"/>
<stop offset="1" stop-color="#002A66"/>
</linearGradient>
<linearGradient id="paint25_linear_5667_8379" x1="54.879" y1="19.6996" x2="177.549" y2="258.456" gradientUnits="userSpaceOnUse">
<stop stop-color="#97C1FC"/>
<stop offset="0.5" stop-color="#0062F9"/>
<stop offset="1" stop-color="#002A66"/>
</linearGradient>
<linearGradient id="paint26_linear_5667_8379" x1="60.5085" y1="16.845" x2="183.159" y2="255.559" gradientUnits="userSpaceOnUse">
<stop stop-color="#97C1FC"/>
<stop offset="0.5" stop-color="#0062F9"/>
<stop offset="1" stop-color="#002A66"/>
</linearGradient>
<linearGradient id="paint27_linear_5667_8379" x1="69.1984" y1="12.3727" x2="191.849" y2="251.086" gradientUnits="userSpaceOnUse">
<stop stop-color="#97C1FC"/>
<stop offset="0.5" stop-color="#0062F9"/>
<stop offset="1" stop-color="#002A66"/>
</linearGradient>
<linearGradient id="paint28_linear_5667_8379" x1="81.4166" y1="6.0648" x2="204.087" y2="244.822" gradientUnits="userSpaceOnUse">
<stop stop-color="#97C1FC"/>
<stop offset="0.5" stop-color="#0062F9"/>
<stop offset="1" stop-color="#002A66"/>
</linearGradient>
<linearGradient id="paint29_linear_5667_8379" x1="92.2318" y1="0.509132" x2="214.902" y2="239.265" gradientUnits="userSpaceOnUse">
<stop stop-color="#97C1FC"/>
<stop offset="0.5" stop-color="#0062F9"/>
<stop offset="1" stop-color="#002A66"/>
</linearGradient>
<linearGradient id="paint30_linear_5667_8379" x1="100.263" y1="-3.60828" x2="222.914" y2="235.105" gradientUnits="userSpaceOnUse">
<stop stop-color="#97C1FC"/>
<stop offset="0.5" stop-color="#0062F9"/>
<stop offset="1" stop-color="#002A66"/>
</linearGradient>
<linearGradient id="paint31_linear_5667_8379" x1="105.129" y1="-6.11076" x2="227.737" y2="232.623" gradientUnits="userSpaceOnUse">
<stop stop-color="#97C1FC"/>
<stop offset="0.5" stop-color="#0062F9"/>
<stop offset="1" stop-color="#002A66"/>
</linearGradient>
<linearGradient id="paint32_linear_5667_8379" x1="117.621" y1="-12.4918" x2="240.272" y2="226.222" gradientUnits="userSpaceOnUse">
<stop stop-color="#97C1FC"/>
<stop offset="0.5" stop-color="#0062F9"/>
<stop offset="1" stop-color="#002A66"/>
</linearGradient>
<linearGradient id="paint33_linear_5667_8379" x1="102.345" y1="-4.67188" x2="224.996" y2="234.042" gradientUnits="userSpaceOnUse">
<stop stop-color="#97C1FC"/>
<stop offset="0.5" stop-color="#0062F9"/>
<stop offset="1" stop-color="#002A66"/>
</linearGradient>
<linearGradient id="paint34_linear_5667_8379" x1="82.1379" y1="5.73303" x2="204.788" y2="244.446" gradientUnits="userSpaceOnUse">
<stop stop-color="#97C1FC"/>
<stop offset="0.5" stop-color="#0062F9"/>
<stop offset="1" stop-color="#002A66"/>
</linearGradient>
<linearGradient id="paint35_linear_5667_8379" x1="61.1249" y1="16.5089" x2="183.776" y2="255.223" gradientUnits="userSpaceOnUse">
<stop stop-color="#97C1FC"/>
<stop offset="0.5" stop-color="#0062F9"/>
<stop offset="1" stop-color="#002A66"/>
</linearGradient>
<linearGradient id="paint36_linear_5667_8379" x1="44.7853" y1="24.9229" x2="167.436" y2="263.637" gradientUnits="userSpaceOnUse">
<stop stop-color="#97C1FC"/>
<stop offset="0.5" stop-color="#0062F9"/>
<stop offset="1" stop-color="#002A66"/>
</linearGradient>
<linearGradient id="paint37_linear_5667_8379" x1="33.7579" y1="30.5772" x2="156.409" y2="269.292" gradientUnits="userSpaceOnUse">
<stop stop-color="#97C1FC"/>
<stop offset="0.5" stop-color="#0062F9"/>
<stop offset="1" stop-color="#002A66"/>
</linearGradient>
<linearGradient id="paint38_linear_5667_8379" x1="29.8064" y1="32.6068" x2="152.457" y2="271.32" gradientUnits="userSpaceOnUse">
<stop stop-color="#97C1FC"/>
<stop offset="0.5" stop-color="#0062F9"/>
<stop offset="1" stop-color="#002A66"/>
</linearGradient>
<linearGradient id="paint39_linear_5667_8379" x1="33.7581" y1="30.578" x2="156.366" y2="269.311" gradientUnits="userSpaceOnUse">
<stop stop-color="#97C1FC"/>
<stop offset="0.5" stop-color="#0062F9"/>
<stop offset="1" stop-color="#002A66"/>
</linearGradient>
<linearGradient id="paint40_linear_5667_8379" x1="44.6156" y1="25.0012" x2="167.266" y2="263.715" gradientUnits="userSpaceOnUse">
<stop stop-color="#97C1FC"/>
<stop offset="0.5" stop-color="#0062F9"/>
<stop offset="1" stop-color="#002A66"/>
</linearGradient>
<linearGradient id="paint41_linear_5667_8379" x1="61.0828" y1="16.5284" x2="183.733" y2="255.242" gradientUnits="userSpaceOnUse">
<stop stop-color="#97C1FC"/>
<stop offset="0.5" stop-color="#0062F9"/>
<stop offset="1" stop-color="#002A66"/>
</linearGradient>
<linearGradient id="paint42_linear_5667_8379" x1="82.5005" y1="5.51421" x2="205.108" y2="244.247" gradientUnits="userSpaceOnUse">
<stop stop-color="#97C1FC"/>
<stop offset="0.5" stop-color="#0062F9"/>
<stop offset="1" stop-color="#002A66"/>
</linearGradient>
<linearGradient id="paint43_linear_5667_8379" x1="132.345" y1="-20.0575" x2="254.995" y2="218.655" gradientUnits="userSpaceOnUse">
<stop stop-color="#97C1FC"/>
<stop offset="0.5" stop-color="#0062F9"/>
<stop offset="1" stop-color="#002A66"/>
</linearGradient>
<linearGradient id="paint44_linear_5667_8379" x1="110.842" y1="-9.00403" x2="233.493" y2="229.71" gradientUnits="userSpaceOnUse">
<stop stop-color="#97C1FC"/>
<stop offset="0.5" stop-color="#0062F9"/>
<stop offset="1" stop-color="#002A66"/>
</linearGradient>
<linearGradient id="paint45_linear_5667_8379" x1="82.8395" y1="5.35848" x2="205.489" y2="244.07" gradientUnits="userSpaceOnUse">
<stop stop-color="#97C1FC"/>
<stop offset="0.5" stop-color="#0062F9"/>
<stop offset="1" stop-color="#002A66"/>
</linearGradient>
<linearGradient id="paint46_linear_5667_8379" x1="54.1348" y1="20.0941" x2="176.786" y2="258.809" gradientUnits="userSpaceOnUse">
<stop stop-color="#97C1FC"/>
<stop offset="0.5" stop-color="#0062F9"/>
<stop offset="1" stop-color="#002A66"/>
</linearGradient>
<linearGradient id="paint47_linear_5667_8379" x1="31.1439" y1="31.9378" x2="153.795" y2="270.652" gradientUnits="userSpaceOnUse">
<stop stop-color="#97C1FC"/>
<stop offset="0.5" stop-color="#0062F9"/>
<stop offset="1" stop-color="#002A66"/>
</linearGradient>
<linearGradient id="paint48_linear_5667_8379" x1="15.5717" y1="39.8953" x2="138.242" y2="278.651" gradientUnits="userSpaceOnUse">
<stop stop-color="#97C1FC"/>
<stop offset="0.5" stop-color="#0062F9"/>
<stop offset="1" stop-color="#002A66"/>
</linearGradient>
<linearGradient id="paint49_linear_5667_8379" x1="9.79222" y1="42.8708" x2="132.443" y2="281.584" gradientUnits="userSpaceOnUse">
<stop stop-color="#97C1FC"/>
<stop offset="0.5" stop-color="#0062F9"/>
<stop offset="1" stop-color="#002A66"/>
</linearGradient>
<linearGradient id="paint50_linear_5667_8379" x1="15.5056" y1="39.9773" x2="138.156" y2="278.691" gradientUnits="userSpaceOnUse">
<stop stop-color="#97C1FC"/>
<stop offset="0.5" stop-color="#0062F9"/>
<stop offset="1" stop-color="#002A66"/>
</linearGradient>
<linearGradient id="paint51_linear_5667_8379" x1="30.8895" y1="32.0555" x2="153.54" y2="270.769" gradientUnits="userSpaceOnUse">
<stop stop-color="#97C1FC"/>
<stop offset="0.5" stop-color="#0062F9"/>
<stop offset="1" stop-color="#002A66"/>
</linearGradient>
<linearGradient id="paint52_linear_5667_8379" x1="54.0928" y1="20.1144" x2="176.743" y2="258.828" gradientUnits="userSpaceOnUse">
<stop stop-color="#97C1FC"/>
<stop offset="0.5" stop-color="#0062F9"/>
<stop offset="1" stop-color="#002A66"/>
</linearGradient>
<linearGradient id="paint53_linear_5667_8379" x1="83.3058" y1="5.14231" x2="205.956" y2="243.856" gradientUnits="userSpaceOnUse">
<stop stop-color="#97C1FC"/>
<stop offset="0.5" stop-color="#0062F9"/>
<stop offset="1" stop-color="#002A66"/>
</linearGradient>
<linearGradient id="paint54_linear_5667_8379" x1="117.069" y1="-12.2376" x2="239.72" y2="226.475" gradientUnits="userSpaceOnUse">
<stop stop-color="#97C1FC"/>
<stop offset="0.5" stop-color="#0062F9"/>
<stop offset="1" stop-color="#002A66"/>
</linearGradient>
<linearGradient id="paint55_linear_5667_8379" x1="83.1365" y1="5.22073" x2="205.787" y2="243.933" gradientUnits="userSpaceOnUse">
<stop stop-color="#97C1FC"/>
<stop offset="0.5" stop-color="#0062F9"/>
<stop offset="1" stop-color="#002A66"/>
</linearGradient>
<linearGradient id="paint56_linear_5667_8379" x1="49.1411" y1="22.6558" x2="171.792" y2="261.369" gradientUnits="userSpaceOnUse">
<stop stop-color="#97C1FC"/>
<stop offset="0.5" stop-color="#0062F9"/>
<stop offset="1" stop-color="#002A66"/>
</linearGradient>
<linearGradient id="paint57_linear_5667_8379" x1="20.2441" y1="37.5331" x2="142.895" y2="276.247" gradientUnits="userSpaceOnUse">
<stop stop-color="#97C1FC"/>
<stop offset="0.5" stop-color="#0062F9"/>
<stop offset="1" stop-color="#002A66"/>
</linearGradient>
<linearGradient id="paint58_linear_5667_8379" x1="1.01659" y1="47.3831" x2="123.667" y2="286.097" gradientUnits="userSpaceOnUse">
<stop stop-color="#97C1FC"/>
<stop offset="0.5" stop-color="#0062F9"/>
<stop offset="1" stop-color="#002A66"/>
</linearGradient>
<linearGradient id="paint59_linear_5667_8379" x1="-6.20863" y1="51.1287" x2="116.442" y2="289.843" gradientUnits="userSpaceOnUse">
<stop stop-color="#97C1FC"/>
<stop offset="0.5" stop-color="#0062F9"/>
<stop offset="1" stop-color="#002A66"/>
</linearGradient>
<linearGradient id="paint60_linear_5667_8379" x1="0.931816" y1="47.4226" x2="123.582" y2="286.136" gradientUnits="userSpaceOnUse">
<stop stop-color="#97C1FC"/>
<stop offset="0.5" stop-color="#0062F9"/>
<stop offset="1" stop-color="#002A66"/>
</linearGradient>
<linearGradient id="paint61_linear_5667_8379" x1="19.9044" y1="37.6901" x2="142.555" y2="276.404" gradientUnits="userSpaceOnUse">
<stop stop-color="#97C1FC"/>
<stop offset="0.5" stop-color="#0062F9"/>
<stop offset="1" stop-color="#002A66"/>
</linearGradient>
<linearGradient id="paint62_linear_5667_8379" x1="48.5245" y1="22.9924" x2="171.175" y2="261.706" gradientUnits="userSpaceOnUse">
<stop stop-color="#97C1FC"/>
<stop offset="0.5" stop-color="#0062F9"/>
<stop offset="1" stop-color="#002A66"/>
</linearGradient>
<linearGradient id="paint63_linear_5667_8379" x1="6.17903" y1="44.7436" x2="128.83" y2="283.457" gradientUnits="userSpaceOnUse">
<stop stop-color="#97C1FC"/>
<stop offset="0.5" stop-color="#0062F9"/>
<stop offset="1" stop-color="#002A66"/>
</linearGradient>
<linearGradient id="paint64_linear_5667_8379" x1="-9.16259" y1="52.6459" x2="113.488" y2="291.359" gradientUnits="userSpaceOnUse">
<stop stop-color="#97C1FC"/>
<stop offset="0.5" stop-color="#0062F9"/>
<stop offset="1" stop-color="#002A66"/>
</linearGradient>
<linearGradient id="paint65_linear_5667_8379" x1="-17.4055" y1="56.8609" x2="105.245" y2="295.574" gradientUnits="userSpaceOnUse">
<stop stop-color="#97C1FC"/>
<stop offset="0.5" stop-color="#0062F9"/>
<stop offset="1" stop-color="#002A66"/>
</linearGradient>
<linearGradient id="paint66_linear_5667_8379" x1="-9.24733" y1="52.6852" x2="113.404" y2="291.399" gradientUnits="userSpaceOnUse">
<stop stop-color="#97C1FC"/>
<stop offset="0.5" stop-color="#0062F9"/>
<stop offset="1" stop-color="#002A66"/>
</linearGradient>
<linearGradient id="paint67_linear_5667_8379" x1="12.2979" y1="41.6115" x2="134.906" y2="280.344" gradientUnits="userSpaceOnUse">
<stop stop-color="#97C1FC"/>
<stop offset="0.5" stop-color="#0062F9"/>
<stop offset="1" stop-color="#002A66"/>
</linearGradient>
<linearGradient id="paint68_linear_5667_8379" x1="44.615" y1="25.0016" x2="167.266" y2="263.715" gradientUnits="userSpaceOnUse">
<stop stop-color="#97C1FC"/>
<stop offset="0.5" stop-color="#0062F9"/>
<stop offset="1" stop-color="#002A66"/>
</linearGradient>
<linearGradient id="paint69_linear_5667_8379" x1="-22.9725" y1="59.7383" x2="99.6785" y2="298.452" gradientUnits="userSpaceOnUse">
<stop stop-color="#97C1FC"/>
<stop offset="0.5" stop-color="#0062F9"/>
<stop offset="1" stop-color="#002A66"/>
</linearGradient>
<linearGradient id="paint70_linear_5667_8379" x1="-14.2402" y1="55.2459" x2="108.411" y2="293.96" gradientUnits="userSpaceOnUse">
<stop stop-color="#97C1FC"/>
<stop offset="0.5" stop-color="#0062F9"/>
<stop offset="1" stop-color="#002A66"/>
</linearGradient>
<linearGradient id="paint71_linear_5667_8379" x1="8.55803" y1="43.5437" x2="131.166" y2="282.277" gradientUnits="userSpaceOnUse">
<stop stop-color="#97C1FC"/>
<stop offset="0.5" stop-color="#0062F9"/>
<stop offset="1" stop-color="#002A66"/>
</linearGradient>
<linearGradient id="paint72_linear_5667_8379" x1="42.7461" y1="25.9677" x2="165.397" y2="264.681" gradientUnits="userSpaceOnUse">
<stop stop-color="#97C1FC"/>
<stop offset="0.5" stop-color="#0062F9"/>
<stop offset="1" stop-color="#002A66"/>
</linearGradient>
<linearGradient id="paint73_linear_5667_8379" x1="-23.0993" y1="59.7969" x2="99.5516" y2="298.51" gradientUnits="userSpaceOnUse">
<stop stop-color="#97C1FC"/>
<stop offset="0.5" stop-color="#0062F9"/>
<stop offset="1" stop-color="#002A66"/>
</linearGradient>
<linearGradient id="paint74_linear_5667_8379" x1="-13.6031" y1="54.9521" x2="109.048" y2="293.666" gradientUnits="userSpaceOnUse">
<stop stop-color="#97C1FC"/>
<stop offset="0.5" stop-color="#0062F9"/>
<stop offset="1" stop-color="#002A66"/>
</linearGradient>
<linearGradient id="paint75_linear_5667_8379" x1="8.8779" y1="43.3432" x2="131.529" y2="282.057" gradientUnits="userSpaceOnUse">
<stop stop-color="#97C1FC"/>
<stop offset="0.5" stop-color="#0062F9"/>
<stop offset="1" stop-color="#002A66"/>
</linearGradient>
<linearGradient id="paint76_linear_5667_8379" x1="42.7029" y1="25.9862" x2="165.354" y2="264.7" gradientUnits="userSpaceOnUse">
<stop stop-color="#97C1FC"/>
<stop offset="0.5" stop-color="#0062F9"/>
<stop offset="1" stop-color="#002A66"/>
</linearGradient>
<linearGradient id="paint77_linear_5667_8379" x1="-5.59205" y1="50.7912" x2="117.059" y2="289.506" gradientUnits="userSpaceOnUse">
<stop stop-color="#97C1FC"/>
<stop offset="0.5" stop-color="#0062F9"/>
<stop offset="1" stop-color="#002A66"/>
</linearGradient>
<linearGradient id="paint78_linear_5667_8379" x1="13.4249" y1="41.0404" x2="136.075" y2="279.753" gradientUnits="userSpaceOnUse">
<stop stop-color="#97C1FC"/>
<stop offset="0.5" stop-color="#0062F9"/>
<stop offset="1" stop-color="#002A66"/>
</linearGradient>
<linearGradient id="paint79_linear_5667_8379" x1="44.7421" y1="24.9424" x2="167.393" y2="263.656" gradientUnits="userSpaceOnUse">
<stop stop-color="#97C1FC"/>
<stop offset="0.5" stop-color="#0062F9"/>
<stop offset="1" stop-color="#002A66"/>
</linearGradient>
</defs>
</svg>
