<svg width="134" height="159" viewBox="0 0 134 159" fill="none" xmlns="http://www.w3.org/2000/svg">
<g opacity="0.5">
<path fill-rule="evenodd" clip-rule="evenodd" d="M-19.8097 182.877L-27.4561 149.223C-27.4561 149.223 -61.4052 132.243 -68.5222 99.0939C-75.6391 65.9446 -49.4441 35.5298 -13.7101 34.0856C22.024 32.6414 35.6726 57.3547 37.2284 61.6353C38.7163 65.9371 38.0877 78.2684 43.4405 84.9408C48.7043 91.5665 62.9223 100.17 63.0707 103.995C63.2191 107.82 54.3138 111.262 54.3138 111.262C54.3138 111.262 55.2345 114.698 56.6887 115.065C58.1428 115.431 58.3304 118.425 56.869 120.667C55.3866 122.841 52.3987 124.962 52.3987 124.962C52.3987 124.962 56.4743 124.661 56.8232 127.456C57.1932 130.319 56.2371 132.031 53.4965 133.033C50.7559 134.035 49.5867 132.91 49.5764 134.552C49.5661 136.193 49.2476 136.366 49.2476 136.366C49.2476 136.366 54.2913 142.763 53.5169 148.885C52.7424 155.008 48.9414 156.191 44.1914 156.479C39.4415 156.766 30.1286 156.984 30.1286 156.984L31.0834 167.706L-19.7206 182.924L-19.8097 182.877Z" fill="url(#paint0_linear_5667_8506)"/>
<path d="M67.3282 108.105C70.3062 110.975 72.5709 114.663 73.7451 118.913C75.0037 123.435 74.9349 127.998 73.8148 132.293L67.3585 130.208C68.0911 127.3 68.0651 124.106 67.1611 120.963C66.2994 117.955 64.7333 115.316 62.6152 113.295L67.2603 108.126L67.3282 108.105ZM77.1237 97.2387C81.8894 101.786 85.5935 107.706 87.5238 114.625C89.623 122.086 89.4703 129.728 87.4183 136.77L80.9621 134.684C82.6054 128.961 82.6845 122.757 80.961 116.742C79.3431 111.066 76.3375 106.194 72.4317 102.496L77.0771 97.3276L77.1237 97.2387ZM88.2993 84.8259C95.162 91.3261 100.39 99.7498 103.161 109.608C106.227 120.417 105.893 131.54 102.858 141.643L96.4013 139.557C99.0066 130.706 99.2888 121.088 96.6447 111.637C94.1863 103.021 89.5889 95.6667 83.654 89.9944L88.2993 84.8259ZM100.923 70.8456C110.103 79.5282 117.117 90.8206 120.855 104.026C124.969 118.678 124.49 133.643 120.306 147.23L113.85 145.145C117.604 132.809 118.077 119.26 114.339 106.054C110.981 94.0706 104.598 83.8476 96.2564 75.9462L100.902 70.7777L100.923 70.8456Z" fill="url(#paint1_linear_5667_8506)"/>
</g>
<defs>
<linearGradient id="paint0_linear_5667_8506" x1="56.9814" y1="84.6718" x2="-61.7326" y2="121.624" gradientUnits="userSpaceOnUse">
<stop stop-color="#97C1FC"/>
<stop offset="0.5" stop-color="#0062F9"/>
<stop offset="1" stop-color="#002A66"/>
</linearGradient>
<linearGradient id="paint1_linear_5667_8506" x1="121.383" y1="105.723" x2="65.1823" y2="123.217" gradientUnits="userSpaceOnUse">
<stop stop-color="#97C1FC"/>
<stop offset="0.5" stop-color="#0062F9"/>
<stop offset="1" stop-color="#002A66"/>
</linearGradient>
</defs>
</svg>
