<svg width="32" height="33" viewBox="0 0 32 33" fill="none" xmlns="http://www.w3.org/2000/svg">
<circle cx="16" cy="16.3604" r="16" fill="#0064FF"/>
<g clip-path="url(#clip0_5888_1503)">
<path d="M16 11.1604C13.2 11.1604 10.9 13.4604 10.9 16.2604C10.9 19.0604 13.2 21.3604 16 21.3604C18.8 21.3604 21.1 19.0604 21.1 16.2604C21.1 13.4604 18.8 11.1604 16 11.1604ZM16 19.5604C14.2 19.5604 12.7 18.0604 12.7 16.2604C12.7 14.4604 14.2 12.9604 16 12.9604C17.8 12.9604 19.3 14.4604 19.3 16.2604C19.3 18.0604 17.8 19.5604 16 19.5604ZM21.2 9.76035C20.6 9.76035 20.1 10.2604 20.1 10.8604C20.1 11.4604 20.6 12.1604 21.2 12.1604C21.8 12.1604 22.5 11.6604 22.5 11.0604C22.5 10.7604 22.4 10.4604 22.1 10.1604C21.8 9.86035 21.6 9.76035 21.2 9.76035ZM25.9 16.2604C25.9 14.8604 25.9 13.5604 25.8 12.1604C25.7 10.6604 25.4 9.16035 24.2 7.96035C23 6.86035 21.6 6.46035 19.9 6.36035C18.7 6.36035 17.3 6.36035 16 6.36035C14.6 6.36035 13.2 6.36035 11.8 6.46035C10.3 6.46035 8.9 6.86035 7.7 7.96035C6.5 9.06035 6.2 10.4604 6.1 12.1604C6 13.5604 6 14.9604 6 16.2604C6 17.5604 6 19.0604 6.1 20.4604C6.2 21.9604 6.5 23.4604 7.7 24.6604C8.8 25.7604 10.2 26.1604 11.9 26.2604C13.3 26.3604 14.6 26.3604 16 26.3604C17.4 26.3604 18.7 26.3604 20.1 26.2604C21.6 26.1604 23.1 25.8604 24.3 24.6604C25.4 23.5604 25.8 22.1604 25.9 20.4604C25.9 19.0604 25.9 17.6604 25.9 16.2604ZM23.6 22.0604C23.5 22.5604 23.2 22.8604 22.8 23.1604C22.4 23.5604 22.2 23.6604 21.7 23.9604C20.4 24.4604 17.3 24.3604 15.9 24.3604C14.5 24.3604 11.3 24.4604 10.1 23.9604C9.6 23.8604 9.3 23.5604 9 23.1604C8.6 22.7604 8.5 22.5604 8.2 22.0604C7.7 20.7604 7.8 17.6604 7.8 16.2604C7.8 14.8604 7.7 11.6604 8.2 10.4604C8.3 9.96035 8.6 9.66035 9 9.36035C9.4 9.06035 9.6 8.86035 10.1 8.56035C11.4 8.06035 14.5 8.16035 15.9 8.16035C17.3 8.16035 20.5 8.06035 21.7 8.56035C22.2 8.66035 22.5 8.96035 22.8 9.36035C23.2 9.76035 23.3 9.96035 23.6 10.4604C24.1 11.6604 24 14.8604 24 16.2604C24 17.6604 24.2 20.7604 23.6 22.0604Z" fill="white"/>
</g>
<defs>
<clipPath id="clip0_5888_1503">
<rect width="19.9" height="20" fill="white" transform="translate(6 6.36035)"/>
</clipPath>
</defs>
</svg>
