<svg width="32" height="33" viewBox="0 0 32 33" fill="none" xmlns="http://www.w3.org/2000/svg">
<circle cx="16" cy="16.3604" r="16" fill="#0064FF"/>
<g clip-path="url(#clip0_5888_1508)">
<path d="M8 13.5604C8 12.7604 8.1 11.8604 8.4 11.1604C8.8 10.3604 9.2 9.66035 9.7 9.16035C10.2 8.66035 10.9 8.06035 11.6 7.66035C12.3 7.26035 13.1 6.86035 13.9 6.76035C14.5 6.46035 15.3 6.36035 16.1 6.36035C17.4 6.36035 18.6 6.66035 19.7 7.16035C20.8 7.66035 21.7 8.46035 22.4 9.46035C23.1 10.5604 23.5 11.7604 23.5 13.0604C23.5 13.8604 23.4 14.5604 23.2 15.3604C23.1 16.1604 22.8 16.8604 22.5 17.4604C22.2 18.1604 21.8 18.6604 21.3 19.1604C20.8 19.6604 20.2 20.0604 19.6 20.3604C19 20.6604 18.1 20.8604 17.3 20.7604C16.8 20.7604 16.2 20.6604 15.7 20.3604C15 20.2604 14.6 19.8604 14.5 19.4604C14.4 19.7604 14.4 20.2604 14.1 20.7604C14 21.2604 13.8 21.6604 13.8 21.9604C13.8 22.0604 13.7 22.3604 13.5 22.7604C13.4 23.0604 13.4 23.2604 13.2 23.5604L12.9 24.3604C12.8 24.6604 12.5 25.0604 12.4 25.2604C12.1 25.5604 12 25.9604 11.6 26.3604H11.5L11.4 26.2604C11.3 25.0604 11.3 24.2604 11.3 23.9604C11.3 23.1604 11.4 22.3604 11.6 21.4604C11.7 20.5604 12 19.3604 12.4 17.9604C12.8 16.5604 12.9 15.8604 13.1 15.5604C12.7 15.1604 12.6 14.4604 12.6 13.5604C12.6 12.8604 12.9 12.2604 13.3 11.6604C13.5 11.1604 14 10.8604 14.7 10.8604C15.2 10.8604 15.6 10.9604 15.9 11.3604C16.2 11.6604 16.3 12.0604 16.3 12.5604C16.3 13.0604 16.1 13.9604 15.7 14.8604C15.3 15.7604 15.2 16.5604 15.2 17.1604C15.2 17.6604 15.3 18.0604 15.7 18.3604C16.1 18.6604 16.5 18.8604 17 18.8604C17.4 18.8604 17.8 18.7604 18.2 18.5604C18.6 18.2604 18.9 18.0604 19.1 17.7604C19.6 16.9604 20 16.1604 20.2 15.2604C20.3 14.7604 20.3 14.3604 20.5 13.9604C20.5 13.5604 20.6 13.1604 20.6 12.7604C20.6 11.4604 20.2 10.3604 19.3 9.56035C18.4 8.76035 17.3 8.36035 15.9 8.36035C14.3 8.36035 13 8.86035 11.9 9.96035C10.8 11.0604 10.3 12.3604 10.3 13.9604C10.3 14.3604 10.3 14.6604 10.4 15.0604C10.5 15.1604 10.7 15.4604 10.8 15.7604C10.9 15.8604 11.1 16.1604 11.1 16.2604C11.2 16.3604 11.2 16.5604 11.2 16.6604C11.2 16.9604 11.2 17.1604 11.1 17.5604C11 17.8604 10.8 17.9604 10.6 17.9604C10.6 17.9604 10.5 17.9604 10.3 17.9604C10 17.8604 9.6 17.5604 9.4 17.2604C9 16.9604 8.7 16.5604 8.6 16.1604C8.4 15.6604 8.3 15.2604 8.1 14.8604C8.1 14.4604 8 13.9604 8 13.5604Z" fill="white"/>
</g>
<defs>
<clipPath id="clip0_5888_1508">
<rect width="15.5" height="20" fill="white" transform="translate(8 6.36035)"/>
</clipPath>
</defs>
</svg>
