<svg width="75" height="76" viewBox="0 0 75 76" fill="none" xmlns="http://www.w3.org/2000/svg">
<circle cx="37.5" cy="37.8601" r="37.5" fill="#1A1A1A"/>
<path d="M27.9998 35.0267V31.6934C27.9998 26.1767 29.6664 21.6934 37.9998 21.6934C46.3331 21.6934 47.9998 26.1767 47.9998 31.6934V35.0267" stroke="white" stroke-width="2.25" stroke-linecap="round" stroke-linejoin="round"/>
<path d="M33.8335 45.0268C33.8335 47.3268 35.7002 49.1934 38.0002 49.1934C40.3002 49.1934 42.1668 47.3268 42.1668 45.0268C42.1668 42.7268 40.3002 40.8601 38.0002 40.8601" stroke="white" stroke-width="2.25" stroke-linecap="round" stroke-linejoin="round"/>
<path d="M54.6666 46.6935V43.3602C54.6666 36.6935 52.9999 35.0269 46.3333 35.0269H29.6666C22.9999 35.0269 21.3333 36.6935 21.3333 43.3602V46.6935C21.3333 53.3602 22.9999 55.0269 29.6666 55.0269H46.3333C49.2666 55.0269 51.2333 54.7102 52.5166 53.7769" stroke="white" stroke-width="2.25" stroke-linecap="round" stroke-linejoin="round"/>
</svg>
