<svg width="487" height="145" viewBox="0 0 487 145" fill="none" xmlns="http://www.w3.org/2000/svg">
<path d="M77.6805 136.44H85.1293V134.349H77.6805V128.151H86.7535V126.06H75.3843V144.617H87.2949V142.526H77.6805V136.44Z" fill="#0064FF"/>
<path d="M120.096 126.06H114.532V144.617H120.17C123.101 144.617 125.416 143.758 127.134 142.059C128.851 140.361 129.71 138.12 129.71 135.357C129.71 132.594 128.833 130.335 127.078 128.618C125.323 126.9 122.989 126.042 120.096 126.042V126.06ZM125.36 140.547C124.016 141.891 122.224 142.563 120.021 142.563H116.81V128.133H120.133C122.299 128.133 124.035 128.805 125.379 130.149C126.723 131.493 127.395 133.229 127.395 135.376C127.395 137.523 126.723 139.203 125.379 140.547H125.36Z" fill="#0064FF"/>
<path d="M168.97 136.907C168.97 138.662 168.522 140.062 167.608 141.07C166.712 142.097 165.517 142.601 164.023 142.601C162.53 142.601 161.354 142.078 160.476 141.051C159.599 140.006 159.151 138.643 159.151 136.907V126.06H156.873V137.056C156.873 139.464 157.527 141.35 158.833 142.713C160.14 144.076 161.876 144.766 164.042 144.766C166.207 144.766 168.018 144.076 169.307 142.694C170.595 141.313 171.248 139.427 171.248 137.056V126.06H168.97V136.907Z" fill="#0064FF"/>
<path d="M207.689 128.058C209.892 128.058 211.74 128.991 213.234 130.858L214.933 129.439C213.028 127.068 210.62 125.892 207.689 125.892C204.758 125.892 202.555 126.788 200.912 128.599C199.27 130.41 198.448 132.688 198.448 135.432C198.448 138.344 199.326 140.622 201.099 142.283C202.873 143.945 205.057 144.766 207.708 144.766C210.657 144.766 213.066 143.609 214.951 141.257L213.252 139.819C211.778 141.667 209.929 142.582 207.708 142.582C205.71 142.582 204.049 141.929 202.761 140.641C201.472 139.334 200.819 137.598 200.819 135.432C200.819 133.266 201.435 131.474 202.686 130.111C203.937 128.749 205.598 128.058 207.689 128.058Z" fill="#0064FF"/>
<path d="M247.192 126.06L240.154 144.617H242.562L244.205 140.099H252.494L254.137 144.617H256.545L249.47 126.06H247.192ZM244.952 138.102L248.331 128.823H248.387L251.785 138.102H244.971H244.952Z" fill="#0064FF"/>
<path d="M279.862 128.151H285.426V144.617H287.703V128.151H293.304V126.06H279.862V128.151Z" fill="#0064FF"/>
<path d="M322.446 126.06H320.149V144.617H322.446V126.06Z" fill="#0064FF"/>
<path d="M359.316 125.874C356.553 125.874 354.313 126.77 352.595 128.562C350.859 130.354 350 132.613 350 135.339C350 138.064 350.859 140.305 352.595 142.097C354.332 143.889 356.572 144.785 359.316 144.785C362.06 144.785 364.17 143.908 365.925 142.153C367.68 140.398 368.557 138.139 368.557 135.339C368.557 132.538 367.68 130.261 365.925 128.506C364.17 126.751 361.967 125.874 359.316 125.874ZM364.226 140.547C362.901 141.91 361.276 142.601 359.335 142.601C357.393 142.601 355.62 141.91 354.313 140.51C353.006 139.11 352.353 137.392 352.353 135.339C352.353 133.285 353.006 131.549 354.313 130.149C355.62 128.749 357.3 128.039 359.335 128.039C361.37 128.039 362.919 128.73 364.226 130.093C365.533 131.456 366.205 133.21 366.205 135.339C366.205 137.467 365.551 139.184 364.226 140.547Z" fill="#0064FF"/>
<path d="M408.769 126.06V140.846H408.713L398.24 126.06H395.981V144.617H398.259V129.981H398.315L408.713 144.617H411.047V126.06H408.769Z" fill="#0064FF"/>
<path d="M0 46.9984C0 25.9588 17.1192 7.96216 38.1588 7.96216C46.3357 7.96216 53.8591 10.5758 60.1878 14.9443L51.1335 23.4572C47.3064 21.2729 42.8446 20.0781 38.1588 20.0781C23.7652 20.0781 11.9853 32.6235 11.9853 47.017C11.9853 61.4106 23.7652 73.1905 38.1588 73.1905C41.8738 73.1905 45.4582 72.3131 48.7439 70.8943V56.2767H60.1878V78.1937H60.0758C53.8591 82.5622 46.3357 85.1758 38.1588 85.1758C17.1192 85.1758 0 68.0566 0 47.017V46.9984Z" fill="#1A1A1A"/>
<path d="M71.0904 7.96216H82.5343V72.8358H108.372V84.2797H71.0718V7.96216H71.0904Z" fill="#1A1A1A"/>
<path d="M258.542 46.6623C262.463 50.4707 264.535 55.9219 264.647 62.2506C264.647 68.5793 262.687 73.9186 258.766 77.727C252.438 84.0556 243.607 84.261 242.301 84.261H204.347V72.7051H242.301C242.301 72.7051 245.344 72.7051 248.293 71.2863C251.56 69.6434 253.091 66.7124 253.091 62.344C252.979 57.8635 251.448 55.0445 248.181 53.2897C245.232 51.8708 242.301 51.8708 242.189 51.8708H208.716V40.4269H242.301C242.413 40.3149 245.456 40.3149 248.293 38.7841C251.56 37.1413 253.091 34.3036 253.091 29.8418C252.979 25.38 251.448 22.5424 248.181 20.7875C245.232 19.4807 242.301 19.4807 242.189 19.4807H204.347V7.9248H242.189C243.271 7.9248 252.102 8.03682 258.542 14.2535C262.463 18.0619 264.535 23.4198 264.647 29.7298C264.647 36.0585 262.687 41.5097 258.766 45.3182C258.43 45.6355 258.225 45.8595 257.889 46.0835C258.113 46.1956 258.318 46.4009 258.542 46.625V46.6623Z" fill="#1A1A1A"/>
<path d="M310.777 7.96216L348.936 84.2797H335.961L310.777 33.1462L285.593 84.2797H273.384L310.777 7.96216Z" fill="#1A1A1A"/>
<path d="M358.756 7.96216H370.2V72.8358H396.037V84.2797H358.737V7.96216H358.756Z" fill="#1A1A1A"/>
<path d="M406.94 7.8501H418.384V84.2983H406.94V7.8501Z" fill="#1A1A1A"/>
<path d="M429.305 7.96216H486.45V19.4061H429.305V7.96216ZM429.305 40.3523H482.081V51.9082H429.305V40.3523ZM429.305 72.8358H486.45V84.2797H429.305V72.8358Z" fill="#1A1A1A"/>
<path d="M159.486 19.4061C159.486 19.5928 159.486 19.7982 159.486 20.0035C158.067 19.8355 156.611 19.6862 155.155 19.5928C156.611 19.4808 158.067 19.4248 159.486 19.4061Z" fill="url(#paint0_linear_5667_7965)"/>
<path d="M159.019 18.0247C159.206 18.3047 159.337 18.6034 159.411 18.9208C158.142 19.1075 156.424 19.3502 155.155 19.5928C156.312 19.1261 157.843 18.4727 159.019 18.0433" fill="url(#paint1_linear_5667_7965)"/>
<path d="M157.937 16.9418C158.235 17.1471 158.497 17.3712 158.721 17.6325C157.545 18.2299 156.35 18.8833 155.155 19.5927C155.995 18.79 157.097 17.7259 157.937 16.9605" fill="url(#paint2_linear_5667_7965)"/>
<path d="M156.406 16.2883C156.798 16.3817 157.153 16.5123 157.47 16.6804C156.779 17.5578 155.827 18.7153 155.155 19.5927C155.528 18.6033 156.014 17.2778 156.406 16.2883Z" fill="url(#paint3_linear_5667_7965)"/>
<path d="M154.595 16.1765C154.894 16.1391 155.211 16.1391 155.547 16.1578C155.64 16.1578 155.734 16.1578 155.827 16.1765C155.603 17.2592 155.379 18.398 155.155 19.5741C154.968 18.3793 154.782 17.2405 154.614 16.1578" fill="url(#paint4_linear_5667_7965)"/>
<path d="M152.952 16.643C153.288 16.475 153.643 16.363 154.016 16.2697C154.39 17.3151 154.763 18.4352 155.136 19.5927C154.39 18.5659 153.662 17.5765 152.934 16.6617" fill="url(#paint5_linear_5667_7965)"/>
<path d="M151.683 17.5952C151.907 17.3338 152.187 17.1098 152.486 16.9231C153.363 17.7632 154.259 18.6593 155.155 19.5927C153.979 18.8833 152.822 18.2112 151.683 17.5952Z" fill="url(#paint6_linear_5667_7965)"/>
<path d="M150.936 18.8834C151.029 18.566 151.179 18.2673 151.365 17.9873C152.504 18.4727 154.035 19.0888 155.155 19.5928C153.736 19.3128 152.317 19.0887 150.936 18.9021" fill="url(#paint7_linear_5667_7965)"/>
<path d="M150.88 20.3769C150.806 20.0782 150.787 19.7608 150.824 19.4248C150.824 19.4248 150.824 19.4061 150.824 19.3875C152.131 19.4435 153.848 19.4995 155.155 19.5928C153.718 19.8168 152.28 20.0782 150.88 20.3769Z" fill="url(#paint8_linear_5667_7965)"/>
<path d="M151.515 21.6837C151.309 21.4223 151.141 21.1423 151.011 20.8249C152.374 20.3768 153.755 19.9661 155.155 19.5928C153.923 20.2648 152.71 20.9556 151.515 21.6837Z" fill="url(#paint9_linear_5667_7965)"/>
<path d="M152.709 22.6731C152.392 22.5051 152.093 22.281 151.851 22.057C152.933 21.2169 154.035 20.3955 155.155 19.5928C154.427 20.5075 153.438 21.7397 152.709 22.6731Z" fill="url(#paint10_linear_5667_7965)"/>
<path d="M154.334 23.2145C153.942 23.1585 153.55 23.0465 153.214 22.9158C153.849 21.777 154.502 20.6756 155.155 19.5928C154.913 20.6756 154.577 22.1317 154.334 23.2145Z" fill="url(#paint11_linear_5667_7965)"/>
<path d="M156.145 23.1772C155.753 23.2518 155.361 23.2891 154.95 23.2705C155.025 22.0197 155.099 20.8062 155.155 19.5928C155.454 20.6569 155.846 22.0944 156.145 23.1772Z" fill="url(#paint12_linear_5667_7965)"/>
<path d="M157.713 22.5797C157.395 22.7664 157.059 22.9158 156.686 23.0278C156.182 21.8517 155.659 20.7129 155.155 19.5928C156.014 20.5635 156.873 21.553 157.713 22.5797Z" fill="url(#paint13_linear_5667_7965)"/>
<path d="M158.87 21.5343C158.665 21.8143 158.422 22.057 158.142 22.281C157.153 21.3663 156.163 20.4702 155.155 19.5928C156.406 20.2088 157.657 20.8622 158.87 21.5343Z" fill="url(#paint14_linear_5667_7965)"/>
<path d="M159.468 20.1715C159.412 20.5076 159.3 20.8249 159.15 21.1236C157.843 20.5822 156.499 20.0782 155.174 19.6115C156.63 19.7608 158.067 19.9662 159.486 20.1902" fill="url(#paint15_linear_5667_7965)"/>
<path d="M170.706 20.0409C170.762 21.4037 170.762 21.4224 170.687 22.1691C168.391 21.5344 166.002 21.0117 163.556 20.5823C163.593 20.1902 163.593 19.7982 163.556 19.4248C166.002 19.5181 168.391 19.7235 170.687 20.0222" fill="url(#paint16_linear_5667_7965)"/>
<path d="M168.989 15.1496C169.623 16.1391 170.109 17.2218 170.407 18.342C168.149 18.286 165.815 18.342 163.407 18.51C163.239 17.8939 162.977 17.3152 162.641 16.7738C164.825 16.0831 166.935 15.5417 168.989 15.131" fill="url(#paint17_linear_5667_7965)"/>
<path d="M165.143 11.2666C166.207 11.976 167.141 12.8161 167.943 13.7309C166.058 14.3469 164.098 15.1123 162.081 16.0084C161.652 15.5044 161.148 15.0563 160.569 14.683C162.138 13.3948 163.668 12.256 165.143 11.2666Z" fill="url(#paint18_linear_5667_7965)"/>
<path d="M159.654 8.89563C161.017 9.213 162.305 9.69838 163.481 10.2958C162.249 11.4159 160.961 12.7041 159.654 14.1602C159.02 13.8428 158.329 13.5815 157.582 13.3948C158.292 11.7333 158.982 10.2211 159.654 8.89563Z" fill="url(#paint19_linear_5667_7965)"/>
<path d="M153.214 8.52215C154.315 8.39147 155.454 8.37281 156.593 8.44749C156.929 8.46616 157.246 8.50347 157.582 8.54081C157.228 9.92229 156.854 11.4905 156.462 13.208C156.294 13.1893 156.108 13.1706 155.94 13.152C155.324 13.1146 154.707 13.1333 154.11 13.1893C153.811 11.4718 153.513 9.90363 153.233 8.52215" fill="url(#paint20_linear_5667_7965)"/>
<path d="M147.333 10.2024C148.528 9.62367 149.816 9.17564 151.179 8.85828C151.757 10.2024 152.374 11.6959 152.99 13.3761C152.262 13.5441 151.552 13.7868 150.917 14.1042C149.685 12.648 148.49 11.3412 147.333 10.2024Z" fill="url(#paint21_linear_5667_7965)"/>
<path d="M142.741 13.5815C143.581 12.6667 144.551 11.864 145.634 11.1545C147.034 12.1626 148.491 13.3201 149.984 14.6269C149.387 15.0003 148.864 15.4483 148.416 15.9337C146.456 15.0003 144.57 14.2162 142.741 13.5815Z" fill="url(#paint22_linear_5667_7965)"/>
<path d="M140.071 18.2114C140.407 17.0539 140.948 15.9711 141.621 14.9817C143.618 15.4111 145.672 15.9898 147.8 16.6992C147.427 17.2406 147.146 17.838 146.96 18.4541C144.589 18.2487 142.274 18.174 140.052 18.23" fill="url(#paint23_linear_5667_7965)"/>
<path d="M139.866 23.4946C139.623 22.3931 139.567 21.2543 139.698 20.0968C139.698 20.0408 139.698 20.0035 139.698 19.9475C141.975 19.6488 144.327 19.4621 146.773 19.3875C146.773 19.4061 146.773 19.4434 146.773 19.4621C146.698 20.0968 146.736 20.7129 146.866 21.3103C144.458 21.9451 142.125 22.6731 139.866 23.4946Z" fill="url(#paint24_linear_5667_7965)"/>
<path d="M142.143 28.1991C141.396 27.2657 140.78 26.2389 140.351 25.1561C142.535 24.092 144.794 23.1025 147.109 22.2251C147.333 22.8225 147.669 23.3639 148.08 23.8866C146.026 25.2494 144.047 26.7056 142.124 28.2178" fill="url(#paint25_linear_5667_7965)"/>
<path d="M146.456 31.7462C145.298 31.1114 144.272 30.3647 143.375 29.5059C145.112 27.7884 146.904 26.1456 148.771 24.5587C149.256 25.0254 149.816 25.4175 150.432 25.7722C149.069 27.6951 147.725 29.6926 146.456 31.7275" fill="url(#paint26_linear_5667_7965)"/>
<path d="M152.262 33.669C150.824 33.4637 149.48 33.0903 148.229 32.5862C149.256 30.4207 150.301 28.2924 151.403 26.2389C152.075 26.5189 152.822 26.7056 153.587 26.8363C153.139 29.0765 152.691 31.3541 152.262 33.6877" fill="url(#paint27_linear_5667_7965)"/>
<path d="M158.702 33.5195C157.321 33.7809 155.883 33.9116 154.427 33.8556C154.539 31.5033 154.633 29.1884 154.763 26.9295C155.566 26.9482 156.331 26.8921 157.078 26.7428C157.638 28.9457 158.18 31.2233 158.702 33.5195Z" fill="url(#paint28_linear_5667_7965)"/>
<path d="M164.322 31.3913C163.201 32.0634 161.988 32.6047 160.681 33.0155C159.86 30.7939 159.02 28.591 158.142 26.4628C158.852 26.2387 159.505 25.94 160.121 25.5853C161.559 27.4522 162.977 29.3937 164.322 31.3913Z" fill="url(#paint29_linear_5667_7965)"/>
<path d="M168.485 27.6577C167.757 28.6284 166.879 29.5245 165.871 30.3086C164.284 28.4791 162.641 26.7056 160.943 25.0067C161.484 24.5773 161.969 24.0919 162.361 23.5692C164.452 24.8574 166.506 26.2202 168.485 27.6577Z" fill="url(#paint30_linear_5667_7965)"/>
<path d="M170.613 22.7664C170.408 23.9612 170.016 25.1 169.437 26.1641C167.327 24.9507 165.143 23.8119 162.884 22.7664C163.183 22.1877 163.407 21.5716 163.519 20.9369C165.946 21.4596 168.317 22.0757 170.613 22.7851" fill="url(#paint31_linear_5667_7965)"/>
<path d="M180.75 22.2436C180.862 23.3824 180.843 24.5585 180.713 25.7346C178.715 24.8385 176.587 24.0171 174.384 23.289C174.477 22.3929 174.496 21.5155 174.403 20.6567C176.606 21.0861 178.715 21.6089 180.731 22.2436" fill="url(#paint32_linear_5667_7965)"/>
<path d="M177.931 14.1975C178.976 15.8404 179.779 17.5952 180.265 19.4621C178.304 19.0514 176.214 18.7527 174.048 18.566C173.675 17.1658 173.077 15.8403 172.293 14.6082C174.253 14.3468 176.139 14.2162 177.931 14.2162" fill="url(#paint33_linear_5667_7965)"/>
<path d="M171.603 7.83167C173.339 9.00779 174.888 10.3706 176.195 11.8828C174.552 12.0695 172.797 12.3868 170.986 12.8535C169.997 11.7148 168.84 10.688 167.533 9.81054C168.952 8.98912 170.314 8.33572 171.603 7.83167Z" fill="url(#paint34_linear_5667_7965)"/>
<path d="M162.585 3.92969C164.844 4.47108 166.954 5.23649 168.877 6.22593C167.794 6.84199 166.655 7.64475 165.479 8.59686C164.023 7.85011 162.436 7.27137 160.737 6.86065C161.372 5.72187 162.007 4.73244 162.585 3.92969Z" fill="url(#paint35_linear_5667_7965)"/>
<path d="M152 3.29505C153.811 3.0897 155.659 3.05236 157.563 3.18304C158.105 3.22038 158.646 3.27639 159.169 3.3324C158.852 4.19116 158.516 5.21792 158.161 6.41272C157.769 6.35671 157.358 6.31938 156.947 6.30071C155.529 6.20737 154.128 6.24471 152.766 6.39406C152.504 5.19926 152.243 4.1725 152.019 3.31374" fill="url(#paint36_linear_5667_7965)"/>
<path d="M142.33 6.07658C144.29 5.12447 146.4 4.37771 148.64 3.87366C149.144 4.67641 149.667 5.66585 150.227 6.82331C148.547 7.19668 146.96 7.75674 145.485 8.48482C144.384 7.51405 143.338 6.71131 142.349 6.07658" fill="url(#paint37_linear_5667_7965)"/>
<path d="M134.825 11.6025C136.188 10.109 137.793 8.76489 139.586 7.6261C140.799 8.14882 142.069 8.8209 143.413 9.64232C142.069 10.5011 140.855 11.5092 139.828 12.648C138.092 12.1626 136.412 11.8079 134.844 11.6025" fill="url(#paint38_linear_5667_7965)"/>
<path d="M130.419 19.2381C130.979 17.3525 131.857 15.5603 132.977 13.9362C134.694 13.9548 136.524 14.1228 138.428 14.4029C137.588 15.635 136.916 16.9792 136.505 18.398C134.377 18.566 132.342 18.846 130.438 19.2381" fill="url(#paint39_linear_5667_7965)"/>
<path d="M130.083 27.919C129.691 26.1268 129.579 24.2413 129.785 22.3371C129.785 22.2624 129.785 22.1691 129.822 22.0944C131.782 21.4784 133.873 20.9556 136.039 20.5449C136.039 20.6009 136.039 20.6569 136.02 20.7316C135.852 22.1691 135.945 23.5879 136.244 24.9321C134.097 25.8468 132.025 26.8363 130.083 27.919Z" fill="url(#paint40_linear_5667_7965)"/>
<path d="M133.836 35.6106C132.603 34.0611 131.595 32.381 130.905 30.6074C132.79 29.3193 134.788 28.1058 136.86 26.967C137.383 28.3112 138.129 29.5806 139.063 30.7381C137.233 32.3249 135.478 33.9491 133.836 35.6106Z" fill="url(#paint41_linear_5667_7965)"/>
<path d="M140.892 41.4537C139.007 40.4269 137.308 39.1762 135.833 37.7947C137.327 35.9465 138.914 34.1356 140.575 32.3807C141.677 33.4262 142.965 34.3596 144.383 35.1437C143.17 37.2159 141.994 39.3442 140.892 41.4537Z" fill="url(#paint42_linear_5667_7965)"/>
<path d="M150.451 44.6088C148.099 44.2541 145.877 43.6566 143.823 42.8166C144.701 40.5763 145.634 38.3548 146.605 36.1519C148.155 36.7679 149.835 37.2346 151.608 37.496C151.216 39.8483 150.824 42.2192 150.47 44.5901" fill="url(#paint43_linear_5667_7965)"/>
<path d="M161.017 44.3661C158.758 44.8141 156.406 45.0008 153.979 44.9261C154.054 42.5365 154.147 40.1283 154.24 37.7574C156.07 37.8134 157.844 37.664 159.542 37.328C160.046 39.6616 160.532 42.0138 161.017 44.3661Z" fill="url(#paint44_linear_5667_7965)"/>
<path d="M170.239 40.8563C168.41 41.9578 166.394 42.8539 164.247 43.5446C163.519 41.2484 162.772 38.9708 161.988 36.7119C163.593 36.2078 165.124 35.5171 166.506 34.6957C167.813 36.7306 169.063 38.7841 170.239 40.875" fill="url(#paint45_linear_5667_7965)"/>
<path d="M177.091 34.7517C175.896 36.3573 174.459 37.8134 172.816 39.1015C171.434 37.16 169.96 35.2371 168.447 33.3516C169.68 32.3808 170.781 31.2794 171.677 30.0659C173.563 31.5781 175.392 33.1276 177.11 34.7331" fill="url(#paint46_linear_5667_7965)"/>
<path d="M180.582 26.7242C180.246 28.6844 179.593 30.5513 178.659 32.2874C176.811 30.8686 174.869 29.5245 172.853 28.2363C173.563 26.9295 174.048 25.5107 174.291 24.0359C176.475 24.8573 178.584 25.7534 180.582 26.7242Z" fill="url(#paint47_linear_5667_7965)"/>
<path d="M189.244 25.7908C189.394 27.3216 189.375 28.8711 189.207 30.4393C187.564 29.3192 185.809 28.2551 183.924 27.2843C184.023 25.5668 184.036 24.2538 183.961 23.3452C185.846 24.0733 187.62 24.8947 189.244 25.7908Z" fill="url(#paint48_linear_5667_7965)"/>
<path d="M185.492 15.0937C186.892 17.2779 187.937 19.6301 188.591 22.0757C186.985 21.3476 185.249 20.7316 183.401 20.2089C182.86 18.118 181.963 16.1391 180.787 14.2909C182.468 14.4216 184.036 14.7016 185.492 15.075" fill="url(#paint49_linear_5667_7965)"/>
<path d="M177.072 6.63684C179.387 8.20501 181.441 10.0159 183.177 12.0134C181.833 11.7707 180.377 11.6587 178.827 11.696C177.371 9.99719 175.635 8.46635 173.675 7.14087C174.888 6.80484 176.027 6.63684 177.091 6.63684" fill="url(#paint50_linear_5667_7965)"/>
<path d="M165.106 1.46558C168.093 2.17499 170.912 3.20177 173.488 4.50858C172.61 4.62059 171.64 4.90062 170.631 5.34866C168.466 4.24721 166.076 3.36978 163.556 2.77238C164.116 2.15631 164.639 1.72694 165.124 1.46558" fill="url(#paint51_linear_5667_7965)"/>
<path d="M151.029 0.625526C153.438 0.364164 155.902 0.289496 158.422 0.457514C159.15 0.51352 159.86 0.569528 160.569 0.662871C160.308 0.96157 160.009 1.44693 159.71 2.10034C159.113 2.02566 158.516 1.96966 157.899 1.93233C155.771 1.78298 153.68 1.839 151.646 2.06302C151.421 1.40962 151.216 0.924224 151.048 0.625526" fill="url(#paint52_linear_5667_7965)"/>
<path d="M138.167 4.30307C140.762 3.0336 143.581 2.04414 146.549 1.37207C146.941 1.63343 147.371 2.08149 147.837 2.69756C145.336 3.25762 142.946 4.09771 140.743 5.1805C139.81 4.73245 138.951 4.43375 138.148 4.30307" fill="url(#paint53_linear_5667_7965)"/>
<path d="M128.179 11.6586C129.99 9.66107 132.137 7.88752 134.508 6.35669C135.478 6.37536 136.524 6.56205 137.663 6.91676C135.646 8.20489 133.854 9.71707 132.305 11.3973C130.83 11.3412 129.448 11.4346 128.179 11.6586Z" fill="url(#paint54_linear_5667_7965)"/>
<path d="M122.317 21.7957C123.064 19.2941 124.221 16.9232 125.715 14.7389C127.096 14.3655 128.609 14.1229 130.214 13.9922C128.945 15.8404 127.974 17.8379 127.339 19.9662C125.547 20.4702 123.848 21.0863 122.299 21.7957" fill="url(#paint55_linear_5667_7965)"/>
<path d="M121.869 33.333C121.346 30.9434 121.197 28.4605 121.477 25.9216C121.477 25.8095 121.496 25.7162 121.514 25.6042C123.101 24.7081 124.819 23.9053 126.667 23.1959C126.667 23.2893 126.648 23.3826 126.63 23.4759C126.387 25.6228 126.518 27.7324 126.966 29.7486C125.136 30.8874 123.437 32.1009 121.869 33.3517" fill="url(#paint56_linear_5667_7965)"/>
<path d="M126.872 43.5821C125.229 41.5286 123.904 39.2883 122.97 36.9174C124.482 35.4799 126.144 34.0984 127.899 32.7543C128.683 34.7518 129.803 36.656 131.203 38.3922C129.654 40.0911 128.197 41.8273 126.872 43.5821Z" fill="url(#paint57_linear_5667_7965)"/>
<path d="M136.262 51.3482C133.761 49.9668 131.502 48.3239 129.542 46.4757C130.755 44.5902 132.062 42.7046 133.462 40.8378C135.124 42.4059 137.028 43.7874 139.156 44.9636C138.129 47.0918 137.159 49.2387 136.281 51.3482" fill="url(#paint58_linear_5667_7965)"/>
<path d="M148.957 55.5487C145.84 55.082 142.872 54.2792 140.146 53.1778C140.855 50.9749 141.621 48.7533 142.423 46.5131C144.738 47.4465 147.24 48.1372 149.891 48.5293C149.555 50.9002 149.256 53.2524 148.957 55.5674" fill="url(#paint59_linear_5667_7965)"/>
<path d="M163.015 55.2312C160.009 55.8286 156.873 56.09 153.661 55.978C153.718 53.6444 153.792 51.2735 153.867 48.8839C156.593 48.9772 159.243 48.7532 161.782 48.2491C162.23 50.6014 162.641 52.935 163.033 55.2312" fill="url(#paint60_linear_5667_7965)"/>
<path d="M175.28 50.5641C172.834 52.0202 170.165 53.2337 167.327 54.1298C166.73 51.8895 166.095 49.5933 165.423 47.3157C167.831 46.5503 170.09 45.5422 172.162 44.2914C173.282 46.3823 174.328 48.4732 175.299 50.5641" fill="url(#paint61_linear_5667_7965)"/>
<path d="M184.39 42.4434C182.804 44.5716 180.881 46.5132 178.697 48.2307C177.558 46.2705 176.344 44.2916 175.037 42.3314C176.886 40.8939 178.51 39.251 179.854 37.4402C181.478 39.083 182.99 40.7632 184.39 42.4434Z" fill="url(#paint62_linear_5667_7965)"/>
<path d="M189.02 31.746C188.591 34.3596 187.713 36.8426 186.463 39.1575C184.95 37.6266 183.326 36.1145 181.59 34.6583C182.635 32.6981 183.382 30.6072 183.737 28.4043C185.604 29.4684 187.377 30.5885 189.001 31.7647" fill="url(#paint63_linear_5667_7965)"/>
<path d="M195.816 30.5327C195.984 32.3435 195.965 34.1917 195.76 36.0586C194.583 34.7705 193.239 33.5196 191.746 32.3435C191.933 30.6447 191.951 28.9832 191.802 27.3403C193.295 28.3298 194.621 29.3939 195.816 30.514" fill="url(#paint64_linear_5667_7965)"/>
<path d="M191.354 17.7819C193.015 20.3768 194.266 23.1771 195.05 26.1081C193.893 25.1 192.567 24.1852 191.111 23.3638C190.42 20.7128 189.282 18.1926 187.788 15.859C189.114 16.3817 190.308 17.0351 191.372 17.8005" fill="url(#paint65_linear_5667_7965)"/>
<path d="M181.347 7.70073C184.11 9.5676 186.556 11.7145 188.61 14.1041C187.639 13.4507 186.519 12.9093 185.305 12.5173C183.438 10.3704 181.235 8.41016 178.753 6.72998C179.705 6.898 180.582 7.21536 181.347 7.68207" fill="url(#paint66_linear_5667_7965)"/>
<path d="M166.431 1.2228L166.991 1.3535C170.893 2.47362 170.968 2.49227 172.965 3.29502C174.085 3.79908 175.597 4.45249 176.699 4.99388C176.139 4.71385 175.523 4.52717 174.869 4.47116C172.106 3.07101 169.082 1.9509 165.871 1.18548C166.076 1.16682 166.263 1.16681 166.431 1.20414" fill="url(#paint67_linear_5667_7965)"/>
<path d="M150.6 0.252038L152.672 0.0653404C155.398 -0.0217801 157.451 -0.0217801 158.833 0.0653404L161.241 0.289355C161.241 0.289355 161.073 0.289363 160.98 0.326701C160.214 0.233357 159.449 0.158681 158.684 0.121344C155.977 -0.0653426 153.326 0.0093252 150.749 0.289355C150.693 0.252018 150.656 0.252038 150.6 0.252038Z" fill="url(#paint68_linear_5667_7965)"/>
<path d="M135.534 4.62036C137.102 3.91095 139.231 3.03353 140.836 2.43613C142.236 2.00675 144.122 1.46535 145.541 1.11064C145.671 1.07331 145.802 1.07331 145.933 1.11064C142.74 1.83872 139.716 2.90284 136.934 4.26566C136.43 4.30299 135.964 4.43367 135.534 4.63902" fill="url(#paint69_linear_5667_7965)"/>
<path d="M123.101 13.6934C125.005 11.6025 127.208 9.69833 129.654 8.03682L130.755 7.30874C131.409 6.87936 132.155 6.59931 132.977 6.46863C130.419 8.11147 128.142 10.0157 126.181 12.1626C125.043 12.536 123.997 13.0587 123.101 13.7121" fill="url(#paint70_linear_5667_7965)"/>
<path d="M116.138 25.7722C117.034 22.7852 118.397 19.9662 120.189 17.3713C121.178 16.6245 122.298 15.9898 123.549 15.467C121.944 17.8193 120.693 20.3582 119.89 23.0465C118.49 23.8679 117.239 24.764 116.138 25.7722Z" fill="url(#paint71_linear_5667_7965)"/>
<path d="M115.615 39.5124C114.999 36.6747 114.812 33.7064 115.148 30.6821C115.148 30.5514 115.186 30.4207 115.186 30.3087C116.306 29.1886 117.594 28.1245 119.031 27.1537C119.031 27.2657 119.013 27.3777 118.994 27.4897C118.695 30.2154 118.845 32.9037 119.405 35.4613C117.986 36.7681 116.716 38.1309 115.596 39.5124" fill="url(#paint72_linear_5667_7965)"/>
<path d="M121.552 51.7217C119.591 49.2761 118.023 46.6064 116.903 43.7875C117.986 42.2753 119.218 40.7818 120.581 39.307C121.589 41.8646 123.008 44.2542 124.781 46.4571C123.586 48.212 122.504 49.9668 121.552 51.703" fill="url(#paint73_linear_5667_7965)"/>
<path d="M132.734 60.9439C129.747 59.3011 127.059 57.3595 124.725 55.138C125.584 53.3084 126.555 51.4416 127.637 49.556C129.747 51.5536 132.174 53.3085 134.862 54.802C134.059 56.8928 133.35 58.9464 132.715 60.9439" fill="url(#paint74_linear_5667_7965)"/>
<path d="M147.837 65.9472C144.122 65.3871 140.593 64.435 137.326 63.1282C137.812 61.056 138.391 58.9278 139.007 56.7622C141.956 57.9383 145.13 58.8158 148.49 59.3198C148.248 61.5787 148.024 63.8003 147.818 65.9472" fill="url(#paint75_linear_5667_7965)"/>
<path d="M164.583 65.5737C161.017 66.2831 157.265 66.5818 153.438 66.4511C153.475 64.2855 153.512 62.0453 153.55 59.7677C157.003 59.8797 160.382 59.5997 163.594 58.965C163.948 61.2239 164.266 63.4268 164.564 65.5737" fill="url(#paint76_linear_5667_7965)"/>
<path d="M179.2 60.0104C176.307 61.7466 173.114 63.1841 169.717 64.2482C169.287 62.1573 168.783 59.9918 168.242 57.7702C171.303 56.7994 174.178 55.5113 176.792 53.9431C177.67 55.9967 178.472 58.0316 179.182 59.9918" fill="url(#paint77_linear_5667_7965)"/>
<path d="M190.028 50.3401C188.143 52.879 185.865 55.1939 183.252 57.2288C182.43 55.3246 181.497 53.4017 180.47 51.4415C182.822 49.612 184.876 47.5211 186.593 45.2249C187.863 46.9237 189.02 48.6412 190.047 50.3401" fill="url(#paint78_linear_5667_7965)"/>
<path d="M195.554 37.6266C195.032 40.7256 193.986 43.6939 192.511 46.4382C191.428 44.8514 190.178 43.2646 188.815 41.6964C190.14 39.2135 191.074 36.5438 191.559 33.7435C193.034 34.9943 194.359 36.2825 195.554 37.6266Z" fill="url(#paint79_linear_5667_7965)"/>
<path d="M200.128 36.264C200.315 38.2615 200.296 40.2964 200.072 42.3686C199.419 40.9498 198.579 39.5683 197.57 38.2242C197.794 36.264 197.794 34.3411 197.626 32.4556C198.635 33.669 199.475 34.9385 200.128 36.264Z" fill="url(#paint80_linear_5667_7965)"/>
<path d="M194.621 21.217C195.255 22.2811 196.114 23.6999 196.712 24.8014C197.813 26.9109 198.672 29.0952 199.269 31.3728C198.634 30.122 197.813 28.9271 196.824 27.8257C196.021 24.764 194.714 21.8517 192.978 19.1448C193.613 19.7795 194.173 20.4703 194.639 21.217" fill="url(#paint81_linear_5667_7965)"/>
<path d="M189.655 14.7949L190.738 16.0084C190.532 15.7657 190.327 15.5417 190.103 15.3363C189.375 14.4962 188.61 13.6935 187.788 12.9094L189.655 14.8136" fill="url(#paint82_linear_5667_7965)"/>
<path d="M121.607 15.019L122.224 14.3469C122.056 14.5149 121.888 14.7016 121.72 14.8696L121.589 15.0003" fill="url(#paint83_linear_5667_7965)"/>
<path d="M112.217 31.018C112.665 29.5058 113.225 28.0497 113.879 26.6308L114.961 24.4466C115.727 23.1211 116.772 21.3476 117.631 20.0595L118.695 18.7153C116.828 21.4223 115.391 24.3719 114.476 27.4896C113.561 28.5724 112.796 29.7485 112.217 31.018Z" fill="url(#paint84_linear_5667_7965)"/>
<path d="M111.638 46.1583C110.948 43.0219 110.761 39.7549 111.134 36.4132C111.134 36.2639 111.172 36.1332 111.19 35.9838C111.788 34.6584 112.553 33.3889 113.505 32.1941C113.505 32.3248 113.468 32.4554 113.449 32.5861C113.095 35.7411 113.281 38.8401 113.935 41.8084C113.001 43.2273 112.236 44.6834 111.638 46.1583Z" fill="url(#paint85_linear_5667_7965)"/>
<path d="M118.191 59.6372C116.025 56.9489 114.289 53.9992 113.057 50.8816C113.617 49.3507 114.364 47.8199 115.26 46.2891C116.417 49.2387 118.06 52.0204 120.114 54.5593C119.33 56.2768 118.676 57.9757 118.172 59.6372" fill="url(#paint86_linear_5667_7965)"/>
<path d="M130.531 69.8115C127.246 68.0006 124.277 65.8537 121.701 63.4081C122.149 61.7092 122.728 59.9357 123.437 58.1249C125.864 60.4211 128.683 62.4747 131.801 64.1735C131.278 66.1151 130.849 68.0006 130.531 69.7928" fill="url(#paint87_linear_5667_7965)"/>
<path d="M147.184 75.3373C143.076 74.7213 139.193 73.6571 135.59 72.2197C135.833 70.3901 136.169 68.4673 136.58 66.4697C139.977 67.8325 143.655 68.8406 147.538 69.4194C147.389 71.4916 147.258 73.4705 147.165 75.3373" fill="url(#paint88_linear_5667_7965)"/>
<path d="M165.666 74.9267C161.727 75.6921 157.601 76.0468 153.382 75.8974C153.382 74.0119 153.382 72.033 153.419 69.9421C157.414 70.0728 161.316 69.7554 165.05 69.0273C165.292 71.0809 165.516 73.0598 165.684 74.9267" fill="url(#paint89_linear_5667_7965)"/>
<path d="M181.777 68.7847C178.566 70.7076 175.056 72.2944 171.322 73.4705C171.08 71.6223 170.762 69.6808 170.389 67.6459C173.917 66.5258 177.259 65.0323 180.283 63.2214C180.881 65.1443 181.385 67.0112 181.795 68.7847" fill="url(#paint90_linear_5667_7965)"/>
<path d="M193.743 58.1248C191.671 60.9251 189.151 63.4827 186.276 65.723C185.809 63.9868 185.231 62.1759 184.521 60.3277C187.247 58.1995 189.618 55.7912 191.597 53.1403C192.455 54.8204 193.183 56.5006 193.743 58.1248Z" fill="url(#paint91_linear_5667_7965)"/>
<path d="M199.829 44.0861C199.251 47.5024 198.112 50.7694 196.488 53.8124C195.89 52.2443 195.106 50.6574 194.191 49.0519C195.722 46.177 196.805 43.0966 197.365 39.8483C198.373 41.2297 199.195 42.6486 199.848 44.0861" fill="url(#paint92_linear_5667_7965)"/>
<path d="M201.715 41.8272L201.902 44.7582C201.939 46.1957 201.902 47.6331 201.715 49.108C201.678 47.6331 201.416 46.1583 200.968 44.7208C201.192 42.6113 201.211 40.539 201.024 38.5042C201.379 39.5869 201.603 40.6884 201.715 41.8272Z" fill="url(#paint93_linear_5667_7965)"/>
<path d="M200.389 34.3597C200.315 34.0796 200.24 33.7996 200.147 33.5196C199.979 32.9035 199.811 32.3061 199.605 31.6901L200.389 34.3597Z" fill="url(#paint94_linear_5667_7965)"/>
<path d="M110.294 53.0471C109.865 51.0495 109.622 48.996 109.585 46.9237C109.622 45.1502 109.716 42.798 109.865 41.0431L109.94 40.4084C110.033 39.6803 110.182 38.9522 110.369 38.2428C110.369 38.3921 110.332 38.5228 110.313 38.6722C109.94 42.0699 110.126 45.4116 110.836 48.6039C110.462 50.0787 110.276 51.5722 110.294 53.0471Z" fill="url(#paint95_linear_5667_7965)"/>
<path d="M117.09 66.9552C114.849 64.1736 113.057 61.1306 111.788 57.9009C111.769 56.4074 111.937 54.9139 112.31 53.3831C113.561 56.5567 115.335 59.5624 117.538 62.3067C117.22 63.9122 117.071 65.4617 117.09 66.9552Z" fill="url(#paint96_linear_5667_7965)"/>
<path d="M129.822 77.4845C126.424 75.6176 123.344 73.396 120.693 70.8757C120.674 69.3823 120.805 67.8141 121.085 66.1713C123.698 68.6542 126.723 70.8571 130.083 72.6866C129.878 74.3855 129.784 75.991 129.822 77.4845Z" fill="url(#paint97_linear_5667_7965)"/>
<path d="M147.053 83.1969C142.815 82.5622 138.802 81.4608 135.068 79.9673C135.031 78.4738 135.105 76.8683 135.255 75.1321C138.914 76.6069 142.871 77.6897 147.072 78.3057C147.016 80.0606 147.016 81.6848 147.053 83.1783" fill="url(#paint98_linear_5667_7965)"/>
<path d="M166.151 82.7676C162.081 83.5703 157.806 83.925 153.456 83.7757C153.419 82.2822 153.4 80.658 153.4 78.9031C157.694 79.0525 161.913 78.6978 165.927 77.9137C166.058 79.6686 166.132 81.2927 166.17 82.7862" fill="url(#paint99_linear_5667_7965)"/>
<path d="M182.804 76.4202C179.499 78.399 175.859 80.0419 171.994 81.2554C171.957 79.7619 171.845 78.1377 171.677 76.4202C175.485 75.2067 179.07 73.6012 182.337 71.641C182.617 73.3212 182.766 74.9267 182.804 76.4202Z" fill="url(#paint100_linear_5667_7965)"/>
<path d="M195.162 65.3872C193.015 68.2808 190.402 70.9317 187.433 73.2467C187.396 71.7532 187.209 70.1663 186.892 68.5235C189.823 66.2459 192.38 63.6323 194.509 60.776C194.901 62.3628 195.125 63.9123 195.162 65.4058" fill="url(#paint101_linear_5667_7965)"/>
<path d="M201.454 50.8815C200.856 54.4286 199.68 57.7889 198 60.9439C197.962 59.4504 197.72 57.9383 197.309 56.3888C198.971 53.2898 200.128 49.9667 200.725 46.4757C201.173 47.9319 201.416 49.4067 201.454 50.9002" fill="url(#paint102_linear_5667_7965)"/>
<path d="M110.649 56.0527L110.276 54.1484C110.351 54.5778 110.444 55.0072 110.537 55.4366C110.575 55.6419 110.612 55.866 110.668 56.0713" fill="url(#paint103_linear_5667_7965)"/>
<path d="M118.415 72.9666C116.885 71.0624 115.559 69.0275 114.495 66.8993L113.3 64.3416L112.778 63.0722C112.423 62.1947 112.161 61.2613 111.993 60.2905C113.263 63.5015 115.036 66.5259 117.277 69.3075C117.501 70.6516 117.874 71.8838 118.415 72.9852" fill="url(#paint104_linear_5667_7965)"/>
<path d="M130.774 83.1782C127.47 81.3673 124.501 79.2017 121.925 76.7562C121.44 75.7107 121.085 74.5159 120.88 73.1904C123.531 75.692 126.592 77.9136 129.971 79.7805C130.121 81.0873 130.401 82.2074 130.774 83.1782Z" fill="url(#paint105_linear_5667_7965)"/>
<path d="M147.464 88.7041C143.357 88.088 139.455 87.0239 135.852 85.5864C135.553 84.653 135.329 83.5516 135.198 82.2634C138.895 83.7569 142.909 84.8397 147.128 85.4744C147.202 86.7439 147.314 87.8267 147.464 88.7228" fill="url(#paint106_linear_5667_7965)"/>
<path d="M165.983 88.2936C162.044 89.0777 157.9 89.4138 153.681 89.2644C153.625 88.387 153.568 87.3042 153.531 86.0347C157.881 86.1841 162.119 85.8294 166.188 85.0266C166.188 86.2961 166.114 87.3789 166.002 88.275" fill="url(#paint107_linear_5667_7965)"/>
<path d="M182.131 82.1516C178.92 84.0745 175.411 85.6613 171.658 86.8374C171.845 85.9227 171.957 84.8212 171.994 83.5518C175.84 82.3383 179.462 80.7141 182.766 78.7352C182.673 80.042 182.449 81.1808 182.131 82.1516Z" fill="url(#paint108_linear_5667_7965)"/>
<path d="M194.098 71.4545C192.007 74.2734 189.487 76.831 186.612 79.0713C187.004 78.0632 187.265 76.887 187.377 75.5616C190.346 73.2466 192.941 70.633 195.069 67.7394C194.919 69.1022 194.583 70.3343 194.098 71.4545Z" fill="url(#paint109_linear_5667_7965)"/>
<path d="M201.267 53.8312C200.875 55.6981 200.296 58.1996 199.773 60.0292C199.232 61.56 198.485 63.5949 197.851 65.0884C197.533 65.7791 197.197 66.4699 196.842 67.1233C197.365 65.9471 197.72 64.659 197.888 63.2775C199.568 60.1412 200.744 56.7808 201.342 53.2711C201.323 53.4578 201.286 53.6445 201.267 53.8312Z" fill="url(#paint110_linear_5667_7965)"/>
<path d="M119.703 75.0015L118.602 73.564C118.882 73.9373 119.162 74.2921 119.442 74.6654C119.536 74.7775 119.61 74.8894 119.703 75.0015Z" fill="url(#paint111_linear_5667_7965)"/>
<path d="M133.22 86.4265L130.774 84.9704C129.673 84.205 128.179 83.1782 127.115 82.3568C126.163 81.554 124.894 80.4899 123.979 79.6312C123.568 79.2391 123.213 78.8284 122.877 78.3617C125.379 80.7326 128.291 82.8422 131.502 84.6157C131.988 85.3998 132.566 85.9972 133.239 86.4265" fill="url(#paint112_linear_5667_7965)"/>
<path d="M148.378 91.4484C144.645 90.8883 141.116 89.9362 137.831 88.6107C137.289 88.2374 136.822 87.6773 136.43 86.9492C139.94 88.368 143.73 89.3948 147.744 89.9922C147.93 90.6643 148.136 91.1497 148.378 91.4484Z" fill="url(#paint113_linear_5667_7965)"/>
<path d="M165.18 91.0752C161.596 91.7846 157.843 92.1019 153.998 91.9712C153.904 91.6912 153.83 91.2245 153.774 90.5524C157.899 90.6831 161.913 90.3471 165.759 89.6003C165.61 90.2911 165.404 90.7765 165.18 91.0752Z" fill="url(#paint114_linear_5667_7965)"/>
<path d="M179.854 85.4932C176.942 87.248 173.749 88.6855 170.333 89.7496C170.706 89.4136 171.024 88.8722 171.285 88.1628C174.926 87.0054 178.361 85.4745 181.478 83.589C181.03 84.3731 180.489 85.0078 179.835 85.4745" fill="url(#paint115_linear_5667_7965)"/>
<path d="M192.866 73.6011L192.231 74.4226C189.393 77.8203 189.281 77.9509 187.303 79.8365C186.369 80.6392 185.137 81.7407 184.185 82.5061C184.838 82.0021 185.398 81.3673 185.865 80.6019C188.665 78.4177 191.13 75.9161 193.165 73.1904C193.071 73.3398 192.978 73.4705 192.866 73.6011Z" fill="url(#paint116_linear_5667_7965)"/>
<path d="M148.901 91.7845C147.576 91.5418 145.802 91.2058 144.495 90.9071L143.189 90.5524C144.999 91.0564 146.885 91.4671 148.808 91.7472C148.845 91.7472 148.883 91.7658 148.901 91.7658" fill="url(#paint117_linear_5667_7965)"/>
<path d="M164.657 91.4485C162.921 91.7285 160.588 92.0459 158.814 92.2139C157.433 92.2512 155.584 92.3072 154.184 92.2886C154.184 92.2886 154.147 92.2886 154.128 92.2699C157.769 92.4006 161.334 92.1019 164.751 91.4298C164.713 91.4298 164.676 91.4485 164.639 91.4672" fill="url(#paint118_linear_5667_7965)"/>
<path d="M169.642 90.1604H169.661C169.903 90.0857 170.127 89.9924 170.37 89.9177L169.642 90.1604Z" fill="url(#paint119_linear_5667_7965)"/>
<path fill-rule="evenodd" clip-rule="evenodd" d="M284.903 84.2797L285.612 75.2441C285.612 75.2441 278.425 68.3367 279.227 59.469C280.03 50.6014 288.972 45.0195 298.045 47.4464C307.118 49.8733 308.612 57.1355 308.668 58.3303C308.705 59.525 307.585 62.568 308.407 64.6589C309.209 66.7312 312.103 69.9982 311.842 70.9689C311.58 71.9397 309.079 72.1077 309.079 72.1077C309.079 72.1077 309.041 73.0411 309.377 73.2465C309.713 73.4519 309.527 74.2173 308.985 74.6653C308.444 75.0947 307.529 75.3934 307.529 75.3934C307.529 75.3934 308.575 75.6361 308.444 76.3642C308.313 77.1109 307.94 77.4656 307.174 77.503C306.409 77.5403 306.204 77.1669 306.073 77.5777C305.942 77.9884 305.849 78.007 305.849 78.007C305.849 78.007 306.614 80.0046 305.942 81.4794C305.27 82.9542 304.225 82.9542 303.011 82.6555C301.798 82.3568 299.446 81.6848 299.446 81.6848L298.848 84.4477L284.921 84.2984L284.903 84.2797Z" fill="url(#paint120_linear_5667_7965)"/>
<path d="M312.588 72.3318C313.111 73.2839 313.391 74.3853 313.354 75.5428C313.316 76.7749 312.943 77.9137 312.327 78.9032L310.871 77.8764C311.281 77.2043 311.524 76.4015 311.543 75.5428C311.561 74.7214 311.375 73.9373 311.001 73.2652L312.57 72.3318H312.588ZM315.893 70.3716C316.733 71.8837 317.199 73.6572 317.143 75.5428C317.087 77.5777 316.453 79.4819 315.389 81.0874L313.932 80.0606C314.791 78.7538 315.295 77.2043 315.333 75.5615C315.37 74.012 314.996 72.5558 314.306 71.3237L315.874 70.3902L315.893 70.3716ZM319.664 68.1313C320.877 70.2969 321.531 72.8172 321.456 75.5055C321.381 78.4551 320.429 81.2181 318.88 83.5143L317.423 82.4875C318.768 80.4713 319.589 78.0817 319.664 75.5055C319.72 73.1532 319.141 70.9503 318.095 69.0648L319.664 68.1313ZM323.92 65.6111C325.544 68.5047 326.422 71.8837 326.328 75.4868C326.216 79.4819 324.928 83.1969 322.819 86.2773L321.363 85.2505C323.267 82.4502 324.443 79.0898 324.536 75.4868C324.63 72.2198 323.827 69.1581 322.352 66.5258L323.92 65.5924V65.6111Z" fill="url(#paint121_linear_5667_7965)"/>
<defs>
<linearGradient id="paint0_linear_5667_7965" x1="155.678" y1="-19.3491" x2="160.214" y2="87.7878" gradientUnits="userSpaceOnUse">
<stop stop-color="#97C1FC"/>
<stop offset="0.5" stop-color="#0062F9"/>
<stop offset="1" stop-color="#002A66"/>
</linearGradient>
<linearGradient id="paint1_linear_5667_7965" x1="155.64" y1="-19.3505" x2="160.177" y2="87.8091" gradientUnits="userSpaceOnUse">
<stop stop-color="#97C1FC"/>
<stop offset="0.5" stop-color="#0062F9"/>
<stop offset="1" stop-color="#002A66"/>
</linearGradient>
<linearGradient id="paint2_linear_5667_7965" x1="155.323" y1="-19.3318" x2="159.86" y2="87.8087" gradientUnits="userSpaceOnUse">
<stop stop-color="#97C1FC"/>
<stop offset="0.5" stop-color="#0062F9"/>
<stop offset="1" stop-color="#002A66"/>
</linearGradient>
<linearGradient id="paint3_linear_5667_7965" x1="154.726" y1="-19.3129" x2="159.262" y2="87.8455" gradientUnits="userSpaceOnUse">
<stop stop-color="#97C1FC"/>
<stop offset="0.5" stop-color="#0062F9"/>
<stop offset="1" stop-color="#002A66"/>
</linearGradient>
<linearGradient id="paint4_linear_5667_7965" x1="153.718" y1="-19.2567" x2="158.254" y2="87.8827" gradientUnits="userSpaceOnUse">
<stop stop-color="#97C1FC"/>
<stop offset="0.5" stop-color="#0062F9"/>
<stop offset="1" stop-color="#002A66"/>
</linearGradient>
<linearGradient id="paint5_linear_5667_7965" x1="152.486" y1="-19.2011" x2="157.003" y2="87.9393" gradientUnits="userSpaceOnUse">
<stop stop-color="#97C1FC"/>
<stop offset="0.5" stop-color="#0062F9"/>
<stop offset="1" stop-color="#002A66"/>
</linearGradient>
<linearGradient id="paint6_linear_5667_7965" x1="151.814" y1="-19.1823" x2="156.35" y2="87.9578" gradientUnits="userSpaceOnUse">
<stop stop-color="#97C1FC"/>
<stop offset="0.5" stop-color="#0062F9"/>
<stop offset="1" stop-color="#002A66"/>
</linearGradient>
<linearGradient id="paint7_linear_5667_7965" x1="151.421" y1="-19.1634" x2="155.958" y2="87.9762" gradientUnits="userSpaceOnUse">
<stop stop-color="#97C1FC"/>
<stop offset="0.5" stop-color="#0062F9"/>
<stop offset="1" stop-color="#002A66"/>
</linearGradient>
<linearGradient id="paint8_linear_5667_7965" x1="151.328" y1="-19.1633" x2="155.865" y2="87.976" gradientUnits="userSpaceOnUse">
<stop stop-color="#97C1FC"/>
<stop offset="0.5" stop-color="#0062F9"/>
<stop offset="1" stop-color="#002A66"/>
</linearGradient>
<linearGradient id="paint9_linear_5667_7965" x1="151.421" y1="-19.1632" x2="155.958" y2="87.9758" gradientUnits="userSpaceOnUse">
<stop stop-color="#97C1FC"/>
<stop offset="0.5" stop-color="#0062F9"/>
<stop offset="1" stop-color="#002A66"/>
</linearGradient>
<linearGradient id="paint10_linear_5667_7965" x1="151.813" y1="-19.1819" x2="156.35" y2="87.9572" gradientUnits="userSpaceOnUse">
<stop stop-color="#97C1FC"/>
<stop offset="0.5" stop-color="#0062F9"/>
<stop offset="1" stop-color="#002A66"/>
</linearGradient>
<linearGradient id="paint11_linear_5667_7965" x1="152.467" y1="-19.2005" x2="157.004" y2="87.9383" gradientUnits="userSpaceOnUse">
<stop stop-color="#97C1FC"/>
<stop offset="0.5" stop-color="#0062F9"/>
<stop offset="1" stop-color="#002A66"/>
</linearGradient>
<linearGradient id="paint12_linear_5667_7965" x1="153.737" y1="-19.2565" x2="158.273" y2="87.8823" gradientUnits="userSpaceOnUse">
<stop stop-color="#97C1FC"/>
<stop offset="0.5" stop-color="#0062F9"/>
<stop offset="1" stop-color="#002A66"/>
</linearGradient>
<linearGradient id="paint13_linear_5667_7965" x1="154.726" y1="-19.3127" x2="159.262" y2="87.8453" gradientUnits="userSpaceOnUse">
<stop stop-color="#97C1FC"/>
<stop offset="0.5" stop-color="#0062F9"/>
<stop offset="1" stop-color="#002A66"/>
</linearGradient>
<linearGradient id="paint14_linear_5667_7965" x1="155.323" y1="-19.3311" x2="159.859" y2="87.8075" gradientUnits="userSpaceOnUse">
<stop stop-color="#97C1FC"/>
<stop offset="0.5" stop-color="#0062F9"/>
<stop offset="1" stop-color="#002A66"/>
</linearGradient>
<linearGradient id="paint15_linear_5667_7965" x1="155.641" y1="-19.35" x2="160.177" y2="87.8079" gradientUnits="userSpaceOnUse">
<stop stop-color="#97C1FC"/>
<stop offset="0.5" stop-color="#0062F9"/>
<stop offset="1" stop-color="#002A66"/>
</linearGradient>
<linearGradient id="paint16_linear_5667_7965" x1="165.442" y1="-19.7608" x2="169.978" y2="87.3788" gradientUnits="userSpaceOnUse">
<stop stop-color="#97C1FC"/>
<stop offset="0.5" stop-color="#0062F9"/>
<stop offset="1" stop-color="#002A66"/>
</linearGradient>
<linearGradient id="paint17_linear_5667_7965" x1="164.956" y1="-19.7421" x2="169.474" y2="87.3973" gradientUnits="userSpaceOnUse">
<stop stop-color="#97C1FC"/>
<stop offset="0.5" stop-color="#0062F9"/>
<stop offset="1" stop-color="#002A66"/>
</linearGradient>
<linearGradient id="paint18_linear_5667_7965" x1="162.81" y1="-19.6486" x2="167.346" y2="87.4906" gradientUnits="userSpaceOnUse">
<stop stop-color="#97C1FC"/>
<stop offset="0.5" stop-color="#0062F9"/>
<stop offset="1" stop-color="#002A66"/>
</linearGradient>
<linearGradient id="paint19_linear_5667_7965" x1="159.206" y1="-19.4995" x2="163.743" y2="87.6403" gradientUnits="userSpaceOnUse">
<stop stop-color="#97C1FC"/>
<stop offset="0.5" stop-color="#0062F9"/>
<stop offset="1" stop-color="#002A66"/>
</linearGradient>
<linearGradient id="paint20_linear_5667_7965" x1="154.222" y1="-19.2754" x2="158.759" y2="87.8637" gradientUnits="userSpaceOnUse">
<stop stop-color="#97C1FC"/>
<stop offset="0.5" stop-color="#0062F9"/>
<stop offset="1" stop-color="#002A66"/>
</linearGradient>
<linearGradient id="paint21_linear_5667_7965" x1="148.845" y1="-19.0514" x2="153.382" y2="88.0881" gradientUnits="userSpaceOnUse">
<stop stop-color="#97C1FC"/>
<stop offset="0.5" stop-color="#0062F9"/>
<stop offset="1" stop-color="#002A66"/>
</linearGradient>
<linearGradient id="paint22_linear_5667_7965" x1="144.981" y1="-18.8833" x2="149.499" y2="88.2561" gradientUnits="userSpaceOnUse">
<stop stop-color="#97C1FC"/>
<stop offset="0.5" stop-color="#0062F9"/>
<stop offset="1" stop-color="#002A66"/>
</linearGradient>
<linearGradient id="paint23_linear_5667_7965" x1="142.405" y1="-18.79" x2="146.941" y2="88.3683" gradientUnits="userSpaceOnUse">
<stop stop-color="#97C1FC"/>
<stop offset="0.5" stop-color="#0062F9"/>
<stop offset="1" stop-color="#002A66"/>
</linearGradient>
<linearGradient id="paint24_linear_5667_7965" x1="141.546" y1="-18.7526" x2="146.082" y2="88.4054" gradientUnits="userSpaceOnUse">
<stop stop-color="#97C1FC"/>
<stop offset="0.5" stop-color="#0062F9"/>
<stop offset="1" stop-color="#002A66"/>
</linearGradient>
<linearGradient id="paint25_linear_5667_7965" x1="142.405" y1="-18.7901" x2="146.941" y2="88.3683" gradientUnits="userSpaceOnUse">
<stop stop-color="#97C1FC"/>
<stop offset="0.5" stop-color="#0062F9"/>
<stop offset="1" stop-color="#002A66"/>
</linearGradient>
<linearGradient id="paint26_linear_5667_7965" x1="144.925" y1="-18.8834" x2="149.461" y2="88.2563" gradientUnits="userSpaceOnUse">
<stop stop-color="#97C1FC"/>
<stop offset="0.5" stop-color="#0062F9"/>
<stop offset="1" stop-color="#002A66"/>
</linearGradient>
<linearGradient id="paint27_linear_5667_7965" x1="148.827" y1="-19.0512" x2="153.363" y2="88.0881" gradientUnits="userSpaceOnUse">
<stop stop-color="#97C1FC"/>
<stop offset="0.5" stop-color="#0062F9"/>
<stop offset="1" stop-color="#002A66"/>
</linearGradient>
<linearGradient id="paint28_linear_5667_7965" x1="154.315" y1="-19.2943" x2="158.852" y2="87.8642" gradientUnits="userSpaceOnUse">
<stop stop-color="#97C1FC"/>
<stop offset="0.5" stop-color="#0062F9"/>
<stop offset="1" stop-color="#002A66"/>
</linearGradient>
<linearGradient id="paint29_linear_5667_7965" x1="159.169" y1="-19.4995" x2="163.705" y2="87.6586" gradientUnits="userSpaceOnUse">
<stop stop-color="#97C1FC"/>
<stop offset="0.5" stop-color="#0062F9"/>
<stop offset="1" stop-color="#002A66"/>
</linearGradient>
<linearGradient id="paint30_linear_5667_7965" x1="162.772" y1="-19.6488" x2="167.309" y2="87.4908" gradientUnits="userSpaceOnUse">
<stop stop-color="#97C1FC"/>
<stop offset="0.5" stop-color="#0062F9"/>
<stop offset="1" stop-color="#002A66"/>
</linearGradient>
<linearGradient id="paint31_linear_5667_7965" x1="164.956" y1="-19.7422" x2="169.474" y2="87.3974" gradientUnits="userSpaceOnUse">
<stop stop-color="#97C1FC"/>
<stop offset="0.5" stop-color="#0062F9"/>
<stop offset="1" stop-color="#002A66"/>
</linearGradient>
<linearGradient id="paint32_linear_5667_7965" x1="175.765" y1="-20.1903" x2="180.302" y2="86.9492" gradientUnits="userSpaceOnUse">
<stop stop-color="#97C1FC"/>
<stop offset="0.5" stop-color="#0062F9"/>
<stop offset="1" stop-color="#002A66"/>
</linearGradient>
<linearGradient id="paint33_linear_5667_7965" x1="174.701" y1="-20.1528" x2="179.238" y2="86.9865" gradientUnits="userSpaceOnUse">
<stop stop-color="#97C1FC"/>
<stop offset="0.5" stop-color="#0062F9"/>
<stop offset="1" stop-color="#002A66"/>
</linearGradient>
<linearGradient id="paint34_linear_5667_7965" x1="170.557" y1="-19.966" x2="175.094" y2="87.1736" gradientUnits="userSpaceOnUse">
<stop stop-color="#97C1FC"/>
<stop offset="0.5" stop-color="#0062F9"/>
<stop offset="1" stop-color="#002A66"/>
</linearGradient>
<linearGradient id="paint35_linear_5667_7965" x1="163.705" y1="-19.6862" x2="168.242" y2="87.4533" gradientUnits="userSpaceOnUse">
<stop stop-color="#97C1FC"/>
<stop offset="0.5" stop-color="#0062F9"/>
<stop offset="1" stop-color="#002A66"/>
</linearGradient>
<linearGradient id="paint36_linear_5667_7965" x1="154.633" y1="-19.294" x2="159.169" y2="87.8453" gradientUnits="userSpaceOnUse">
<stop stop-color="#97C1FC"/>
<stop offset="0.5" stop-color="#0062F9"/>
<stop offset="1" stop-color="#002A66"/>
</linearGradient>
<linearGradient id="paint37_linear_5667_7965" x1="145.205" y1="-18.9021" x2="149.741" y2="88.2374" gradientUnits="userSpaceOnUse">
<stop stop-color="#97C1FC"/>
<stop offset="0.5" stop-color="#0062F9"/>
<stop offset="1" stop-color="#002A66"/>
</linearGradient>
<linearGradient id="paint38_linear_5667_7965" x1="137.868" y1="-18.5847" x2="142.405" y2="88.5549" gradientUnits="userSpaceOnUse">
<stop stop-color="#97C1FC"/>
<stop offset="0.5" stop-color="#0062F9"/>
<stop offset="1" stop-color="#002A66"/>
</linearGradient>
<linearGradient id="paint39_linear_5667_7965" x1="132.921" y1="-18.3794" x2="137.457" y2="88.7605" gradientUnits="userSpaceOnUse">
<stop stop-color="#97C1FC"/>
<stop offset="0.5" stop-color="#0062F9"/>
<stop offset="1" stop-color="#002A66"/>
</linearGradient>
<linearGradient id="paint40_linear_5667_7965" x1="131.147" y1="-18.3046" x2="135.684" y2="88.8349" gradientUnits="userSpaceOnUse">
<stop stop-color="#97C1FC"/>
<stop offset="0.5" stop-color="#0062F9"/>
<stop offset="1" stop-color="#002A66"/>
</linearGradient>
<linearGradient id="paint41_linear_5667_7965" x1="132.921" y1="-18.3791" x2="137.439" y2="88.7602" gradientUnits="userSpaceOnUse">
<stop stop-color="#97C1FC"/>
<stop offset="0.5" stop-color="#0062F9"/>
<stop offset="1" stop-color="#002A66"/>
</linearGradient>
<linearGradient id="paint42_linear_5667_7965" x1="137.793" y1="-18.5847" x2="142.33" y2="88.5548" gradientUnits="userSpaceOnUse">
<stop stop-color="#97C1FC"/>
<stop offset="0.5" stop-color="#0062F9"/>
<stop offset="1" stop-color="#002A66"/>
</linearGradient>
<linearGradient id="paint43_linear_5667_7965" x1="145.186" y1="-18.9021" x2="149.723" y2="88.2374" gradientUnits="userSpaceOnUse">
<stop stop-color="#97C1FC"/>
<stop offset="0.5" stop-color="#0062F9"/>
<stop offset="1" stop-color="#002A66"/>
</linearGradient>
<linearGradient id="paint44_linear_5667_7965" x1="154.801" y1="-19.3126" x2="159.318" y2="87.8267" gradientUnits="userSpaceOnUse">
<stop stop-color="#97C1FC"/>
<stop offset="0.5" stop-color="#0062F9"/>
<stop offset="1" stop-color="#002A66"/>
</linearGradient>
<linearGradient id="paint45_linear_5667_7965" x1="163.649" y1="-19.6861" x2="168.186" y2="87.4532" gradientUnits="userSpaceOnUse">
<stop stop-color="#97C1FC"/>
<stop offset="0.5" stop-color="#0062F9"/>
<stop offset="1" stop-color="#002A66"/>
</linearGradient>
<linearGradient id="paint46_linear_5667_7965" x1="170.482" y1="-19.9661" x2="175.019" y2="87.1733" gradientUnits="userSpaceOnUse">
<stop stop-color="#97C1FC"/>
<stop offset="0.5" stop-color="#0062F9"/>
<stop offset="1" stop-color="#002A66"/>
</linearGradient>
<linearGradient id="paint47_linear_5667_7965" x1="174.701" y1="-20.1528" x2="179.238" y2="86.9866" gradientUnits="userSpaceOnUse">
<stop stop-color="#97C1FC"/>
<stop offset="0.5" stop-color="#0062F9"/>
<stop offset="1" stop-color="#002A66"/>
</linearGradient>
<linearGradient id="paint48_linear_5667_7965" x1="184.596" y1="-20.5635" x2="189.132" y2="86.5761" gradientUnits="userSpaceOnUse">
<stop stop-color="#97C1FC"/>
<stop offset="0.5" stop-color="#0062F9"/>
<stop offset="1" stop-color="#002A66"/>
</linearGradient>
<linearGradient id="paint49_linear_5667_7965" x1="183.046" y1="-20.5075" x2="187.583" y2="86.632" gradientUnits="userSpaceOnUse">
<stop stop-color="#97C1FC"/>
<stop offset="0.5" stop-color="#0062F9"/>
<stop offset="1" stop-color="#002A66"/>
</linearGradient>
<linearGradient id="paint50_linear_5667_7965" x1="177.166" y1="-20.246" x2="181.702" y2="86.8932" gradientUnits="userSpaceOnUse">
<stop stop-color="#97C1FC"/>
<stop offset="0.5" stop-color="#0062F9"/>
<stop offset="1" stop-color="#002A66"/>
</linearGradient>
<linearGradient id="paint51_linear_5667_7965" x1="167.514" y1="-19.8354" x2="172.05" y2="87.3042" gradientUnits="userSpaceOnUse">
<stop stop-color="#97C1FC"/>
<stop offset="0.5" stop-color="#0062F9"/>
<stop offset="1" stop-color="#002A66"/>
</linearGradient>
<linearGradient id="paint52_linear_5667_7965" x1="154.95" y1="-19.3124" x2="159.486" y2="87.826" gradientUnits="userSpaceOnUse">
<stop stop-color="#97C1FC"/>
<stop offset="0.5" stop-color="#0062F9"/>
<stop offset="1" stop-color="#002A66"/>
</linearGradient>
<linearGradient id="paint53_linear_5667_7965" x1="142.069" y1="-18.7715" x2="146.605" y2="88.3685" gradientUnits="userSpaceOnUse">
<stop stop-color="#97C1FC"/>
<stop offset="0.5" stop-color="#0062F9"/>
<stop offset="1" stop-color="#002A66"/>
</linearGradient>
<linearGradient id="paint54_linear_5667_7965" x1="131.745" y1="-18.3234" x2="136.281" y2="88.8165" gradientUnits="userSpaceOnUse">
<stop stop-color="#97C1FC"/>
<stop offset="0.5" stop-color="#0062F9"/>
<stop offset="1" stop-color="#002A66"/>
</linearGradient>
<linearGradient id="paint55_linear_5667_7965" x1="124.763" y1="-18.0432" x2="129.299" y2="89.1148" gradientUnits="userSpaceOnUse">
<stop stop-color="#97C1FC"/>
<stop offset="0.5" stop-color="#0062F9"/>
<stop offset="1" stop-color="#002A66"/>
</linearGradient>
<linearGradient id="paint56_linear_5667_7965" x1="122.168" y1="-17.9312" x2="126.704" y2="89.2084" gradientUnits="userSpaceOnUse">
<stop stop-color="#97C1FC"/>
<stop offset="0.5" stop-color="#0062F9"/>
<stop offset="1" stop-color="#002A66"/>
</linearGradient>
<linearGradient id="paint57_linear_5667_7965" x1="124.725" y1="-18.0245" x2="129.262" y2="89.115" gradientUnits="userSpaceOnUse">
<stop stop-color="#97C1FC"/>
<stop offset="0.5" stop-color="#0062F9"/>
<stop offset="1" stop-color="#002A66"/>
</linearGradient>
<linearGradient id="paint58_linear_5667_7965" x1="131.633" y1="-18.3233" x2="136.169" y2="88.8163" gradientUnits="userSpaceOnUse">
<stop stop-color="#97C1FC"/>
<stop offset="0.5" stop-color="#0062F9"/>
<stop offset="1" stop-color="#002A66"/>
</linearGradient>
<linearGradient id="paint59_linear_5667_7965" x1="142.05" y1="-18.7712" x2="146.587" y2="88.3682" gradientUnits="userSpaceOnUse">
<stop stop-color="#97C1FC"/>
<stop offset="0.5" stop-color="#0062F9"/>
<stop offset="1" stop-color="#002A66"/>
</linearGradient>
<linearGradient id="paint60_linear_5667_7965" x1="155.155" y1="-19.3128" x2="159.691" y2="87.8267" gradientUnits="userSpaceOnUse">
<stop stop-color="#97C1FC"/>
<stop offset="0.5" stop-color="#0062F9"/>
<stop offset="1" stop-color="#002A66"/>
</linearGradient>
<linearGradient id="paint61_linear_5667_7965" x1="167.439" y1="-19.8356" x2="171.976" y2="87.304" gradientUnits="userSpaceOnUse">
<stop stop-color="#97C1FC"/>
<stop offset="0.5" stop-color="#0062F9"/>
<stop offset="1" stop-color="#002A66"/>
</linearGradient>
<linearGradient id="paint62_linear_5667_7965" x1="177.054" y1="-20.246" x2="181.59" y2="86.8935" gradientUnits="userSpaceOnUse">
<stop stop-color="#97C1FC"/>
<stop offset="0.5" stop-color="#0062F9"/>
<stop offset="1" stop-color="#002A66"/>
</linearGradient>
<linearGradient id="paint63_linear_5667_7965" x1="183.046" y1="-20.5077" x2="187.564" y2="86.632" gradientUnits="userSpaceOnUse">
<stop stop-color="#97C1FC"/>
<stop offset="0.5" stop-color="#0062F9"/>
<stop offset="1" stop-color="#002A66"/>
</linearGradient>
<linearGradient id="paint64_linear_5667_7965" x1="191.596" y1="-20.8622" x2="196.133" y2="86.2773" gradientUnits="userSpaceOnUse">
<stop stop-color="#97C1FC"/>
<stop offset="0.5" stop-color="#0062F9"/>
<stop offset="1" stop-color="#002A66"/>
</linearGradient>
<linearGradient id="paint65_linear_5667_7965" x1="189.636" y1="-20.7875" x2="194.173" y2="86.3518" gradientUnits="userSpaceOnUse">
<stop stop-color="#97C1FC"/>
<stop offset="0.5" stop-color="#0062F9"/>
<stop offset="1" stop-color="#002A66"/>
</linearGradient>
<linearGradient id="paint66_linear_5667_7965" x1="182.356" y1="-20.4703" x2="186.892" y2="86.6692" gradientUnits="userSpaceOnUse">
<stop stop-color="#97C1FC"/>
<stop offset="0.5" stop-color="#0062F9"/>
<stop offset="1" stop-color="#002A66"/>
</linearGradient>
<linearGradient id="paint67_linear_5667_7965" x1="170.314" y1="-19.9661" x2="174.851" y2="87.1732" gradientUnits="userSpaceOnUse">
<stop stop-color="#97C1FC"/>
<stop offset="0.5" stop-color="#0062F9"/>
<stop offset="1" stop-color="#002A66"/>
</linearGradient>
<linearGradient id="paint68_linear_5667_7965" x1="155.081" y1="-19.3127" x2="159.617" y2="87.8265" gradientUnits="userSpaceOnUse">
<stop stop-color="#97C1FC"/>
<stop offset="0.5" stop-color="#0062F9"/>
<stop offset="1" stop-color="#002A66"/>
</linearGradient>
<linearGradient id="paint69_linear_5667_7965" x1="139.828" y1="-18.6781" x2="144.364" y2="88.4613" gradientUnits="userSpaceOnUse">
<stop stop-color="#97C1FC"/>
<stop offset="0.5" stop-color="#0062F9"/>
<stop offset="1" stop-color="#002A66"/>
</linearGradient>
<linearGradient id="paint70_linear_5667_7965" x1="126.853" y1="-18.118" x2="131.39" y2="89.0216" gradientUnits="userSpaceOnUse">
<stop stop-color="#97C1FC"/>
<stop offset="0.5" stop-color="#0062F9"/>
<stop offset="1" stop-color="#002A66"/>
</linearGradient>
<linearGradient id="paint71_linear_5667_7965" x1="118.229" y1="-17.7632" x2="122.765" y2="89.3764" gradientUnits="userSpaceOnUse">
<stop stop-color="#97C1FC"/>
<stop offset="0.5" stop-color="#0062F9"/>
<stop offset="1" stop-color="#002A66"/>
</linearGradient>
<linearGradient id="paint72_linear_5667_7965" x1="114.98" y1="-17.6139" x2="119.517" y2="89.5258" gradientUnits="userSpaceOnUse">
<stop stop-color="#97C1FC"/>
<stop offset="0.5" stop-color="#0062F9"/>
<stop offset="1" stop-color="#002A66"/>
</linearGradient>
<linearGradient id="paint73_linear_5667_7965" x1="118.191" y1="-17.7631" x2="122.728" y2="89.3763" gradientUnits="userSpaceOnUse">
<stop stop-color="#97C1FC"/>
<stop offset="0.5" stop-color="#0062F9"/>
<stop offset="1" stop-color="#002A66"/>
</linearGradient>
<linearGradient id="paint74_linear_5667_7965" x1="126.704" y1="-18.118" x2="131.24" y2="89.0216" gradientUnits="userSpaceOnUse">
<stop stop-color="#97C1FC"/>
<stop offset="0.5" stop-color="#0062F9"/>
<stop offset="1" stop-color="#002A66"/>
</linearGradient>
<linearGradient id="paint75_linear_5667_7965" x1="139.548" y1="-18.6592" x2="144.084" y2="88.4803" gradientUnits="userSpaceOnUse">
<stop stop-color="#97C1FC"/>
<stop offset="0.5" stop-color="#0062F9"/>
<stop offset="1" stop-color="#002A66"/>
</linearGradient>
<linearGradient id="paint76_linear_5667_7965" x1="155.398" y1="-19.3313" x2="159.934" y2="87.808" gradientUnits="userSpaceOnUse">
<stop stop-color="#97C1FC"/>
<stop offset="0.5" stop-color="#0062F9"/>
<stop offset="1" stop-color="#002A66"/>
</linearGradient>
<linearGradient id="paint77_linear_5667_7965" x1="170.389" y1="-19.9662" x2="174.925" y2="87.1734" gradientUnits="userSpaceOnUse">
<stop stop-color="#97C1FC"/>
<stop offset="0.5" stop-color="#0062F9"/>
<stop offset="1" stop-color="#002A66"/>
</linearGradient>
<linearGradient id="paint78_linear_5667_7965" x1="182.243" y1="-20.4701" x2="186.761" y2="86.6693" gradientUnits="userSpaceOnUse">
<stop stop-color="#97C1FC"/>
<stop offset="0.5" stop-color="#0062F9"/>
<stop offset="1" stop-color="#002A66"/>
</linearGradient>
<linearGradient id="paint79_linear_5667_7965" x1="189.636" y1="-20.7877" x2="194.173" y2="86.3519" gradientUnits="userSpaceOnUse">
<stop stop-color="#97C1FC"/>
<stop offset="0.5" stop-color="#0062F9"/>
<stop offset="1" stop-color="#002A66"/>
</linearGradient>
<linearGradient id="paint80_linear_5667_7965" x1="196.394" y1="-21.0675" x2="200.931" y2="86.072" gradientUnits="userSpaceOnUse">
<stop stop-color="#97C1FC"/>
<stop offset="0.5" stop-color="#0062F9"/>
<stop offset="1" stop-color="#002A66"/>
</linearGradient>
<linearGradient id="paint81_linear_5667_7965" x1="194.154" y1="-20.9742" x2="198.69" y2="86.1653" gradientUnits="userSpaceOnUse">
<stop stop-color="#97C1FC"/>
<stop offset="0.5" stop-color="#0062F9"/>
<stop offset="1" stop-color="#002A66"/>
</linearGradient>
<linearGradient id="paint82_linear_5667_7965" x1="187.769" y1="-20.694" x2="192.306" y2="86.4448" gradientUnits="userSpaceOnUse">
<stop stop-color="#97C1FC"/>
<stop offset="0.5" stop-color="#0062F9"/>
<stop offset="1" stop-color="#002A66"/>
</linearGradient>
<linearGradient id="paint83_linear_5667_7965" x1="120.543" y1="-17.8566" x2="125.08" y2="89.2831" gradientUnits="userSpaceOnUse">
<stop stop-color="#97C1FC"/>
<stop offset="0.5" stop-color="#0062F9"/>
<stop offset="1" stop-color="#002A66"/>
</linearGradient>
<linearGradient id="paint84_linear_5667_7965" x1="113.655" y1="-17.5579" x2="118.191" y2="89.5816" gradientUnits="userSpaceOnUse">
<stop stop-color="#97C1FC"/>
<stop offset="0.5" stop-color="#0062F9"/>
<stop offset="1" stop-color="#002A66"/>
</linearGradient>
<linearGradient id="paint85_linear_5667_7965" x1="109.958" y1="-17.4085" x2="114.495" y2="89.7309" gradientUnits="userSpaceOnUse">
<stop stop-color="#97C1FC"/>
<stop offset="0.5" stop-color="#0062F9"/>
<stop offset="1" stop-color="#002A66"/>
</linearGradient>
<linearGradient id="paint86_linear_5667_7965" x1="113.617" y1="-17.5579" x2="118.154" y2="89.5818" gradientUnits="userSpaceOnUse">
<stop stop-color="#97C1FC"/>
<stop offset="0.5" stop-color="#0062F9"/>
<stop offset="1" stop-color="#002A66"/>
</linearGradient>
<linearGradient id="paint87_linear_5667_7965" x1="123.288" y1="-17.9686" x2="127.806" y2="89.1709" gradientUnits="userSpaceOnUse">
<stop stop-color="#97C1FC"/>
<stop offset="0.5" stop-color="#0062F9"/>
<stop offset="1" stop-color="#002A66"/>
</linearGradient>
<linearGradient id="paint88_linear_5667_7965" x1="137.793" y1="-18.5847" x2="142.33" y2="88.5548" gradientUnits="userSpaceOnUse">
<stop stop-color="#97C1FC"/>
<stop offset="0.5" stop-color="#0062F9"/>
<stop offset="1" stop-color="#002A66"/>
</linearGradient>
<linearGradient id="paint89_linear_5667_7965" x1="155.51" y1="-19.3313" x2="160.046" y2="87.808" gradientUnits="userSpaceOnUse">
<stop stop-color="#97C1FC"/>
<stop offset="0.5" stop-color="#0062F9"/>
<stop offset="1" stop-color="#002A66"/>
</linearGradient>
<linearGradient id="paint90_linear_5667_7965" x1="172.349" y1="-20.0409" x2="176.885" y2="87.0987" gradientUnits="userSpaceOnUse">
<stop stop-color="#97C1FC"/>
<stop offset="0.5" stop-color="#0062F9"/>
<stop offset="1" stop-color="#002A66"/>
</linearGradient>
<linearGradient id="paint91_linear_5667_7965" x1="185.753" y1="-20.6197" x2="190.29" y2="86.5199" gradientUnits="userSpaceOnUse">
<stop stop-color="#97C1FC"/>
<stop offset="0.5" stop-color="#0062F9"/>
<stop offset="1" stop-color="#002A66"/>
</linearGradient>
<linearGradient id="paint92_linear_5667_7965" x1="194.135" y1="-20.9742" x2="198.672" y2="86.1652" gradientUnits="userSpaceOnUse">
<stop stop-color="#97C1FC"/>
<stop offset="0.5" stop-color="#0062F9"/>
<stop offset="1" stop-color="#002A66"/>
</linearGradient>
<linearGradient id="paint93_linear_5667_7965" x1="198.635" y1="-21.161" x2="203.171" y2="85.9787" gradientUnits="userSpaceOnUse">
<stop stop-color="#97C1FC"/>
<stop offset="0.5" stop-color="#0062F9"/>
<stop offset="1" stop-color="#002A66"/>
</linearGradient>
<linearGradient id="paint94_linear_5667_7965" x1="197.72" y1="-21.1233" x2="202.238" y2="86.0156" gradientUnits="userSpaceOnUse">
<stop stop-color="#97C1FC"/>
<stop offset="0.5" stop-color="#0062F9"/>
<stop offset="1" stop-color="#002A66"/>
</linearGradient>
<linearGradient id="paint95_linear_5667_7965" x1="107.457" y1="-17.2966" x2="111.993" y2="89.8431" gradientUnits="userSpaceOnUse">
<stop stop-color="#97C1FC"/>
<stop offset="0.5" stop-color="#0062F9"/>
<stop offset="1" stop-color="#002A66"/>
</linearGradient>
<linearGradient id="paint96_linear_5667_7965" x1="111.377" y1="-17.4646" x2="115.914" y2="89.675" gradientUnits="userSpaceOnUse">
<stop stop-color="#97C1FC"/>
<stop offset="0.5" stop-color="#0062F9"/>
<stop offset="1" stop-color="#002A66"/>
</linearGradient>
<linearGradient id="paint97_linear_5667_7965" x1="121.607" y1="-17.8937" x2="126.125" y2="89.2457" gradientUnits="userSpaceOnUse">
<stop stop-color="#97C1FC"/>
<stop offset="0.5" stop-color="#0062F9"/>
<stop offset="1" stop-color="#002A66"/>
</linearGradient>
<linearGradient id="paint98_linear_5667_7965" x1="136.953" y1="-18.5471" x2="141.49" y2="88.5922" gradientUnits="userSpaceOnUse">
<stop stop-color="#97C1FC"/>
<stop offset="0.5" stop-color="#0062F9"/>
<stop offset="1" stop-color="#002A66"/>
</linearGradient>
<linearGradient id="paint99_linear_5667_7965" x1="155.454" y1="-19.3314" x2="159.99" y2="87.8081" gradientUnits="userSpaceOnUse">
<stop stop-color="#97C1FC"/>
<stop offset="0.5" stop-color="#0062F9"/>
<stop offset="1" stop-color="#002A66"/>
</linearGradient>
<linearGradient id="paint100_linear_5667_7965" x1="173.171" y1="-20.0784" x2="177.688" y2="87.0613" gradientUnits="userSpaceOnUse">
<stop stop-color="#97C1FC"/>
<stop offset="0.5" stop-color="#0062F9"/>
<stop offset="1" stop-color="#002A66"/>
</linearGradient>
<linearGradient id="paint101_linear_5667_7965" x1="187.321" y1="-20.6753" x2="191.858" y2="86.4641" gradientUnits="userSpaceOnUse">
<stop stop-color="#97C1FC"/>
<stop offset="0.5" stop-color="#0062F9"/>
<stop offset="1" stop-color="#002A66"/>
</linearGradient>
<linearGradient id="paint102_linear_5667_7965" x1="196.226" y1="-21.0676" x2="200.763" y2="86.0906" gradientUnits="userSpaceOnUse">
<stop stop-color="#97C1FC"/>
<stop offset="0.5" stop-color="#0062F9"/>
<stop offset="1" stop-color="#002A66"/>
</linearGradient>
<linearGradient id="paint103_linear_5667_7965" x1="107.401" y1="-17.2965" x2="111.938" y2="89.8429" gradientUnits="userSpaceOnUse">
<stop stop-color="#97C1FC"/>
<stop offset="0.5" stop-color="#0062F9"/>
<stop offset="1" stop-color="#002A66"/>
</linearGradient>
<linearGradient id="paint104_linear_5667_7965" x1="111.657" y1="-17.4645" x2="116.194" y2="89.675" gradientUnits="userSpaceOnUse">
<stop stop-color="#97C1FC"/>
<stop offset="0.5" stop-color="#0062F9"/>
<stop offset="1" stop-color="#002A66"/>
</linearGradient>
<linearGradient id="paint105_linear_5667_7965" x1="121.757" y1="-17.9128" x2="126.294" y2="89.2268" gradientUnits="userSpaceOnUse">
<stop stop-color="#97C1FC"/>
<stop offset="0.5" stop-color="#0062F9"/>
<stop offset="1" stop-color="#002A66"/>
</linearGradient>
<linearGradient id="paint106_linear_5667_7965" x1="136.935" y1="-18.5476" x2="141.471" y2="88.5921" gradientUnits="userSpaceOnUse">
<stop stop-color="#97C1FC"/>
<stop offset="0.5" stop-color="#0062F9"/>
<stop offset="1" stop-color="#002A66"/>
</linearGradient>
<linearGradient id="paint107_linear_5667_7965" x1="155.398" y1="-19.3314" x2="159.934" y2="87.8082" gradientUnits="userSpaceOnUse">
<stop stop-color="#97C1FC"/>
<stop offset="0.5" stop-color="#0062F9"/>
<stop offset="1" stop-color="#002A66"/>
</linearGradient>
<linearGradient id="paint108_linear_5667_7965" x1="172.853" y1="-20.078" x2="177.39" y2="87.0801" gradientUnits="userSpaceOnUse">
<stop stop-color="#97C1FC"/>
<stop offset="0.5" stop-color="#0062F9"/>
<stop offset="1" stop-color="#002A66"/>
</linearGradient>
<linearGradient id="paint109_linear_5667_7965" x1="186.873" y1="-20.6569" x2="191.41" y2="86.4828" gradientUnits="userSpaceOnUse">
<stop stop-color="#97C1FC"/>
<stop offset="0.5" stop-color="#0062F9"/>
<stop offset="1" stop-color="#002A66"/>
</linearGradient>
<linearGradient id="paint110_linear_5667_7965" x1="195.666" y1="-21.0302" x2="200.184" y2="86.1093" gradientUnits="userSpaceOnUse">
<stop stop-color="#97C1FC"/>
<stop offset="0.5" stop-color="#0062F9"/>
<stop offset="1" stop-color="#002A66"/>
</linearGradient>
<linearGradient id="paint111_linear_5667_7965" x1="115.26" y1="-17.633" x2="119.797" y2="89.5071" gradientUnits="userSpaceOnUse">
<stop stop-color="#97C1FC"/>
<stop offset="0.5" stop-color="#0062F9"/>
<stop offset="1" stop-color="#002A66"/>
</linearGradient>
<linearGradient id="paint112_linear_5667_7965" x1="123.792" y1="-17.9871" x2="128.329" y2="89.1522" gradientUnits="userSpaceOnUse">
<stop stop-color="#97C1FC"/>
<stop offset="0.5" stop-color="#0062F9"/>
<stop offset="1" stop-color="#002A66"/>
</linearGradient>
<linearGradient id="paint113_linear_5667_7965" x1="137.849" y1="-18.585" x2="142.386" y2="88.5547" gradientUnits="userSpaceOnUse">
<stop stop-color="#97C1FC"/>
<stop offset="0.5" stop-color="#0062F9"/>
<stop offset="1" stop-color="#002A66"/>
</linearGradient>
<linearGradient id="paint114_linear_5667_7965" x1="155.137" y1="-19.3118" x2="159.673" y2="87.8268" gradientUnits="userSpaceOnUse">
<stop stop-color="#97C1FC"/>
<stop offset="0.5" stop-color="#0062F9"/>
<stop offset="1" stop-color="#002A66"/>
</linearGradient>
<linearGradient id="paint115_linear_5667_7965" x1="171.397" y1="-20.0031" x2="175.934" y2="87.136" gradientUnits="userSpaceOnUse">
<stop stop-color="#97C1FC"/>
<stop offset="0.5" stop-color="#0062F9"/>
<stop offset="1" stop-color="#002A66"/>
</linearGradient>
<linearGradient id="paint116_linear_5667_7965" x1="184.502" y1="-20.5638" x2="189.039" y2="86.5759" gradientUnits="userSpaceOnUse">
<stop stop-color="#97C1FC"/>
<stop offset="0.5" stop-color="#0062F9"/>
<stop offset="1" stop-color="#002A66"/>
</linearGradient>
<linearGradient id="paint117_linear_5667_7965" x1="141.396" y1="-18.7346" x2="145.933" y2="88.4055" gradientUnits="userSpaceOnUse">
<stop stop-color="#97C1FC"/>
<stop offset="0.5" stop-color="#0062F9"/>
<stop offset="1" stop-color="#002A66"/>
</linearGradient>
<linearGradient id="paint118_linear_5667_7965" x1="154.763" y1="-19.3121" x2="159.299" y2="87.8454" gradientUnits="userSpaceOnUse">
<stop stop-color="#97C1FC"/>
<stop offset="0.5" stop-color="#0062F9"/>
<stop offset="1" stop-color="#002A66"/>
</linearGradient>
<linearGradient id="paint119_linear_5667_7965" x1="165.367" y1="-19.752" x2="169.902" y2="87.3977" gradientUnits="userSpaceOnUse">
<stop stop-color="#97C1FC"/>
<stop offset="0.5" stop-color="#0062F9"/>
<stop offset="1" stop-color="#002A66"/>
</linearGradient>
<linearGradient id="paint120_linear_5667_7965" x1="311.823" y1="65.6484" x2="279.171" y2="65.6484" gradientUnits="userSpaceOnUse">
<stop stop-color="#97C1FC"/>
<stop offset="0.5" stop-color="#0062F9"/>
<stop offset="1" stop-color="#002A66"/>
</linearGradient>
<linearGradient id="paint121_linear_5667_7965" x1="326.328" y1="75.9535" x2="310.871" y2="75.9535" gradientUnits="userSpaceOnUse">
<stop stop-color="#97C1FC"/>
<stop offset="0.5" stop-color="#0062F9"/>
<stop offset="1" stop-color="#002A66"/>
</linearGradient>
</defs>
</svg>
