<svg width="32" height="33" viewBox="0 0 32 33" fill="none" xmlns="http://www.w3.org/2000/svg">
<circle cx="16" cy="16.3604" r="16" fill="#0064FF"/>
<g clip-path="url(#clip0_5888_1513)">
<path d="M26.6316 11.6704C26.4105 10.7604 25.6737 10.2004 24.8632 9.99035C23.1684 9.36035 16.5368 9.36035 16.5368 9.36035C16.5368 9.36035 10.0526 9.36035 8.43158 9.78035C7.47368 10.0604 6.73684 10.6904 6.51579 11.5304C6 13.1404 6 16.2904 6 16.2904C6 16.2904 6 19.5804 6.51579 21.0504C6.73684 21.9604 7.47368 22.6604 8.43158 22.8704C10.0526 23.3604 16.5368 23.3604 16.5368 23.3604C16.5368 23.3604 23.0947 23.3604 24.7158 22.8704C25.6737 22.6604 26.2632 21.9604 26.4842 21.1904C27 19.5804 27 16.4304 27 16.4304C27 16.4304 27.0737 13.1404 26.6316 11.6704ZM14.4737 19.3704V13.4904L19.8526 16.4304L14.4737 19.3704Z" fill="white"/>
</g>
<defs>
<clipPath id="clip0_5888_1513">
<rect width="21" height="14" fill="white" transform="translate(6 9.36035)"/>
</clipPath>
</defs>
</svg>
